<?xml version="1.0" encoding="utf-8"?><svg xmlns="http://www.w3.org/2000/svg" xmlns:xlink="http://www.w3.org/1999/xlink"><symbol id="footer-logo" viewBox="0 0 314.57 45.03" xmlns="http://www.w3.org/2000/svg"><defs><style>.acls-1{fill:#a6a4a4}</style></defs><title>footer-logo</title><path class="acls-1" d="M211.44 8.59v.58a3.34 3.34 0 0 0 .07.44 2.44 2.44 0 0 0 .21.52 1.48 1.48 0 0 0 .37.45 1.89 1.89 0 0 0 .56.31 2.34 2.34 0 0 0 .78.12 2.09 2.09 0 0 0 1.59-.54 2.25 2.25 0 0 0 .63-1.47l-1.19-.2a1.69 1.69 0 0 1-.2.88.7.7 0 0 1-.65.32.88.88 0 0 1-.56-.17 1.07 1.07 0 0 1-.29-.48 2.89 2.89 0 0 1-.09-.71V6.19a3.1 3.1 0 0 1 .12-.86.91.91 0 0 1 .34-.47.92.92 0 0 1 .5-.13.81.81 0 0 1 .35.07.72.72 0 0 1 .23.19 1.57 1.57 0 0 1 .23 1l1.2-.16a2.47 2.47 0 0 0-.46-1.57 1.31 1.31 0 0 0-.28-.26 2.12 2.12 0 0 0-1.3-.36 2.24 2.24 0 0 0-1.29.32 1.79 1.79 0 0 0-.67.88 2 2 0 0 0-.12.46q0 .29-.07.64v2.09c0 .21-.02.35-.01.56zm19.63 1.73a1.38 1.38 0 0 0 .25.3 1.36 1.36 0 0 0 1 .4 2.11 2.11 0 0 0 .84-.16 1.64 1.64 0 0 0 .64-.53v.57h1.2V5.6a1.94 1.94 0 0 0-.49-1.6 2.3 2.3 0 0 0-1.51-.44 2.21 2.21 0 0 0-1.38.41 1.88 1.88 0 0 0-.7 1.13l1.1.31a.81.81 0 0 1 .35-.57 1.06 1.06 0 0 1 .57-.18 1 1 0 0 1 .72.23 1.06 1.06 0 0 1 .19.66v1h-1.14a2 2 0 0 0-1 .21 1.68 1.68 0 0 0-.6.55 2.21 2.21 0 0 0-.31.75 4 4 0 0 0-.09.82 3.66 3.66 0 0 0 .08.77 2.15 2.15 0 0 0 .28.67zm.82-1.48a1.18 1.18 0 0 1 .34-1 1.25 1.25 0 0 1 .8-.27h.81V8.7a1.24 1.24 0 0 1-.27.85 1 1 0 0 1-.81.31.84.84 0 0 1-.65-.24 1.22 1.22 0 0 1-.21-.79zm5.22.76a2.27 2.27 0 0 0 .22.52 1.58 1.58 0 0 0 .38.45 1.89 1.89 0 0 0 .56.31 2.34 2.34 0 0 0 .78.12 3.66 3.66 0 0 0 .72-.07 1.93 1.93 0 0 0 .68-.28 1.72 1.72 0 0 0 .53-.57 2.43 2.43 0 0 0 .29-1q0-.42.06-.72V6.21c0-.25 0-.47-.06-.69a2.45 2.45 0 0 0-.11-.53 2.59 2.59 0 0 0-.22-.45 1.5 1.5 0 0 0-.33-.37 1.52 1.52 0 0 0-.49-.26 2.31 2.31 0 0 0-.71-.1 2 2 0 0 0-.57.12 1.36 1.36 0 0 0-.65.48 4.36 4.36 0 0 1 .2-1.31 1.51 1.51 0 0 1 .72-.91q.36-.21.62-.32l.48-.21.45-.19.57-.28-.39-.82-.62.26-.5.19-.46.18-.5.23a2.76 2.76 0 0 0-.81.58 2.57 2.57 0 0 0-.53.89 6 6 0 0 0-.3 1.36 17.54 17.54 0 0 0-.09 2v2.61a4.54 4.54 0 0 0 .08.93zm3.08-1a2.31 2.31 0 0 1-.11.66 1.17 1.17 0 0 1-.35.48.85.85 0 0 1-.55.19 1 1 0 0 1-.61-.17 1 1 0 0 1-.32-.48 2.61 2.61 0 0 1-.09-.63V6.38a2.22 2.22 0 0 1 .12-.81.92.92 0 0 1 .38-.48 1.06 1.06 0 0 1 .55-.15 1 1 0 0 1 .57.17 1 1 0 0 1 .31.51 1.73 1.73 0 0 1 .07.37v1.49q.07.62.04 1.12zm28.69 1.72a1.38 1.38 0 0 0 .25.3 1.36 1.36 0 0 0 1 .4 2.11 2.11 0 0 0 .84-.16 1.64 1.64 0 0 0 .64-.53v.57h1.16V5.6a1.94 1.94 0 0 0-.45-1.6 2.3 2.3 0 0 0-1.52-.45 2.21 2.21 0 0 0-1.38.41 1.88 1.88 0 0 0-.7 1.13l1.1.31a.81.81 0 0 1 .35-.57 1.06 1.06 0 0 1 .57-.18 1 1 0 0 1 .72.23 1.06 1.06 0 0 1 .19.66v1h-1.14a2 2 0 0 0-1 .21 1.68 1.68 0 0 0-.6.55 2.22 2.22 0 0 0-.31.75 4 4 0 0 0-.09.82 3.66 3.66 0 0 0 .08.77 2.15 2.15 0 0 0 .29.68zm.82-1.48a1.18 1.18 0 0 1 .34-1 1.25 1.25 0 0 1 .8-.27h.81V8.7a1.24 1.24 0 0 1-.27.85 1 1 0 0 1-.81.31.84.84 0 0 1-.65-.24 1.22 1.22 0 0 1-.22-.79zm-69.07 10.45h-4.28v7.23h.04v.04h1.16v-6.21h1.92v6.17h.04v.04h1.16v-7.24h-.04v-.03zm2.05-.01v10.06h1.16V26a1.39 1.39 0 0 0 .23.24 1.31 1.31 0 0 0 .29.2 1.6 1.6 0 0 0 .73.15 1.67 1.67 0 0 0 1.06-.3 1.75 1.75 0 0 0 .56-.81 4.27 4.27 0 0 0 .22-1.21v-2.4q0-.49.07-.87a2.51 2.51 0 0 0-.28-1 1.69 1.69 0 0 0-.46-.54 1.31 1.31 0 0 0-.53-.23 2.66 2.66 0 0 0-.47-.05 1.58 1.58 0 0 0-.83.17 1.86 1.86 0 0 0-.48.48v-.52zm1.18 5.09v-2.88a1.3 1.3 0 0 1 .25-.82.87.87 0 0 1 .73-.32 1 1 0 0 1 .56.13.85.85 0 0 1 .28.42 3 3 0 0 1 .12.78v2.4a3.33 3.33 0 0 1-.15.81.8.8 0 0 1-.31.43 1 1 0 0 1-.52.12.89.89 0 0 1-.71-.28 1.32 1.32 0 0 1-.25-.8zm29.46 2.15h1.16v-7.19h-3.84v4.32a7.48 7.48 0 0 1 0 .88 1.91 1.91 0 0 1-.16.59 1.5 1.5 0 0 1-.31.43 3.59 3.59 0 0 1-.5.4l.51.86a3.26 3.26 0 0 0 .74-.46 2 2 0 0 0 .48-.62 3 3 0 0 0 .26-.86 7.47 7.47 0 0 0 .08-1.18v-3.34h1.58zm12.4 0h.04v.04h1.19v-7.24h-.04v-.03h-1.19v3.05h-1.86v-3.02h-.04v-.03h-1.19v7.23h.05v.04h1.18v-3.21h1.86v3.17zm8.25-7.23v7.23h.04v.04h1.2v-7.24h-.04v-.03h-1.2zm35.96 0h-1.19v3.05h-1.86v-3.02h-.04v-.03h-1.19v7.23h.04v.04h1.19v-3.21h1.86v3.17h.04v.04h1.19v-7.24h-.04v-.03zm-89.3 15.63h-4.28v7.24h.04v.03h1.16v-6.21h1.92v6.18h.04v.03h1.16v-7.23h-.04v-.04zm36.46 0h-1.19v3.05h-1.86v-3.01H234v-.04h-1.19v7.24h.04v.03h1.19v-3.21h1.86v3.18h.04v.03h1.19v-7.23h-.04v-.04zm6.23 0h-1.16v3.13a2.64 2.64 0 0 1-.56.26 1.8 1.8 0 0 1-.55.09.85.85 0 0 1-.63-.22 1.09 1.09 0 0 1-.22-.73V35H239v2.81a1.77 1.77 0 0 0 .43 1.33 1.69 1.69 0 0 0 1.21.41 3.14 3.14 0 0 0 1.45-.4v3h1.17V35zm12.65 0h-1.15l-2.11 4.71v-4.67h-.05v-.04h-1.12v7.24h.04v.03h1.11l2.13-4.76v4.73h.04v.03h1.15v-7.23h-.04v-.04zm-1.29-2.87a.82.82 0 0 1-.07.31 1 1 0 0 1-.2.3 1 1 0 0 1-.31.23 1 1 0 0 1-.42.09.88.88 0 0 1-.4-.09 1 1 0 0 1-.26-.2 1.17 1.17 0 0 1-.19-.29.94.94 0 0 1-.09-.31h-1a1.9 1.9 0 0 0 .1.59 1.67 1.67 0 0 0 .33.58 1.59 1.59 0 0 0 .27.25 2 2 0 0 0 .36.22 2.08 2.08 0 0 0 .91.18 1.84 1.84 0 0 0 .83-.18 1.93 1.93 0 0 0 .59-.44 1.83 1.83 0 0 0 .35-.58 2.42 2.42 0 0 0 .15-.59zm13.84 2.87h-1.16l-2.11 4.71v-4.67h-.04v-.04h-1.13v7.24h.05v.03h1.11l2.12-4.73v4.7h.05v.03h1.15v-7.23h-.04v-.04zm6.5 0h-1.18v3.05h-1.87v-3.01h-.04v-.04h-1.18v7.24h.04v.03h1.18v-3.21h1.87v3.18h.04v.03h1.18v-7.23h-.04v-.04zm5.98 0h-3.75v7.24h.04v.03h1.15v-6.21h2.6v-1.02H281v-.04zm6.06 0h-1.19l-.6 2.74-.54 2.53-.58-2.47-.62-2.72h-1.23l1.92 7.29-.12.51a3.19 3.19 0 0 1-.34 1 .67.67 0 0 1-.59.27h-.29v1h.44a1.44 1.44 0 0 0 1.16-.45 2.8 2.8 0 0 0 .52-1.22l2.1-8.4zm-83.89-23.99V.74h-.04V.7h-1.19l-1.18 3.11-.97 2.56h-.01l-.93-2.46-1.21-3.17h-.03l-.02-.04h-1.17v10.19h.05v.04h1.15V3.87h.03l.79 2.07 1.06 2.48h.03l.01.03h.54l1.05-2.47.81-2.11h.03v7.02h.04v.04h1.16zm6.33 0V5.6A1.94 1.94 0 0 0 209 4a2.3 2.3 0 0 0-1.51-.45A2.21 2.21 0 0 0 206 4a1.88 1.88 0 0 0-.7 1.13l1.1.31a.81.81 0 0 1 .35-.57 1.05 1.05 0 0 1 .57-.18 1 1 0 0 1 .72.23 1.06 1.06 0 0 1 .19.66v1h-1.14a2 2 0 0 0-1 .21 1.67 1.67 0 0 0-.6.55 2.2 2.2 0 0 0-.31.75 3.9 3.9 0 0 0-.09.82 3.63 3.63 0 0 0 .08.77 2.15 2.15 0 0 0 .26.67 1.4 1.4 0 0 0 .25.3 1.44 1.44 0 0 0 .28.22 1.46 1.46 0 0 0 .76.18 2.11 2.11 0 0 0 .84-.16 1.64 1.64 0 0 0 .64-.53v.57zm-3.15-2.09a1.18 1.18 0 0 1 .34-1 1.25 1.25 0 0 1 .8-.27h.81V8.7a1.24 1.24 0 0 1-.27.85 1 1 0 0 1-.81.31.84.84 0 0 1-.65-.24 1.22 1.22 0 0 1-.22-.79zm11.11 2.09h6.82V3.69h-.04v-.03h-1.12V9.8h-1.68V3.69h-.04v-.03h-1.15V9.8h-1.63V3.69h-.04v-.03h-1.16v7.23h.04v.04zm8.42-6.21h1.48v6.17h.04v.04h1.16V4.72h1.54V3.69h-.04v-.03h-4.22v1.03h.04v.03zm17.5 6.21h1.11l2.13-4.73v4.69h.04v.04h1.15V3.69h-.04v-.03h-1.15l-2.12 4.7V3.69h-.04v-.03h-1.12v7.23h.04v.04zm6.47 2.81H251V10.4a1.4 1.4 0 0 0 .23.24 1.32 1.32 0 0 0 .29.2 1.6 1.6 0 0 0 .73.15 1.67 1.67 0 0 0 1.06-.3 1.76 1.76 0 0 0 .56-.81 4.27 4.27 0 0 0 .22-1.21v-2.4q0-.49-.05-.92a2.5 2.5 0 0 0-.28-1 1.69 1.69 0 0 0-.46-.54 1.32 1.32 0 0 0-.53-.23 2.66 2.66 0 0 0-.47-.05 1.58 1.58 0 0 0-.83.17 1.88 1.88 0 0 0-.48.48v-.5h-1.16v10.03zm1.14-5V5.86a1.3 1.3 0 0 1 .25-.82.87.87 0 0 1 .73-.32 1 1 0 0 1 .56.13.84.84 0 0 1 .28.42 2.93 2.93 0 0 1 .12.78v2.4a3.38 3.38 0 0 1-.15.81.81.81 0 0 1-.31.43 1 1 0 0 1-.52.12.89.89 0 0 1-.71-.28 1.32 1.32 0 0 1-.24-.8zm6.37 2.17a2.36 2.36 0 0 0 .79.12 3.68 3.68 0 0 0 .72-.07 1.94 1.94 0 0 0 .68-.28 1.73 1.73 0 0 0 .54-.57 2.43 2.43 0 0 0 .29-1 15.89 15.89 0 0 0 .09-1.67V5.67a4.36 4.36 0 0 0-.13-.84 1.75 1.75 0 0 0-.34-.67 1.44 1.44 0 0 0-.29-.26 1.71 1.71 0 0 0-.38-.22 2.67 2.67 0 0 0-1-.16 2.33 2.33 0 0 0-1.31.32 1.76 1.76 0 0 0-.69.88 2 2 0 0 0-.12.46c0 .19-.05.4-.07.64s0 .48 0 .74v2.57a3.49 3.49 0 0 0 .07.44 2.32 2.32 0 0 0 .22.52 1.6 1.6 0 0 0 .38.45 1.91 1.91 0 0 0 .55.37zm-.1-4.8a3 3 0 0 1 .12-.85.86.86 0 0 1 .37-.47 1.09 1.09 0 0 1 .53-.13 1 1 0 0 1 .57.16 1 1 0 0 1 .31.49 1.74 1.74 0 0 1 .07.35v2.88c0 .18 0 .34-.05.47a1.44 1.44 0 0 1-.06.27 1.11 1.11 0 0 1-.35.47.84.84 0 0 1-.54.18 1.06 1.06 0 0 1-.6-.16.92.92 0 0 1-.32-.48 3 3 0 0 1-.09-.71v-.94q.01-.88.04-1.53zm7.04 4.82a2.74 2.74 0 0 0 1.84-.53 2.11 2.11 0 0 0 .6-1.67 2.75 2.75 0 0 0-.17-1 1.12 1.12 0 0 0-.27-.4 1.21 1.21 0 0 0-.34-.24 1.57 1.57 0 0 0 .52-.57 1.85 1.85 0 0 0 .17-.84 1.9 1.9 0 0 0-.56-1.46 2.49 2.49 0 0 0-1.74-.52h-1.93v7.23zm-.69-3.32h.79a1.41 1.41 0 0 1 .94.24 1.1 1.1 0 0 1 .25.77 2.9 2.9 0 0 1 0 .48.75.75 0 0 1-.17.37.88.88 0 0 1-.37.24 1.83 1.83 0 0 1-.63.09h-.78zm1.85-2a.94.94 0 0 1-.28.73 1.4 1.4 0 0 1-.94.25h-.63V4.72h.69a1.45 1.45 0 0 1 .9.22.88.88 0 0 1 .26.68zm9.56 5.32h1.19V7.72h1.86v3.17h.04v.04h1.19V3.69h-.05v-.03h-1.18v3.05h-1.86V3.69h-.04v-.03h-1.19v7.23h.04v.04zm6.49 0h1.11l2.13-4.73v4.69h.04v.04h1.15V3.69h-.04v-.03h-1.15l-2.12 4.7V3.69h-.04v-.03h-1.12v7.23h.04v.04zm10.63-1.84L291 8.84a1.45 1.45 0 0 1-.24.8.75.75 0 0 1-.64.29 1 1 0 0 1-.57-.16.93.93 0 0 1-.31-.47 3.24 3.24 0 0 1-.09-.72v-1h3.1V5.85a2.58 2.58 0 0 0-.48-1.66 1.39 1.39 0 0 0-.29-.27 2.12 2.12 0 0 0-1.31-.36 2.2 2.2 0 0 0-1.29.34 1.85 1.85 0 0 0-.68.91 2.35 2.35 0 0 0-.12.48q0 .29-.07.62t0 .71v2.56a3.34 3.34 0 0 0 .07.44 1.91 1.91 0 0 0 .2.5 1.61 1.61 0 0 0 .37.45 1.88 1.88 0 0 0 .57.32 2.33 2.33 0 0 0 .8.12 2.19 2.19 0 0 0 1.57-.5 2.08 2.08 0 0 0 .58-1.43zm-1.32-4a1.34 1.34 0 0 1 .14.45A3.72 3.72 0 0 1 291 6v.61h-1.89v-.83a2.27 2.27 0 0 1 .1-.56.87.87 0 0 1 .35-.46 1 1 0 0 1 .49-.12.94.94 0 0 1 .47.1.77.77 0 0 1 .3.33zm-77.28 21.47v-7.24h-.04v-.03h-1.16L210.23 24v-4.68h-.04v-.03h-1.13v7.23h.04v.04h1.11l2.13-4.73v4.69h.04v.04h1.16zm6.37-4.64c0-.24 0-.47-.06-.69a2.45 2.45 0 0 0-.11-.53 2.59 2.59 0 0 0-.22-.45 1.5 1.5 0 0 0-.33-.37 1.53 1.53 0 0 0-.49-.26 2.31 2.31 0 0 0-.71-.1 2 2 0 0 0-.57.12 1.36 1.36 0 0 0-.65.48 4.36 4.36 0 0 1 .2-1.31 1.51 1.51 0 0 1 .72-.91q.36-.21.62-.32l.48-.21.45-.19.57-.28-.39-.82-.61.26-.5.19-.46.18-.5.23a2.76 2.76 0 0 0-.81.58 2.57 2.57 0 0 0-.53.89 6 6 0 0 0-.3 1.36 17.54 17.54 0 0 0-.09 2v2.61a4.53 4.53 0 0 0 .11.94 2.27 2.27 0 0 0 .22.52 1.58 1.58 0 0 0 .38.45 1.89 1.89 0 0 0 .56.31 2.34 2.34 0 0 0 .78.12 3.66 3.66 0 0 0 .72-.07 1.93 1.93 0 0 0 .68-.28 1.72 1.72 0 0 0 .53-.57 2.43 2.43 0 0 0 .29-1q0-.42.06-.72v-1.4c0-.25-.02-.52-.04-.76zm-1.17 2.31a2.31 2.31 0 0 1-.11.66 1.17 1.17 0 0 1-.35.48.85.85 0 0 1-.55.19 1 1 0 0 1-.61-.17 1 1 0 0 1-.32-.48 2.61 2.61 0 0 1-.09-.63v-2.27a2.22 2.22 0 0 1 .12-.81.92.92 0 0 1 .38-.48 1.06 1.06 0 0 1 .55-.15 1 1 0 0 1 .57.17 1 1 0 0 1 .31.51 1.73 1.73 0 0 1 .07.37v1.49q.07.62.04 1.12zm9.23 2.33v-7.24h-.04v-.03h-1.2v7.23h.04v.04h1.2zm-2.26-3.82a1.56 1.56 0 0 0-.32-.27 2.12 2.12 0 0 0-.45-.24 3.44 3.44 0 0 0-1.24-.23h-.59v-2.67h-1.2v7.23h1.9a3.51 3.51 0 0 0 1.19-.16 1.58 1.58 0 0 0 1.08-1.18 4.05 4.05 0 0 0 .1-.95 3.54 3.54 0 0 0-.1-.83 1.6 1.6 0 0 0-.37-.7zm-2.59.4h.6a2 2 0 0 1 .67.1l.23.11.13.11a.77.77 0 0 1 .18.37 2.12 2.12 0 0 1 0 .43 1.94 1.94 0 0 1 0 .41.91.91 0 0 1-.18.37 1 1 0 0 1-.38.28 1.65 1.65 0 0 1-.66.11h-.59zm17.23 2.8a1.65 1.65 0 0 0 .37-.72 4.06 4.06 0 0 0 .1-.95 3.53 3.53 0 0 0-.1-.83 1.6 1.6 0 0 0-.36-.69 1.56 1.56 0 0 0-.32-.27 2.12 2.12 0 0 0-.45-.24 3.44 3.44 0 0 0-1.23-.18h-.59v-2.73h-1.2v7.23h1.9a3.51 3.51 0 0 0 1.16-.16 1.67 1.67 0 0 0 .72-.46zm-2.58-2.79h.6a2 2 0 0 1 .67.1l.23.11.13.11a.77.77 0 0 1 .18.37 2.12 2.12 0 0 1 0 .43 1.94 1.94 0 0 1 0 .41.9.9 0 0 1-.18.37 1 1 0 0 1-.38.28 1.65 1.65 0 0 1-.66.11h-.59zm15.15 2.79a1.65 1.65 0 0 0 .37-.72 4.05 4.05 0 0 0 .1-.95 3.53 3.53 0 0 0-.1-.83 1.6 1.6 0 0 0-.36-.69 1.56 1.56 0 0 0-.32-.27 2.12 2.12 0 0 0-.45-.24 3.44 3.44 0 0 0-1.23-.18h-.59v-2.73h-1.2v7.23h1.9a3.51 3.51 0 0 0 1.16-.16 1.67 1.67 0 0 0 .72-.46zm-2.58-2.79h.6a2 2 0 0 1 .67.1l.23.11.13.11a.77.77 0 0 1 .18.37 2.12 2.12 0 0 1 0 .43 1.94 1.94 0 0 1 0 .41.91.91 0 0 1-.15.32 1 1 0 0 1-.38.28 1.65 1.65 0 0 1-.66.11h-.59zm7.84 3.41l1.08-2.47 1.02 2.43h.02l.02.04h1.29l-1.7-3.71 1.67-3.53h-.06l.02-.03h-1.35l-.94 2.36-.98-2.33h-.03l-.01-.03h-1.3l1.71 3.55-1.77 3.68h.05l-.01.04h1.27zm12.9-1.77q0-.42.06-.72v-2.15c0-.25 0-.47-.06-.69a2.45 2.45 0 0 0-.11-.53 2.59 2.59 0 0 0-.22-.45 1.5 1.5 0 0 0-.33-.37 1.53 1.53 0 0 0-.49-.26 2.31 2.31 0 0 0-.71-.1 2 2 0 0 0-.57.12 1.36 1.36 0 0 0-.65.48 4.36 4.36 0 0 1 .2-1.31 1.51 1.51 0 0 1 .72-.91q.36-.21.62-.32l.48-.21.45-.19.57-.28-.39-.82-.62.26-.5.19-.46.18-.5.23a2.76 2.76 0 0 0-.81.58 2.57 2.57 0 0 0-.53.89 6 6 0 0 0-.3 1.36 17.54 17.54 0 0 0-.09 2v2.61a4.53 4.53 0 0 0 .11.94 2.27 2.27 0 0 0 .22.52 1.58 1.58 0 0 0 .38.45 1.89 1.89 0 0 0 .56.31 2.34 2.34 0 0 0 .78.12 3.66 3.66 0 0 0 .72-.07 1.93 1.93 0 0 0 .68-.28 1.72 1.72 0 0 0 .53-.57 2.43 2.43 0 0 0 .26-1.01zm-1.13-.56a2.31 2.31 0 0 1-.11.66 1.17 1.17 0 0 1-.35.48.85.85 0 0 1-.55.19 1 1 0 0 1-.61-.17 1 1 0 0 1-.32-.48 2.61 2.61 0 0 1-.09-.63v-2.27a2.22 2.22 0 0 1 .12-.81.92.92 0 0 1 .38-.48 1.06 1.06 0 0 1 .55-.15 1 1 0 0 1 .57.17 1 1 0 0 1 .31.51 1.74 1.74 0 0 1 .07.37v1.49q.08.62.03 1.12zm7.62 2.33v-7.24h-.04v-.03h-1.16L274.26 24v-4.68h-.04v-.03h-1.13v7.23h.04v.04h1.11l2.13-4.73v4.69h.04v.04h1.16zm5.8-1.06a2.51 2.51 0 0 0 .18-1 3.78 3.78 0 0 0-.13-1 .85.85 0 0 0-.26-.4 1 1 0 0 0-.37-.23 1 1 0 0 0 .37-.25 1.3 1.3 0 0 0 .23-.37 1.77 1.77 0 0 0 .12-.45 3.36 3.36 0 0 0 0-.5 1.86 1.86 0 0 0-.56-1.49 2.34 2.34 0 0 0-1.57-.48 2.15 2.15 0 0 0-1.43.47 1.88 1.88 0 0 0-.63 1.35l1.1.23q.06-1 1-1a.9.9 0 0 1 .69.25 1.07 1.07 0 0 1 .22.69 1.36 1.36 0 0 1-.18.76.67.67 0 0 1-.6.26h-.67v1h.64a.84.84 0 0 1 .38.08.57.57 0 0 1 .21.21 1.71 1.71 0 0 1 .18.82 1.06 1.06 0 0 1-.31.89 1.12 1.12 0 0 1-.69.24 1 1 0 0 1-.68-.22 1.12 1.12 0 0 1-.26-.75l-1.13.18a1.93 1.93 0 0 0 .64 1.42 2.25 2.25 0 0 0 1.44.44 3.18 3.18 0 0 0 .84-.11 1.92 1.92 0 0 0 .71-.36 1.74 1.74 0 0 0 .52-.68zm12.08-5.95a2.12 2.12 0 0 0-1.31-.37 2.2 2.2 0 0 0-1.29.34 1.85 1.85 0 0 0-.68.91 2.35 2.35 0 0 0-.12.48q0 .29-.07.62t0 .71v2.56a3.33 3.33 0 0 0 .07.44 1.91 1.91 0 0 0 .2.5 1.61 1.61 0 0 0 .37.45 1.88 1.88 0 0 0 .57.32 2.33 2.33 0 0 0 .8.12 2.19 2.19 0 0 0 1.57-.5 2.08 2.08 0 0 0 .58-1.43l-1.14-.22a1.45 1.45 0 0 1-.24.8.75.75 0 0 1-.64.29 1 1 0 0 1-.57-.16.93.93 0 0 1-.31-.47 3.24 3.24 0 0 1-.09-.72v-1h3.1v-1.74a2.58 2.58 0 0 0-.48-1.66 1.39 1.39 0 0 0-.32-.27zm-.6 1.14a1.34 1.34 0 0 1 .14.45 3.72 3.72 0 0 1 0 .53v.62h-1.89v-.83a2.27 2.27 0 0 1 .1-.56.87.87 0 0 1 .35-.46 1 1 0 0 1 .49-.12.94.94 0 0 1 .47.1.77.77 0 0 1 .34.28zm4.56.2a.91.91 0 0 1 .34-.47.92.92 0 0 1 .5-.13.81.81 0 0 1 .35.07.72.72 0 0 1 .23.19 1.57 1.57 0 0 1 .23 1l1.2-.16a2.47 2.47 0 0 0-.46-1.57 1.31 1.31 0 0 0-.28-.26 2.11 2.11 0 0 0-1.3-.36 2.25 2.25 0 0 0-1.29.32 1.78 1.78 0 0 0-.67.88 2 2 0 0 0-.12.46q0 .29-.07.64v3.31a3.33 3.33 0 0 0 .07.44 2.46 2.46 0 0 0 .21.52 1.48 1.48 0 0 0 .37.45 1.89 1.89 0 0 0 .56.31 2.34 2.34 0 0 0 .78.12 2.09 2.09 0 0 0 1.59-.54 2.25 2.25 0 0 0 .54-1.53l-1.19-.2a1.69 1.69 0 0 1-.2.88.7.7 0 0 1-.65.32.88.88 0 0 1-.57-.17 1.08 1.08 0 0 1-.29-.48 2.94 2.94 0 0 1-.09-.71v-2.45a3.09 3.09 0 0 1 .21-.88zm8.82.46a4.36 4.36 0 0 0-.13-.84 1.75 1.75 0 0 0-.34-.67 1.44 1.44 0 0 0-.29-.26 1.72 1.72 0 0 0-.38-.22 2.67 2.67 0 0 0-1-.16 2.33 2.33 0 0 0-1.31.32 1.76 1.76 0 0 0-.69.88 2 2 0 0 0-.12.46c0 .19-.05.4-.07.64s0 .48 0 .74v2.57a3.49 3.49 0 0 0 .07.44 2.32 2.32 0 0 0 .22.52 1.6 1.6 0 0 0 .38.45 1.91 1.91 0 0 0 .57.31 2.36 2.36 0 0 0 .79.12 3.68 3.68 0 0 0 .72-.07 1.94 1.94 0 0 0 .68-.28 1.73 1.73 0 0 0 .54-.57 2.43 2.43 0 0 0 .29-1 15.88 15.88 0 0 0 .09-1.67v-.86c0-.32 0-.57-.02-.85zm-3.15.4a3 3 0 0 1 .12-.85.86.86 0 0 1 .37-.47 1.09 1.09 0 0 1 .53-.13 1 1 0 0 1 .57.16 1 1 0 0 1 .31.49 1.74 1.74 0 0 1 .07.35v2.88c0 .18 0 .34-.05.47a1.43 1.43 0 0 1-.06.27 1.11 1.11 0 0 1-.35.47.84.84 0 0 1-.54.18 1.06 1.06 0 0 1-.6-.16.92.92 0 0 1-.32-.48 3 3 0 0 1-.09-.71v-.94q-.04-.88.04-1.53zm9.32 1.61a1.12 1.12 0 0 0-.27-.4 1.21 1.21 0 0 0-.34-.24 1.57 1.57 0 0 0 .52-.57 1.85 1.85 0 0 0 .17-.84 1.9 1.9 0 0 0-.56-1.46 2.49 2.49 0 0 0-1.74-.52h-1.93v7.23h1.87A2.74 2.74 0 0 0 314 26a2.11 2.11 0 0 0 .6-1.67 2.75 2.75 0 0 0-.2-.97zm-1.12-2.11a.94.94 0 0 1-.28.75 1.4 1.4 0 0 1-.94.25h-.63v-1.9h.69a1.45 1.45 0 0 1 .9.22.88.88 0 0 1 .26.68zm-1.85 2h.79a1.41 1.41 0 0 1 .94.24 1.1 1.1 0 0 1 .25.77 2.91 2.91 0 0 1 0 .48.75.75 0 0 1-.17.37.88.88 0 0 1-.37.24 1.83 1.83 0 0 1-.63.09h-.78zM207.07 37a4.43 4.43 0 0 0-.13-.84 1.76 1.76 0 0 0-.34-.67 1.44 1.44 0 0 0-.29-.26 1.71 1.71 0 0 0-.38-.22 2.66 2.66 0 0 0-1-.16 2.33 2.33 0 0 0-1.31.32 1.76 1.76 0 0 0-.69.88 2 2 0 0 0-.12.46q0 .29-.07.64v3.31a3.4 3.4 0 0 0 .07.44 2.28 2.28 0 0 0 .22.52 1.58 1.58 0 0 0 .38.45 1.89 1.89 0 0 0 .57.31 2.36 2.36 0 0 0 .79.12 3.69 3.69 0 0 0 .72-.07 1.93 1.93 0 0 0 .68-.28 1.72 1.72 0 0 0 .54-.57 2.43 2.43 0 0 0 .29-1 15.89 15.89 0 0 0 .09-1.67v-.86c.01-.29-.01-.59-.02-.85zm-3.15.4a3 3 0 0 1 .12-.85.86.86 0 0 1 .37-.47 1.09 1.09 0 0 1 .53-.13 1 1 0 0 1 .57.16 1 1 0 0 1 .31.49 1.71 1.71 0 0 1 .07.35v2.88c0 .18 0 .34-.05.47a1.38 1.38 0 0 1-.06.27 1.12 1.12 0 0 1-.35.47.84.84 0 0 1-.54.18 1.06 1.06 0 0 1-.6-.16.92.92 0 0 1-.32-.48 3 3 0 0 1-.09-.71v-.94q.01-.93.04-1.55zm14.52-.06c0-.2 0-.4-.05-.57a4.2 4.2 0 0 0-.08-.44 2 2 0 0 0-.72-1.05 2.63 2.63 0 0 0-1.44-.42v-2.72h-1.14v2.71a2.69 2.69 0 0 0-1.38.38 1.88 1.88 0 0 0-.72.92 3.49 3.49 0 0 0-.22 1.12v2.83a2.78 2.78 0 0 0 .31 1.16 1.61 1.61 0 0 0 .33.42 1.81 1.81 0 0 0 .42.31 3.38 3.38 0 0 0 1.25.32V45h1.13v-2.71a2.66 2.66 0 0 0 1.86-.85 2.39 2.39 0 0 0 .43-1.22q.07-.73.07-1.57v-.66q0-.34-.05-.65zm-1.26-.71a1.43 1.43 0 0 1 .07.34v2.88a1.9 1.9 0 0 1-.17.76 1.16 1.16 0 0 1-1 .58V36a1.74 1.74 0 0 1 .72.2.9.9 0 0 1 .39.44zm-3.26 4a1.3 1.3 0 0 1-.07-.3V36.97a2.06 2.06 0 0 1 .07-.37.86.86 0 0 1 .38-.46 1.65 1.65 0 0 1 .62-.19v5.21a1.43 1.43 0 0 1-.84-.33.82.82 0 0 1-.15-.18zm10.61-4.01a2.49 2.49 0 0 0-.28-1 1.69 1.69 0 0 0-.46-.54 1.32 1.32 0 0 0-.53-.23 2.66 2.66 0 0 0-.47-.05 1.58 1.58 0 0 0-.83.17 1.88 1.88 0 0 0-.48.48v-.52h-1.16V45h1.16v-3.34a1.4 1.4 0 0 0 .23.24 1.32 1.32 0 0 0 .29.2 1.6 1.6 0 0 0 .73.15 1.67 1.67 0 0 0 1.06-.3 1.76 1.76 0 0 0 .56-.81 4.27 4.27 0 0 0 .22-1.21v-2.4q0-.49-.04-.91zm-3.1 3.38v-2.88a1.3 1.3 0 0 1 .25-.82.87.87 0 0 1 .73-.32 1 1 0 0 1 .56.13.84.84 0 0 1 .28.42 2.93 2.93 0 0 1 .12.78v2.4a3.37 3.37 0 0 1-.15.81.81.81 0 0 1-.31.43 1 1 0 0 1-.52.12.89.89 0 0 1-.71-.28 1.32 1.32 0 0 1-.25-.79zm8.69-4.72a2.3 2.3 0 0 0-1.52-.45 2.21 2.21 0 0 0-1.38.41 1.88 1.88 0 0 0-.7 1.13l1.1.31a.81.81 0 0 1 .35-.57 1.05 1.05 0 0 1 .57-.18 1 1 0 0 1 .72.23 1.06 1.06 0 0 1 .19.66v1h-1.14a2 2 0 0 0-1 .21 1.68 1.68 0 0 0-.6.55 2.22 2.22 0 0 0-.31.75 4 4 0 0 0-.09.82 3.66 3.66 0 0 0 .08.77 2.15 2.15 0 0 0 .26.67 1.38 1.38 0 0 0 .25.3 1.36 1.36 0 0 0 1 .4 2.11 2.11 0 0 0 .84-.16 1.64 1.64 0 0 0 .64-.53v.57h1.16v-5.31a1.94 1.94 0 0 0-.54-1.56zm-2.59 4.81a1.18 1.18 0 0 1 .34-1 1.25 1.25 0 0 1 .8-.27h.81V40a1.24 1.24 0 0 1-.27.85 1 1 0 0 1-.81.31.84.84 0 0 1-.65-.24 1.22 1.22 0 0 1-.21-.82zm21.33-4.81a2.3 2.3 0 0 0-1.52-.45 2.21 2.21 0 0 0-1.38.41 1.88 1.88 0 0 0-.7 1.13l1.1.31a.81.81 0 0 1 .35-.57 1.05 1.05 0 0 1 .57-.18 1 1 0 0 1 .72.23 1.06 1.06 0 0 1 .19.66v1h-1.14a2 2 0 0 0-1 .21 1.68 1.68 0 0 0-.6.55 2.22 2.22 0 0 0-.31.75 4 4 0 0 0-.09.82 3.66 3.66 0 0 0 .08.77 2.15 2.15 0 0 0 .26.67 1.38 1.38 0 0 0 .25.3 1.36 1.36 0 0 0 1 .4 2.11 2.11 0 0 0 .84-.16 1.64 1.64 0 0 0 .64-.53v.57h1.16v-5.31a1.94 1.94 0 0 0-.54-1.56zm-2.59 4.81a1.18 1.18 0 0 1 .34-1 1.25 1.25 0 0 1 .8-.27h.81V40a1.24 1.24 0 0 1-.27.85 1 1 0 0 1-.81.31.84.84 0 0 1-.65-.24 1.22 1.22 0 0 1-.21-.82zm15.34-1.91a1.3 1.3 0 0 0 .23-.37 1.77 1.77 0 0 0 .12-.45 3.36 3.36 0 0 0 0-.5 1.86 1.86 0 0 0-.56-1.49 2.34 2.34 0 0 0-1.57-.48 2.15 2.15 0 0 0-1.43.47 1.88 1.88 0 0 0-.63 1.35l1.1.23q.06-1 1-1a.9.9 0 0 1 .69.25 1.07 1.07 0 0 1 .22.69 1.36 1.36 0 0 1-.18.76.67.67 0 0 1-.6.26h-.67v1h.67a.84.84 0 0 1 .38.08.57.57 0 0 1 .21.21 1.71 1.71 0 0 1 .18.82 1.06 1.06 0 0 1-.31.89 1.12 1.12 0 0 1-.69.24 1 1 0 0 1-.68-.22 1.12 1.12 0 0 1-.26-.75l-1.13.18a1.93 1.93 0 0 0 .64 1.42 2.25 2.25 0 0 0 1.44.44 3.18 3.18 0 0 0 .84-.11 1.92 1.92 0 0 0 .71-.36 1.74 1.74 0 0 0 .49-.66 2.51 2.51 0 0 0 .18-1 3.78 3.78 0 0 0-.13-1 .85.85 0 0 0-.26-.4 1 1 0 0 0-.37-.23 1 1 0 0 0 .37-.27zm-247.1-6.99v3.75c0 3.32-1.64 5.66-5.31 5.58v-3.11c1.5 0 2.08-.84 2.08-2.27v-3.92h3.18zm-3.19-1v-2.93c0-1.53-.79-1.51-2.05-1.51v-2.83c3.47-.47 5.27 1.43 5.28 3.78v3.5h-3.2zM8.71 43.52H5.47V20.44l3.25-.34v23.42zM0 30.63V28a4.77 4.77 0 0 1 5-4.89V26c-2.17 0-2.15 1.28-2.16 2.65v2zm2.84 1l.06 1.84v1.92c0 1.89.55 2 2.07 2v3.42c-3 0-5-1.88-5-5.62v-3.5h2.85zM20 18.92l-3.15.33-.15 24.26h3.15L20 18.92zm.66 14.88h.49c3.82 0 5.24-1.86 5.24-5.89v-1.64H23v1.87c0 1.2-.31 2.34-1.83 2.34h-.49v3.31zm5.75-8.31V24.2c0-4-1-5.84-4.81-5.45l-.9.09v3.61h.64c1.7 0 1.63.48 1.63 2.12v.89h3.44zm6.46-2.9l-3 20.93H27l3.78-25.73 4.68-.49 3.25 26.22h-3.28l-2.58-20.94zm.9 12.6l.44 3.14h-2.77l.56-3.08 1.78-.06zm10.1 8.33h-3.26l.09-26.76 3.36-.35-.21 27.11zM48.34 16l3.5-.36v27.87h-3.5V16zm-.8 12v3.33h-2.61v-3.18l2.61-.15zm13.92 4.51a4.42 4.42 0 0 1-2.8.78v-4.35a2.06 2.06 0 0 0 2.78.08v3.52zm.77-18l3.68-.38v29.39h-3.73v-29zm-4 .42l-.29 18.34c-2.09-.08-3.39-2.3-3.39-4.8V15.32l3.73-.39zm18 22.9l-3.31.06.39-4 2.32-.06.6 4zM74.42 19l-3.23 24.51H68l4-30 5.37-.57 4.08 30.58h-3.94L74.42 19zm12.51 24.51h-3.34V12.25l3.33-.32v31.58zM93 11.29l3.38-.34-.12 32.57H93V11.29zm-.9 13.54l-4.27 17.6v-14l4.27-16.1v12.5zM94.58 4.3c0 2.67-.89 5.19-4 5.57-4.26.53-4.8-2.21-4.85-4.65L88.29 5c.06 1.4.18 2.32 2.06 2.1 1.13-.13 1.59-1.48 1.67-2.5l2.56-.27zM105 14.74c-.13 0-1.63.89-1.63 4.13v1.85l-3.89.19v-1.68c0-4.64 1-8.55 5.53-9.14v4.66zm1.13 29.11l-.09-4.74c2-.18 1.84-2.47 1.84-5v-16c0-2.22-.36-3.11-1.83-3.5l.13-4.6a4.71 4.71 0 0 1 4.03.99 9 9 0 0 1 2.3 5l-.11 3.43c-.08 2.42-1.18 5.65-3.12 6.34a4.7 4.7 0 0 1 2.72 2.88 10.14 10.14 0 0 1 .39 3.29v4.48a7.89 7.89 0 0 1-2.21 5.79 5.9 5.9 0 0 1-4 1.64zm-1-4.8v4.75a6.06 6.06 0 0 1-5.59-5.65l-.09-6.09h3.93v2.72c0 4.43 1.41 4.17 1.79 4.27zm2-10a4.84 4.84 0 0 0-3.07-.66v-4.35c.83 0 2.23.07 3-1v6zm12 14.44h-3.71L115.54 9l3.71-.4-.08 35zm5.75-20.25l-4.43 18v-14.5l4.42-18.16v14.7zm1-15.41l4-.42v36.07h-4V7.85zm18.37-1.92l4.88-.5v38.1l-4.88-.09V5.94zm-5.06 16.56l3.86-.26v5.09l-3.87.26v-5.07zm-1 21h-4.63V7l4.62-.49v37zM153 10.44V5l14.19-1.49V9.1L153 10.44zm0 1.18l5.34-.38-.1 32.28h-4.93l-.31-31.9zm24.91 4c2.31-2.12 6.73-2.89 8.95-.19 1.27 1.54 2.08 2.53 2.12 7.93l.08 9.31c0 3.34-.52 6.26-2 8a8.18 8.18 0 0 1-6.78 3.13l-.06-6.21c1.77-.25 2.69-1.63 2.69-3.7v-8.65a8 8 0 0 0-.83-4.33c-.86-1.54-3.38-.85-4.21-.4v-4.87zm-1.41 9.88l-5.6.21.62-16.71 5.42-.3-.44 16.8zm2.45 12v6.34a11.07 11.07 0 0 1-5.37-1.84 8.31 8.31 0 0 1-2.43-5l-.15-7.15 5.47-.09.1 4.56c0 1.68.6 3.08 2.39 3.18zm-7.39-29.8l.38-5.86L187.64 0l.07 6-16.15 1.71z"/></symbol><symbol id="header-logo" viewBox="0 0 314.5676575 45.030159" xmlns="http://www.w3.org/2000/svg"><style>.bst0{fill:#fff}</style><path class="bst0" d="M211.439 8.588c.004.21.017.402.037.578.019.175.043.322.073.439a2.4 2.4 0 0 0 .212.52c.093.171.217.32.373.446.007.006.017.008.024.013.007.006.01.015.017.021.156.127.345.23.564.308.219.078.481.117.784.117.722 0 1.25-.178 1.588-.535.336-.356.514-.866.535-1.53l-.044-.008.002-.026-1.185-.205c0 .371-.067.664-.197.879-.13.215-.345.322-.646.322-.24 0-.426-.059-.565-.17a1.08 1.08 0 0 1-.294-.48 2.89 2.89 0 0 1-.088-.707 31.82 31.82 0 0 1-.014-.939 46 46 0 0 1 .044-1.514c.018-.427.058-.714.115-.86.088-.223.2-.378.342-.465a.919.919 0 0 1 .501-.131.81.81 0 0 1 .35.073.717.717 0 0 1 .226.186c.15.195.226.512.226.952l.037-.005c0 .014.004.023.004.038l1.2-.161c0-.654-.154-1.176-.46-1.567a1.312 1.312 0 0 0-.283-.263c-.31-.235-.743-.356-1.304-.356-.548 0-.976.107-1.288.322a1.786 1.786 0 0 0-.674.878 2.04 2.04 0 0 0-.117.462 6.93 6.93 0 0 0-.066.637c-.014.234-.027.48-.036.739a19.402 19.402 0 0 0-.008 1.355l.015.637zm19.635 1.727c.069.114.155.211.25.3.084.082.177.155.282.217.204.122.458.184.76.184.314 0 .593-.055.843-.162.238-.103.45-.282.64-.528v.568h.04v.033h1.158v-5.33c0-.74-.18-1.261-.535-1.559-.008-.006-.02-.01-.027-.018-.006-.004-.01-.011-.014-.015-.357-.298-.862-.447-1.516-.447-.556 0-1.015.136-1.376.41-.362.273-.596.649-.703 1.127l.05.014c-.003.007-.007.012-.009.02l1.099.307c.048-.263.165-.453.35-.57.186-.118.377-.176.572-.176.348 0 .58.08.718.226.128.165.192.384.192.663v.965h-1.142c-.4 0-.727.072-.98.213a1.677 1.677 0 0 0-.601.55 2.215 2.215 0 0 0-.308.746 3.958 3.958 0 0 0-.087.82c0 .264.027.52.08.769.054.248.141.473.264.673zm.824-1.481c0-.47.115-.793.345-.974.23-.181.494-.271.797-.271h.808v1.108c0 .362-.09.644-.27.85-.181.205-.452.307-.813.307-.292 0-.503-.087-.65-.244-.144-.18-.217-.438-.217-.776zm5.216.771c.049.176.122.35.22.52.097.171.224.32.38.446.007.006.017.008.023.013.008.006.011.015.019.021.156.127.344.23.563.308.22.078.481.117.784.117.234 0 .473-.025.717-.073.244-.049.471-.142.681-.278a1.72 1.72 0 0 0 .534-.571c.147-.244.245-.562.293-.952.03-.283.049-.522.059-.718.01-.195.015-.43.015-.702 0-.215-.003-.45-.008-.703a19.492 19.492 0 0 0-.03-.748 13.697 13.697 0 0 0-.058-.687 2.45 2.45 0 0 0-.11-.528 2.584 2.584 0 0 0-.221-.446 1.505 1.505 0 0 0-.33-.374c-.006-.004-.016-.006-.021-.01-.008-.007-.013-.017-.02-.023a1.524 1.524 0 0 0-.494-.256 2.31 2.31 0 0 0-.706-.096c-.137 0-.328.04-.573.118-.24.076-.455.239-.647.482.005-.469.07-.908.201-1.312.137-.42.376-.723.718-.908a8.613 8.613 0 0 1 1.098-.528c.146-.058.297-.121.453-.19.157-.068.347-.16.571-.278l-.394-.82-.02.009-.021-.043c-.234.108-.44.196-.615.264l-.499.19a12.108 12.108 0 0 0-.966.41 2.757 2.757 0 0 0-.81.578c-.217.23-.392.527-.527.893-.135.367-.234.82-.296 1.363a17.541 17.541 0 0 0-.095 1.969v1.45c0 .37.007.755.022 1.156.015.4.051.713.11.937zm3.083-1.006c-.025.33-.063.55-.111.657a1.168 1.168 0 0 1-.355.482.848.848 0 0 1-.545.189c-.249 0-.45-.06-.61-.174a.992.992 0 0 1-.323-.478 2.608 2.608 0 0 1-.087-.628c-.01-.253-.015-.54-.015-.862l.022-1.408c.005-.356.046-.626.125-.81.088-.224.217-.385.384-.482.167-.098.349-.146.545-.146.232 0 .422.058.574.169.142.118.249.287.314.512.03.088.051.212.066.373.015.16.025.33.03.511l.015.533a15.52 15.52 0 0 1-.03 1.562zm28.683 1.716c.07.114.156.211.251.3.083.082.177.155.281.217.205.122.46.184.761.184.313 0 .593-.055.843-.162.238-.103.45-.282.639-.528v.568h.04v.033h1.158v-5.33c0-.74-.179-1.261-.535-1.559-.008-.006-.019-.01-.027-.018l-.014-.015c-.357-.298-.862-.447-1.515-.447-.557 0-1.016.136-1.376.41-.362.273-.596.649-.703 1.127l.049.014c-.002.007-.007.012-.008.02l1.098.307c.05-.263.166-.453.351-.57a1.05 1.05 0 0 1 .572-.176c.348 0 .58.08.718.226.127.165.192.384.192.663v.965h-1.142c-.4 0-.727.072-.981.213a1.677 1.677 0 0 0-.6.55 2.216 2.216 0 0 0-.308.746 3.96 3.96 0 0 0-.087.82c0 .264.026.52.08.769.054.248.14.473.264.673zm.825-1.481c0-.47.115-.793.344-.974.23-.181.495-.271.798-.271h.808v1.108c0 .362-.09.644-.271.85-.18.205-.452.307-.812.307-.292 0-.504-.087-.65-.244-.144-.18-.217-.438-.217-.776zm-69.079 10.458h-4.276v7.233h.041v.034h1.157V20.35h1.921v6.174h.041v.034h1.157v-7.234h-.041zm2.049-.015v10.06h.042v.033h1.156v-3.338h.018c.068.091.143.173.227.243.09.08.186.149.294.203.205.103.447.154.73.154.456 0 .81-.1 1.063-.3.253-.2.44-.47.561-.813.122-.342.195-.744.219-1.208.024-.464.036-.959.036-1.486 0-.283-.002-.586-.007-.908-.005-.322-.022-.63-.051-.923-.049-.4-.141-.717-.277-.95a1.685 1.685 0 0 0-.46-.536c-.003-.003-.008-.004-.012-.007-.01-.008-.018-.02-.028-.027-.17-.122-.348-.2-.532-.234a2.656 2.656 0 0 0-.467-.051c-.378 0-.655.057-.83.169-.17.11-.332.27-.484.476v-.523h-.041v-.034h-1.157zm1.184 5.085v-2.87c0-.332.083-.604.249-.82.165-.214.41-.321.732-.321.237 0 .422.045.557.133a.838.838 0 0 1 .28.419c.068.204.11.466.124.783.015.317.023.7.023 1.149 0 .498-.015.915-.045 1.252-.029.337-.08.608-.153.812-.073.206-.176.35-.308.433a.967.967 0 0 1-.52.125c-.32 0-.55-.1-.707-.278-.155-.206-.232-.476-.232-.817zm29.462 2.163h.041v.034h1.158v-7.234h-.041v-.033h-3.837v4.32c0 .35-.015.644-.043.878a1.91 1.91 0 0 1-.162.593c-.078.16-.182.305-.315.431-.13.128-.3.26-.505.396l.513.864.016-.009.025.043c.293-.137.54-.29.74-.461.199-.171.36-.378.483-.623.122-.244.21-.53.263-.856.053-.328.08-.72.08-1.18v-3.337h1.584v6.174zm12.403 0h.041v.034h1.186v-7.234h-.04v-.033h-1.187v3.045h-1.862v-3.012h-.041v-.033h-1.186v7.233h.04v.034h1.187v-3.207h1.862zm8.243-7.233v7.233h.041v.034h1.201v-7.234h-.041v-.033zm35.961 0h-1.186v3.045h-1.863v-3.012h-.04v-.033h-1.187v7.233h.041v.034h1.186v-3.207h1.863v3.173h.041v.034h1.186v-7.234h-.041zm-89.302 15.63h-4.276v7.233h.041v.034h1.157v-6.208h1.921v6.174h.041v.034h1.157v-7.233h-.041zm36.459 0h-1.186v3.046h-1.863v-3.012h-.04v-.034h-1.187v7.233h.041v.034h1.186v-3.206h1.863v3.172h.041v.034h1.186v-7.233h-.041zm6.237 0h-1.156v3.135a2.636 2.636 0 0 1-.56.255c-.198.063-.38.095-.547.095-.275 0-.48-.08-.627-.224-.143-.165-.216-.409-.216-.734v-2.493h-.041v-.034h-1.157v2.812c0 .615.144 1.059.431 1.332.008.007.02.009.027.016.006.005.01.012.015.017.288.274.69.41 1.208.41.465 0 .95-.133 1.452-.396v3.042h.041v.034h1.171v-7.233h-.04v-.034zm12.651 0h-1.157l-2.111 4.703v-4.67h-.041v-.033h-1.127v7.233h.04v.034h1.11l2.13-4.757v4.723h.04v.034h1.157v-7.233h-.041zm-1.289-2.87a.819.819 0 0 1-.065.307 1.043 1.043 0 0 1-.513.528.962.962 0 0 1-.417.087.882.882 0 0 1-.395-.087.98.98 0 0 1-.263-.199 1.169 1.169 0 0 1-.194-.295.937.937 0 0 1-.088-.307h-.031c-.002-.011-.01-.023-.01-.034h-.952c0 .186.034.383.103.593a1.672 1.672 0 0 0 .604.828c.106.082.224.158.36.224.243.117.546.176.907.176a1.84 1.84 0 0 0 1.772-1.194c.078-.21.127-.407.146-.593h-.05c.002-.011.008-.024.009-.034h-.923zm13.837 2.87h-1.157l-2.111 4.703v-4.67h-.041v-.033h-1.127v7.233h.04v.034h1.113l2.126-4.732v4.698h.042v.034h1.156v-7.233h-.041zm6.502 0h-1.186v3.046h-1.863v-3.012h-.041v-.034h-1.186v7.233h.041v.034h1.186v-3.206h1.863v3.172h.04v.034h1.187v-7.233h-.041zm5.973 0h-3.748v7.233h.04v.034h1.157v-6.208h2.592v-1.025h-.041zm6.063 0h-1.186l-.6 2.738-.542 2.533h-.011l-.578-2.47-.615-2.767h-.034l-.007-.034h-1.23l1.917 7.292-.116.512c-.108.489-.222.823-.344 1.004-.122.18-.32.27-.593.27h-.293v.996h.041v.034h.439c.518 0 .903-.15 1.157-.447.254-.297.439-.69.557-1.179l2.079-8.448h-.05l.009-.034zM203.17 10.927V.737h-.04V.703h-1.187l-1.186 3.103-.966 2.563h-.015l-.925-2.455-1.215-3.177h-.028l-.013-.034h-1.172v10.19h.042v.034h1.156V3.87h.03l.793 2.075 1.055 2.475h.026l.015.034h.541l1.054-2.475.806-2.109h.032v7.025h.04v.033zm6.326 0v-5.33c0-.74-.179-1.261-.535-1.559-.008-.006-.019-.01-.027-.018-.006-.004-.009-.011-.014-.015-.357-.298-.862-.447-1.515-.447-.557 0-1.016.136-1.376.41-.362.273-.596.649-.703 1.127l.049.014c-.002.007-.007.012-.008.02l1.098.307c.049-.263.166-.453.352-.57s.375-.176.57-.176c.348 0 .581.08.719.226.127.165.192.384.192.663v.965h-1.142c-.4 0-.727.072-.98.213a1.666 1.666 0 0 0-.601.55 2.17 2.17 0 0 0-.308.746 3.896 3.896 0 0 0-.088.82c0 .264.027.52.08.769.054.248.142.473.264.673.07.114.155.211.251.3.083.082.176.155.281.217.205.122.459.184.762.184.312 0 .592-.055.841-.162.239-.103.45-.282.64-.528v.568h.041v.033h1.157zm-3.148-2.093c0-.47.115-.793.344-.974.23-.181.495-.271.798-.271h.808v1.108c0 .362-.09.644-.27.85-.181.205-.452.307-.813.307-.292 0-.504-.087-.65-.244-.144-.18-.217-.438-.217-.776zm11.114 2.093h6.823V3.694h-.041V3.66h-1.127v6.136h-1.673V3.694h-.041V3.66h-1.157v6.136h-1.627V3.694h-.041V3.66h-1.157v7.234h.041zm8.418-6.207h1.482v6.174h.041v.033h1.157V4.72h1.537V3.694h-.04V3.66h-4.218v1.026h.041zm17.498 6.207h1.112l2.127-4.732v4.699h.04v.033h1.157V3.694h-.04V3.66h-1.157l-2.112 4.703V3.694h-.041V3.66h-1.127v7.234h.04zm6.472 2.812h1.157V10.4h.017c.068.092.144.174.228.243.089.08.186.15.294.204.203.102.447.154.728.154.458 0 .812-.1 1.064-.3.253-.2.44-.471.561-.814.121-.341.195-.743.219-1.208.024-.463.036-.958.036-1.486 0-.282-.002-.585-.007-.908-.005-.322-.022-.63-.051-.922-.048-.4-.14-.717-.277-.951a1.69 1.69 0 0 0-.459-.535l-.012-.007c-.01-.008-.019-.02-.029-.027-.17-.122-.348-.2-.532-.234a2.657 2.657 0 0 0-.466-.051c-.38 0-.656.056-.831.168-.17.11-.33.27-.483.476v-.523h-.041v-.033h-1.158v10.06h.041v.033zm1.142-5.008V5.86c0-.332.083-.605.249-.82.165-.214.41-.322.732-.322.237 0 .421.046.557.133.121.094.217.23.28.42.069.204.11.466.125.782.014.318.022.7.022 1.15 0 .498-.015.915-.044 1.252-.03.336-.081.607-.154.812-.073.206-.176.35-.307.432a.97.97 0 0 1-.52.125c-.32 0-.55-.098-.708-.278-.154-.205-.232-.476-.232-.816zm6.367 2.182c.22.078.482.117.786.117.235 0 .475-.025.72-.073.244-.049.472-.142.683-.278.21-.137.39-.327.536-.571.147-.244.245-.562.294-.952a15.82 15.82 0 0 0 .088-1.67 28.235 28.235 0 0 0-.059-1.771 4.357 4.357 0 0 0-.132-.842 1.753 1.753 0 0 0-.338-.674 1.441 1.441 0 0 0-.285-.26 1.715 1.715 0 0 0-.38-.22c-.26-.107-.596-.161-1.007-.161-.548 0-.984.107-1.307.322a1.758 1.758 0 0 0-.69.878c-.05.118-.09.271-.119.462a9.08 9.08 0 0 0-.073.637c-.02.234-.034.48-.044.739a21.333 21.333 0 0 0-.008 1.355l.015.637c.006.21.017.402.037.578.02.175.044.322.073.439.05.176.123.35.22.52.099.171.226.32.382.446.007.006.017.008.023.013.007.006.011.015.018.021.157.127.347.23.567.308zm-.1-4.8c.02-.432.058-.717.116-.854.088-.224.21-.379.371-.467a1.09 1.09 0 0 1 .53-.131.96.96 0 0 1 .568.162.967.967 0 0 1 .308.49c.028.088.05.204.065.35s.024.312.03.497c.004.185.008.377.014.577a26.348 26.348 0 0 1 0 1.22c-.006.204-.015.396-.03.576-.014.18-.03.336-.05.467a1.45 1.45 0 0 1-.059.27 1.107 1.107 0 0 1-.348.474.844.844 0 0 1-.538.183c-.246 0-.445-.055-.603-.161a.92.92 0 0 1-.315-.477 2.953 2.953 0 0 1-.088-.708c-.01-.306-.014-.62-.014-.942.009-.583.024-1.092.043-1.525zm7.043 4.814c.829 0 1.444-.175 1.844-.527.4-.351.6-.907.6-1.67 0-.38-.055-.714-.168-1.002a1.118 1.118 0 0 0-.271-.4 1.21 1.21 0 0 0-.341-.245c.238-.164.414-.354.524-.57.112-.22.17-.5.17-.843 0-.624-.186-1.11-.557-1.456-.01-.009-.022-.015-.032-.023-.003-.003-.005-.008-.01-.011-.37-.346-.951-.52-1.742-.52h-1.932v7.234h.04v.033h1.875zm-.688-3.323h.79c.458 0 .768.082.942.24.164.181.247.436.247.766 0 .175-.012.336-.037.483a.747.747 0 0 1-.168.373.885.885 0 0 1-.366.242 1.852 1.852 0 0 1-.63.088h-.778V7.604zm1.848-1.982c0 .322-.094.566-.279.732-.186.167-.498.25-.937.25h-.632V4.718h.688c.423 0 .72.077.903.222.168.156.257.38.257.681zm9.558 5.305h1.186V7.721h1.862v3.173h.041v.033h1.186V3.694h-.04V3.66h-1.187v3.046h-1.862V3.694h-.041V3.66h-1.186v7.234h.04zm6.487 0h1.112l2.126-4.732v4.699h.041v.033h1.157V3.694h-.041V3.66h-1.157l-2.111 4.703V3.694h-.041V3.66h-1.127v7.234h.04zm10.629-1.838c0-.01.003-.017.003-.026l-1.171-.22c-.02.342-.101.609-.243.799-.143.19-.357.285-.642.285a.98.98 0 0 1-.568-.157.932.932 0 0 1-.307-.468 3.236 3.236 0 0 1-.094-.717c-.015-.312-.022-.63-.022-.952h3.103V5.847c0-.703-.16-1.255-.48-1.655a1.391 1.391 0 0 0-.291-.27c-.319-.24-.754-.364-1.312-.364-.546 0-.976.112-1.292.336a1.846 1.846 0 0 0-.678.908 2.346 2.346 0 0 0-.117.477 10.312 10.312 0 0 0-.11 1.332 28.433 28.433 0 0 0 .022 1.977c.01.21.025.402.044.578.02.175.044.322.073.439.039.166.104.332.197.498.093.166.217.315.372.446.006.006.017.009.024.014.007.006.01.014.017.02.156.132.346.24.569.322.224.083.492.125.803.125.7 0 1.223-.166 1.569-.498.345-.332.537-.81.575-1.435l-.044-.008zm-1.316-4.023c.069.127.116.276.14.447.025.17.037.349.037.534v.615h-1.89c.01-.326.024-.604.043-.83.02-.234.054-.42.103-.556.09-.225.207-.378.354-.462a.982.982 0 0 1 .488-.124c.19 0 .344.036.465.104a.77.77 0 0 1 .26.272zm-77.283 21.493v-7.234h-.041v-.033h-1.157l-2.111 4.703v-4.67h-.041v-.033h-1.127v7.233h.04v.034h1.113l2.126-4.733v4.699h.042v.034zm6.377-4.642a13.718 13.718 0 0 0-.059-.688 2.448 2.448 0 0 0-.11-.528c-.06-.156-.133-.304-.221-.446s-.198-.266-.33-.373c-.006-.005-.016-.007-.021-.011-.008-.007-.013-.016-.02-.023a1.526 1.526 0 0 0-.494-.256 2.31 2.31 0 0 0-.706-.096c-.137 0-.328.04-.573.118-.24.076-.455.239-.647.482.005-.468.07-.907.201-1.312.137-.42.376-.722.718-.908a8.626 8.626 0 0 1 1.098-.528c.146-.058.297-.12.453-.19a8.94 8.94 0 0 0 .571-.278l-.394-.82-.02.01-.021-.043c-.235.107-.44.195-.615.263l-.499.19a11.754 11.754 0 0 0-.966.41 2.757 2.757 0 0 0-.81.579c-.217.23-.392.527-.527.893s-.234.82-.296 1.362a17.543 17.543 0 0 0-.095 1.969v1.45c0 .37.007.756.022 1.156.015.401.051.713.11.937.049.176.122.35.22.52.097.171.224.32.38.447.007.005.017.007.024.012.007.006.01.016.018.022.156.126.344.229.563.307.22.078.481.118.784.118.234 0 .473-.025.717-.074a1.93 1.93 0 0 0 .681-.278c.21-.137.388-.327.534-.57.147-.245.245-.563.293-.953.03-.283.049-.522.059-.718.01-.194.015-.43.015-.702 0-.215-.003-.449-.008-.703a19.587 19.587 0 0 0-.029-.747zm-1.168 2.313c-.025.33-.063.55-.111.657a1.168 1.168 0 0 1-.355.482.847.847 0 0 1-.545.19c-.249 0-.45-.06-.61-.174a.992.992 0 0 1-.323-.479 2.606 2.606 0 0 1-.087-.627 22.12 22.12 0 0 1-.015-.862l.022-1.408c.005-.357.046-.626.125-.81.088-.225.217-.386.384-.483.167-.097.349-.146.545-.146a.95.95 0 0 1 .574.169c.142.119.249.287.314.512.03.089.051.213.066.373.015.16.025.33.03.511l.015.533a15.52 15.52 0 0 1-.03 1.562zm9.229 2.329v-7.234h-.04v-.033h-1.202v7.233h.041v.034zm-2.27-3.817a1.556 1.556 0 0 0-.319-.272 2.124 2.124 0 0 0-.454-.243c-.313-.122-.722-.182-1.23-.182h-.588v-2.72h-.041v-.033h-1.2v7.233h.04v.034h1.904c.468 0 .854-.053 1.157-.16.302-.107.541-.26.716-.46.177-.2.299-.44.367-.723a4.055 4.055 0 0 0 .007-1.78 1.597 1.597 0 0 0-.359-.694zm-2.591.405h.6c.274 0 .496.032.667.095.085.032.16.068.226.11a.794.794 0 0 1 .127.105.771.771 0 0 1 .184.366 2.086 2.086 0 0 1 0 .843.905.905 0 0 1-.176.373.968.968 0 0 1-.38.278c-.167.073-.387.11-.66.11h-.588v-2.28zm17.233 2.791c.176-.199.298-.44.366-.722s.103-.599.103-.948c0-.292-.032-.57-.095-.832a1.555 1.555 0 0 0-.678-.966 2.125 2.125 0 0 0-.454-.243c-.313-.122-.722-.182-1.23-.182h-.589v-2.72h-.04v-.033h-1.201v7.233h.04v.034h1.904c.469 0 .854-.053 1.157-.16a1.67 1.67 0 0 0 .717-.46zm-2.577-2.791h.6c.274 0 .496.032.667.095.085.032.16.068.226.11a.793.793 0 0 1 .128.105.77.77 0 0 1 .183.366 2.086 2.086 0 0 1 0 .843.904.904 0 0 1-.176.373.968.968 0 0 1-.38.278c-.166.073-.386.11-.66.11h-.588v-2.28zm15.154 2.791c.177-.199.299-.44.367-.722s.102-.599.102-.948c0-.292-.032-.57-.095-.832a1.555 1.555 0 0 0-.678-.966 2.123 2.123 0 0 0-.454-.243c-.313-.122-.722-.182-1.23-.182h-.588v-2.72h-.041v-.033h-1.201v7.233h.041v.034h1.904c.468 0 .854-.053 1.156-.16a1.67 1.67 0 0 0 .717-.46zm-2.576-2.791h.6c.274 0 .496.032.666.095.086.032.16.068.226.11a.794.794 0 0 1 .128.105.771.771 0 0 1 .184.366c.029.142.044.286.044.433 0 .137-.015.272-.044.41a.905.905 0 0 1-.177.373.968.968 0 0 1-.38.278c-.166.073-.386.11-.659.11h-.588v-2.28zm7.832 3.412l1.085-2.473 1.012 2.439h.027l.014.034h1.29l-1.7-3.705 1.67-3.529h-.057l.015-.033h-1.346l-.939 2.354-.982-2.32h-.027l-.015-.034h-1.302l1.713 3.543-1.772 3.69h.057l-.016.034zm12.9-1.772c.03-.283.05-.522.06-.718.009-.194.014-.43.014-.702 0-.215-.002-.449-.007-.703a19.338 19.338 0 0 0-.03-.747 13.7 13.7 0 0 0-.058-.688 2.447 2.447 0 0 0-.11-.528 2.586 2.586 0 0 0-.221-.446 1.504 1.504 0 0 0-.33-.373c-.007-.005-.016-.007-.022-.011-.008-.007-.012-.016-.02-.023a1.526 1.526 0 0 0-.493-.256 2.311 2.311 0 0 0-.706-.096c-.138 0-.328.04-.574.118-.24.076-.454.24-.646.482a4.37 4.37 0 0 1 .201-1.312c.137-.42.375-.722.718-.908a8.61 8.61 0 0 1 1.098-.528c.146-.058.297-.12.453-.19a8.77 8.77 0 0 0 .571-.278l-.395-.82-.02.01-.02-.043c-.235.107-.44.195-.616.263l-.498.19a11.712 11.712 0 0 0-.966.41 2.757 2.757 0 0 0-.81.579c-.217.23-.392.527-.527.893s-.234.82-.297 1.362a17.535 17.535 0 0 0-.094 1.969v1.45c0 .37.007.756.022 1.156.014.401.051.713.11.937.049.176.122.35.22.52.097.171.224.32.38.447.007.005.017.007.023.012.008.006.011.016.018.022.156.126.345.229.564.307.22.078.48.118.784.118.234 0 .473-.025.717-.074.244-.049.47-.141.68-.278.21-.137.39-.327.535-.57.147-.245.244-.563.293-.953zm-1.13-.557c-.025.33-.063.55-.112.657a1.168 1.168 0 0 1-.354.482.847.847 0 0 1-.545.19c-.249 0-.45-.06-.61-.174a.992.992 0 0 1-.323-.479 2.608 2.608 0 0 1-.087-.627 22.12 22.12 0 0 1-.015-.862l.022-1.408c.005-.357.046-.626.125-.81.088-.225.216-.386.384-.483.167-.097.348-.146.545-.146a.95.95 0 0 1 .573.169c.143.119.25.287.315.512.029.089.051.213.066.373.014.16.024.33.029.511l.016.533a15.512 15.512 0 0 1-.03 1.562zm7.617 2.329v-7.234h-.041v-.033h-1.157l-2.111 4.703v-4.67h-.041v-.033h-1.127v7.233h.04v.034h1.113l2.126-4.733v4.699h.041v.034zm5.806-1.055c.122-.273.183-.614.183-1.024a3.78 3.78 0 0 0-.132-1.033.855.855 0 0 0-.256-.405.994.994 0 0 0-.373-.227v-.02a.976.976 0 0 0 .366-.248 1.3 1.3 0 0 0 .234-.367c.059-.136.1-.287.124-.453.025-.166.037-.332.037-.498 0-.673-.189-1.171-.564-1.493-.009-.007-.02-.012-.028-.02l-.013-.014c-.376-.322-.9-.484-1.574-.484-.586 0-1.064.156-1.435.468-.371.312-.581.761-.63 1.348l.045.01c0 .008-.003.015-.004.024l1.099.234c.039-.654.36-.98.966-.98.311 0 .536.088.688.25.148.182.222.412.222.69 0 .33-.058.58-.175.755-.117.174-.317.262-.6.262h-.674v1.01h.041v.034h.645c.147 0 .271.027.375.079a.57.57 0 0 1 .213.21c.117.214.175.488.175.82 0 .429-.104.724-.314.885-.21.16-.442.241-.695.241-.297 0-.52-.075-.679-.215-.154-.157-.243-.404-.261-.747l-.034.006c-.002-.015-.007-.024-.008-.04l-1.127.177c.058.653.273 1.127.644 1.42l.021.014c.008.006.013.014.02.02.37.292.85.44 1.435.44.293 0 .573-.038.842-.111.268-.073.505-.193.71-.359a1.74 1.74 0 0 0 .49-.659zm12.077-5.95c-.319-.241-.754-.365-1.312-.365-.546 0-.976.113-1.292.337a1.847 1.847 0 0 0-.678.908 2.348 2.348 0 0 0-.117.476 9.28 9.28 0 0 0-.073.622c-.02.224-.032.461-.037.71a28.453 28.453 0 0 0 .022 1.977c.01.21.025.402.044.578.02.176.044.323.074.44.038.165.103.332.196.498s.217.314.372.446c.006.005.017.008.024.014.007.006.01.014.017.02.156.132.346.24.569.322.224.082.492.125.803.125.7 0 1.223-.167 1.569-.499.345-.331.537-.81.575-1.435l-.044-.008c0-.009.003-.016.003-.025l-1.171-.22c-.02.342-.101.608-.243.798-.143.19-.357.285-.642.285a.98.98 0 0 1-.568-.157.933.933 0 0 1-.307-.468 3.236 3.236 0 0 1-.094-.717c-.015-.312-.022-.63-.022-.952h3.103v-1.786c0-.703-.16-1.255-.48-1.655a1.393 1.393 0 0 0-.291-.269zm-.604 1.143c.069.128.116.276.14.447.025.17.037.349.037.534v.615h-1.89c.01-.325.024-.604.043-.83.02-.234.054-.42.103-.556.09-.225.207-.378.354-.462a.982.982 0 0 1 .488-.124c.19 0 .344.036.465.104a.77.77 0 0 1 .26.272zm4.566.192c.087-.223.2-.378.34-.466a.924.924 0 0 1 .502-.13c.13 0 .247.023.35.072a.722.722 0 0 1 .226.186c.15.196.226.512.226.952l.037-.005c0 .015.004.024.004.039l1.2-.162c0-.653-.154-1.176-.461-1.567a1.307 1.307 0 0 0-.282-.262c-.31-.236-.743-.357-1.304-.357-.547 0-.976.107-1.289.322a1.782 1.782 0 0 0-.673.879c-.05.117-.088.27-.117.461a7.08 7.08 0 0 0-.066.637c-.015.234-.027.481-.037.74a21.333 21.333 0 0 0-.007 1.354l.014.637c.006.21.018.402.037.578.02.176.044.323.074.44.048.175.119.349.212.52.092.17.217.32.373.446.007.005.017.007.024.013.007.006.01.015.017.02.156.127.345.23.564.308.22.078.481.118.784.118.721 0 1.251-.178 1.588-.536.337-.356.515-.865.535-1.53l-.044-.007c0-.01.003-.017.003-.027l-1.186-.204c0 .37-.066.663-.196.878-.132.215-.347.322-.647.322-.24 0-.426-.059-.565-.169-.13-.12-.23-.277-.294-.48a2.943 2.943 0 0 1-.087-.707 28.63 28.63 0 0 1-.015-.94c.01-.582.024-1.086.043-1.514.02-.427.058-.713.117-.86zm8.816.457a4.357 4.357 0 0 0-.133-.842 1.754 1.754 0 0 0-.337-.674 1.44 1.44 0 0 0-.286-.26 1.717 1.717 0 0 0-.38-.22c-.26-.107-.595-.161-1.007-.161-.548 0-.984.107-1.307.322a1.758 1.758 0 0 0-.69.879c-.05.117-.09.27-.119.461a9.72 9.72 0 0 0-.073.637c-.02.234-.034.481-.044.74a21.333 21.333 0 0 0-.007 1.354l.014.637c.006.21.018.402.037.578.02.176.044.323.073.44.05.175.123.349.22.52.099.17.227.32.383.446.006.005.016.007.022.012.008.006.011.015.019.022.157.126.346.229.566.307.22.078.482.118.786.118.235 0 .475-.025.72-.074a1.94 1.94 0 0 0 .683-.278c.21-.137.39-.327.536-.57.147-.245.245-.563.294-.953.059-.556.088-1.112.088-1.67 0-.253-.005-.541-.014-.863a25.05 25.05 0 0 0-.044-.908zm-3.149.4c.02-.434.058-.719.117-.855.087-.224.21-.38.37-.468a1.09 1.09 0 0 1 .531-.13c.229 0 .417.055.567.161.14.114.244.275.308.49.028.088.05.205.065.35.015.147.024.313.03.497l.014.578a26.178 26.178 0 0 1 0 1.219 9.059 9.059 0 0 1-.08 1.043c-.02.132-.04.222-.058.27a1.106 1.106 0 0 1-.35.475.844.844 0 0 1-.537.182c-.245 0-.445-.055-.603-.16a.92.92 0 0 1-.315-.478 2.952 2.952 0 0 1-.087-.707c-.01-.307-.015-.621-.015-.942.01-.584.024-1.093.043-1.526zm9.321 1.614a1.118 1.118 0 0 0-.272-.4 1.22 1.22 0 0 0-.34-.246c.237-.164.413-.354.524-.57.112-.22.168-.5.168-.842 0-.624-.185-1.11-.556-1.457-.009-.009-.022-.014-.031-.022l-.01-.012c-.372-.346-.952-.52-1.743-.52h-1.932v7.234h.04v.034h1.875c.83 0 1.444-.176 1.844-.527.4-.352.6-.908.6-1.67 0-.38-.055-.715-.167-1.002zm-1.117-2.107c0 .323-.094.567-.278.733-.187.166-.499.249-.938.249h-.632V20.35h.688c.423 0 .72.076.903.221.168.156.257.38.257.681zm-1.848 1.982h.79c.458 0 .768.082.942.24.165.182.247.436.247.766 0 .176-.012.336-.037.483a.748.748 0 0 1-.168.374.885.885 0 0 1-.366.241c-.156.059-.366.088-.63.088h-.778v-2.192zm-104.37 13.741a4.427 4.427 0 0 0-.132-.841 1.76 1.76 0 0 0-.338-.674 1.442 1.442 0 0 0-.285-.26 1.708 1.708 0 0 0-.38-.22c-.26-.107-.595-.162-1.007-.162-.548 0-.984.108-1.307.323a1.76 1.76 0 0 0-.69.878c-.05.118-.089.27-.118.462-.03.19-.054.402-.074.637a19.31 19.31 0 0 0-.051 2.094c.004.214.01.426.015.637.004.209.016.402.036.578.02.175.044.322.074.439.049.176.122.35.22.52.098.17.225.32.382.446.006.005.016.008.023.013.007.006.01.015.018.021.156.127.345.23.566.308.22.078.482.117.786.117.235 0 .475-.025.72-.073.244-.05.472-.142.683-.279.21-.136.39-.326.536-.57.147-.245.245-.562.294-.952.059-.557.088-1.113.088-1.67a29.318 29.318 0 0 0-.059-1.772zm-3.148.4c.02-.434.058-.718.116-.855.088-.224.211-.38.37-.467.16-.087.338-.131.532-.131a.96.96 0 0 1 .567.162.967.967 0 0 1 .308.49c.029.088.05.204.065.35s.024.312.029.497l.014.577a23.769 23.769 0 0 1 0 1.22c-.005.204-.014.396-.028.576-.015.18-.032.335-.051.467-.02.131-.039.222-.058.27a1.115 1.115 0 0 1-.35.474.844.844 0 0 1-.537.183c-.245 0-.445-.055-.603-.161a.92.92 0 0 1-.315-.477 2.97 2.97 0 0 1-.088-.708 30.05 30.05 0 0 1-.015-.942c.01-.584.024-1.092.044-1.525zm14.526-.033a6.354 6.354 0 0 0-.052-.571 4.2 4.2 0 0 0-.08-.44c-.137-.449-.376-.8-.718-1.054-.006-.004-.014-.007-.02-.012-.008-.006-.013-.016-.02-.022-.334-.248-.815-.387-1.438-.42v-2.68h-.041v-.033h-1.142v2.708c-.586.03-1.045.157-1.377.381a1.882 1.882 0 0 0-.717.923 3.47 3.47 0 0 0-.22 1.12c-.02.425-.03.88-.03 1.37 0 .526.015 1.014.044 1.463.03.45.132.835.308 1.157.084.159.197.296.33.419.12.119.26.223.421.31.308.166.73.272 1.255.323v2.697h.041v.033h1.128v-2.723c.917-.127 1.537-.41 1.86-.85.243-.331.387-.739.43-1.222.045-.483.067-1.008.067-1.574a32.432 32.432 0 0 0-.03-1.303zm-1.257-.708c.03.079.051.193.066.344.015.152.024.328.03.527l.014.652c.005.234.008.469.008.703 0 .341-.008.668-.022.981-.015.312-.071.567-.17.761-.18.341-.514.533-.997.579v-5.215c.3.028.54.096.719.202a.9.9 0 0 1 .352.466zm-3.255 4.017a1.3 1.3 0 0 1-.073-.3 5.003 5.003 0 0 1-.043-.44 19.534 19.534 0 0 1-.028-1.018 31.516 31.516 0 0 1 .028-1.362c.01-.204.024-.385.043-.541.02-.156.044-.278.073-.366a.861.861 0 0 1 .384-.461 1.65 1.65 0 0 1 .616-.19l-.014 5.215c-.376-.042-.652-.153-.84-.326a.815.815 0 0 1-.146-.211zm10.602-4.027c-.048-.4-.14-.717-.276-.951a1.691 1.691 0 0 0-.46-.535l-.012-.008c-.01-.007-.018-.019-.028-.026a1.325 1.325 0 0 0-.533-.234 2.656 2.656 0 0 0-.466-.052c-.38 0-.656.057-.83.17-.17.108-.331.268-.484.475v-.523h-.041v-.034h-1.158v10.06h.042v.034h1.157v-3.339h.018c.068.092.143.173.227.243.089.08.186.15.294.203a1.6 1.6 0 0 0 .729.155c.457 0 .811-.1 1.064-.3.252-.2.44-.471.56-.814.122-.341.195-.743.219-1.208.025-.463.037-.958.037-1.486 0-.283-.003-.586-.008-.908s-.022-.63-.051-.922zm-3.104 3.368v-2.87c0-.332.083-.605.25-.82.164-.214.409-.322.73-.322.238 0 .423.046.559.133.12.094.216.23.28.42.068.204.11.465.124.782.015.318.022.7.022 1.15 0 .498-.015.915-.044 1.251-.03.337-.08.608-.153.813-.074.205-.177.35-.308.432a.97.97 0 0 1-.52.125c-.32 0-.55-.099-.707-.278-.155-.205-.233-.476-.233-.816zm8.693-4.711c-.006-.004-.009-.011-.014-.016-.357-.297-.862-.447-1.516-.447-.556 0-1.015.137-1.376.41-.361.274-.596.65-.703 1.128l.05.014c-.003.007-.007.012-.009.02l1.099.307c.049-.263.165-.453.35-.57.186-.118.377-.176.572-.176.348 0 .58.08.718.225.128.166.192.385.192.664v.965h-1.142c-.4 0-.727.072-.98.213a1.677 1.677 0 0 0-.601.55 2.217 2.217 0 0 0-.308.745 3.958 3.958 0 0 0-.087.821c0 .263.027.52.08.768.054.25.141.474.264.674.069.113.155.21.25.299.084.082.177.155.282.218.204.122.459.183.76.183.314 0 .594-.054.843-.161.238-.103.45-.282.64-.528v.567h.04v.034h1.158v-5.33c0-.74-.179-1.261-.535-1.559-.008-.007-.019-.011-.027-.018zm-2.587 4.813c0-.469.115-.793.345-.974s.494-.27.797-.27h.808v1.108c0 .361-.09.644-.27.849-.181.206-.452.307-.813.307-.292 0-.503-.086-.65-.243-.143-.18-.217-.438-.217-.777zm21.328-4.813c-.005-.004-.009-.011-.014-.016-.357-.297-.862-.447-1.516-.447-.556 0-1.015.137-1.375.41-.362.274-.596.65-.704 1.128l.05.014c-.002.007-.007.012-.008.02l1.098.307c.049-.263.165-.453.35-.57.186-.118.377-.176.573-.176.347 0 .58.08.718.225.127.166.192.385.192.664v.965h-1.142c-.4 0-.727.072-.982.213a1.676 1.676 0 0 0-.6.55 2.217 2.217 0 0 0-.307.745 3.958 3.958 0 0 0-.088.821c0 .263.027.52.08.768.054.25.142.474.265.674.068.113.154.21.25.299.083.082.176.155.28.218.206.122.46.183.762.183.313 0 .593-.054.843-.161.238-.103.45-.282.639-.528v.567h.04v.034h1.158v-5.33c0-.74-.179-1.261-.535-1.559-.008-.007-.019-.011-.027-.018zm-2.586 4.813c0-.469.114-.793.344-.974.23-.18.495-.27.798-.27h.808v1.108c0 .361-.09.644-.271.849-.181.206-.452.307-.813.307-.291 0-.503-.086-.65-.243-.143-.18-.216-.438-.216-.777zm15.331-1.918c.097-.107.175-.229.234-.366.059-.136.1-.288.124-.454.025-.166.037-.331.037-.497 0-.674-.189-1.172-.564-1.494-.008-.007-.02-.012-.028-.019-.005-.004-.008-.01-.013-.015-.376-.322-.9-.483-1.574-.483-.586 0-1.064.156-1.435.468-.37.311-.581.76-.63 1.347l.045.01c0 .008-.003.016-.004.024l1.1.234c.038-.653.36-.98.965-.98.311 0 .536.088.688.25.148.183.223.413.223.69 0 .33-.06.581-.176.755-.117.175-.317.262-.6.262h-.674v1.01h.041v.034h.645c.147 0 .271.028.375.08a.57.57 0 0 1 .213.209c.117.215.176.488.176.82 0 .43-.105.725-.315.885-.21.161-.442.242-.695.242-.296 0-.519-.076-.679-.215-.154-.157-.242-.404-.261-.747l-.034.005c-.001-.015-.007-.024-.007-.04l-1.128.177c.058.654.273 1.127.644 1.42l.022.014.019.02c.37.293.85.44 1.436.44.292 0 .572-.037.841-.11.268-.074.505-.193.71-.36a1.74 1.74 0 0 0 .491-.658c.122-.273.183-.615.183-1.025 0-.38-.044-.725-.132-1.033a.855.855 0 0 0-.256-.404.993.993 0 0 0-.373-.228v-.02a.975.975 0 0 0 .366-.248zM14.507 31.194l.043 3.753c.037 3.321-1.645 5.663-5.311 5.577v-3.112c1.504 0 2.075-.838 2.079-2.27l.01-3.918 3.179-.03zm-3.19-.975l-.029-2.933c-.015-1.535-.79-1.51-2.05-1.51l-.01-2.856c3.474-.471 5.271 1.43 5.279 3.779l.01 3.499-3.2.02zm-2.61 13.298H5.469l-.01-23.08 3.252-.343-.005 23.423zM.011 30.629v-2.614c0-3.08 2.27-4.827 5-4.892l-.018 2.846c-2.174.032-2.154 1.28-2.157 2.655l.005 2.016-2.83-.011zm2.835.967l.065 1.841v1.92c0 1.884.55 1.958 2.068 1.958l.01.311v3.113C1.962 40.739 0 38.855 0 35.119v-3.502l2.846-.021zM19.988 18.92l-3.155.33-.15 24.263h3.153l.152-24.593zm.655 14.877h.494c3.824 0 5.236-1.863 5.236-5.888v-1.644l-3.398.011.021 1.871c.014 1.202-.305 2.344-1.827 2.344h-.494l-.032 3.306zm5.751-8.313l-.01-1.285c-.034-4.013-1.03-5.837-4.808-5.45l-.899.093-.002 3.61.645.002c1.7 0 1.633.482 1.633 2.117v.891l3.441.022zm6.457-2.903L29.898 43.51l-2.86.003 3.783-25.727 4.68-.49 3.254 26.218-3.322-.006-2.582-20.925zm.904 12.6l.439 3.144h-2.752l.536-3.08 1.777-.065zm10.095 8.33h-3.237l.085-26.757 3.365-.352-.213 27.109zm4.49-27.55l3.495-.364.01 27.916H48.34V15.962zm-.799 12.066l-.03 3.329-2.611.032v-3.243l2.641-.118zm13.916 4.514c-.946.614-1.906.854-2.798.776l.005-4.378c1.22.847 1.99.669 2.777.083l.016 3.519zm.767-18.037l3.684-.384-.04 29.393h-3.687l.043-29.009zm-4.023.42l-.293 18.343c-2.087-.077-3.385-2.303-3.393-4.803l-.044-13.15 3.73-.39zm18.014 22.897l-3.307.065.393-3.97 2.316-.063.598 3.968zM74.42 19.036l-3.233 24.476h-3.213l3.96-30.013 5.369-.567 4.078 30.58-3.874.002-3.087-24.478zm12.51 24.476h-3.343l-.021-31.26 3.33-.32.034 31.58zm6.097-32.224l3.384-.342-.123 32.566-3.25-.003V27.615l-.01-16.327zm-.903 13.543L87.85 42.434l.006-14.037 4.246-16.071.022 12.505zm2.454-20.528c.042 2.668-.891 5.192-3.968 5.573-4.26.528-4.802-2.21-4.845-4.652l2.527-.257c.06 1.404.178 2.317 2.061 2.098 1.13-.131 1.589-1.476 1.668-2.496l2.557-.266zm10.45 10.441c-.132.034-1.632.891-1.632 4.131v1.848l-3.893.193V19.23c0-4.638 1.031-8.552 5.53-9.144l-.005 4.658zm1.127 29.107l-.088-4.74c1.984-.177 1.844-2.475 1.837-5.045l-.043-16.023c0-2.22-.363-3.113-1.828-3.501l.128-4.597c1.82-.21 3.087.173 4.054 1.082 1.044.982 2.338 3.617 2.297 4.96l-.107 3.43c-.076 2.419-1.184 5.649-3.125 6.34 1.058.39 2.297 1.474 2.72 2.892.26.873.393 1.636.39 3.292l-.007 4.477c-.004 2.874-1.166 4.812-2.21 5.795-.965.906-2.205 1.568-4.018 1.638zm-1.023-4.798l-.046 4.753c-3.598-.272-5.562-3.4-5.594-5.653l-.086-6.094h3.932v2.723c0 4.428 1.412 4.174 1.794 4.271zm1.995-9.978c-.87-.724-2.25-.657-3.072-.657l.02-4.345c.83 0 2.227.067 3.048-.972l.004 5.974zm12.047 14.44h-3.715l.086-34.56 3.71-.397-.081 34.956zm5.746-20.254l-4.425 17.967-.028-14.505 4.415-18.158.038 14.696zm1.008-15.41l3.993-.417.016 36.073-4 .006-.009-35.661zm18.367-1.915l4.876-.504v38.08l-4.877-.086V5.936zm-5.055 16.557l3.865-.257.003 5.063-3.868.257v-5.063zm-.955 21.019l-4.63-.003V7.049l4.619-.487.01 36.95zm14.72-33.071V5.025l14.184-1.488.01 5.566-14.195 1.338zm-.055 1.178l5.336-.383-.096 32.278h-4.93l-.31-31.895zm24.914 4.029c2.312-2.125 6.726-2.888 8.945-.189 1.266 1.539 2.076 2.53 2.123 7.927l.083 9.306c.03 3.339-.518 6.256-2.012 7.99-2.255 2.617-4.425 3.095-6.778 3.133l-.06-6.212c1.77-.255 2.686-1.634 2.692-3.7l.026-8.65c.004-1.45.026-2.793-.835-4.335-.86-1.541-3.38-.854-4.21-.397l.026-4.873zm-1.365 9.854l-5.599.214.617-16.76 5.42-.298-.438 16.844zm2.455 12l-.04 6.336c-1.691-.104-4.411-1.017-5.332-1.882-1.045-.984-2.38-3.166-2.425-5.003l-.171-7.105 5.473-.086.102 4.56c.037 1.675.602 3.082 2.393 3.18zm-7.392-29.795l.38-5.856L187.636 0l.073 5.967-16.147 1.74z"/></symbol><symbol id="icon-download" viewBox="0 0 32 30.7" xmlns="http://www.w3.org/2000/svg"><style>.cst0,.cst1{fill:none;stroke:#fff;stroke-linecap:round;stroke-miterlimit:10}.cst1{stroke-linejoin:round}</style><path class="cst0" d="M16 12.8v17"/><path class="cst1" d="M20.5 25.8l-4.6 4.4-4.4-4.4m0-6.5h-7s-4-.6-4-5.5 5-6 5-6-.4-2.3 1-3c2.6-1.4 4 1 4 1s3.1-6.9 9-5 5 8 5 8 7.1-.5 7 5.3c-.1 5.7-5 5.2-5 5.2h-6"/></symbol></svg>