<?xml version="1.0" encoding="utf-8"?>
<!-- Generator: Adobe Illustrator 21.0.2, SVG Export Plug-In . SVG Version: 6.00 Build 0)  -->
<svg version="1.1" id="Слой_1" xmlns="http://www.w3.org/2000/svg" xmlns:xlink="http://www.w3.org/1999/xlink" x="0px" y="0px"
	 width="314.5676575px" height="45.030159px" viewBox="0 0 314.5676575 45.030159"
	 style="enable-background:new 0 0 314.5676575 45.030159;" xml:space="preserve">
<style type="text/css">
	.st0{fill:#FFFFFF;}
</style>
<g>
	<g>
		<g>
			<g>
				<path class="st0" d="M211.4389191,8.5878124c0.0045776,0.2092476,0.0169678,0.4020195,0.0366974,0.5782633
					c0.0193024,0.1753588,0.0436249,0.3221903,0.0729828,0.4387827c0.048645,0.1762438,0.1193542,0.3497229,0.2125092,0.5204372
					c0.0926971,0.1707697,0.2170868,0.3194818,0.3731537,0.4461355c0.0065308,0.0053072,0.016922,0.0076294,0.0235596,0.012826
					c0.0071869,0.0060263,0.0102234,0.0150375,0.0175171,0.0209522c0.1560669,0.1266546,0.3442535,0.2294807,0.5641174,0.3074856
					c0.2184143,0.0780602,0.480957,0.1175327,0.783905,0.1175327c0.7214508,0,1.2501831-0.1780672,1.5879669-0.5351419
					c0.3360138-0.3561907,0.5140686-0.8656254,0.534256-1.5301857l-0.0436249-0.0075188
					c0.0003357-0.0092325,0.0022125-0.0169725,0.0024872-0.0262594l-1.1859283-0.2047138
					c0,0.3708401-0.0661163,0.6636753-0.1964264,0.8784504c-0.1303558,0.214776-0.3451843,0.3221912-0.6462555,0.3221912
					c-0.2399902,0-0.4263-0.0589323-0.5643921-0.1692772c-0.1307983-0.1194668-0.2294769-0.2774115-0.2940521-0.4807987
					c-0.04953-0.1652412-0.078949-0.4001961-0.0881195-0.7067966c-0.0091858-0.3056612-0.0146484-0.6186752-0.0146484-0.9390416
					c0.0091705-0.5829072,0.023819-1.0868139,0.0440521-1.514596c0.0183563-0.4268422,0.0578308-0.7132096,0.1156616-0.8591576
					c0.0871735-0.2230678,0.2000732-0.3781929,0.3414307-0.4653745c0.1395264-0.0881214,0.3065948-0.1312976,0.5011902-0.1312976
					c0.130249,0,0.2472229,0.0243244,0.3502197,0.073029c0.0835419,0.0476542,0.1625366,0.1032691,0.2255096,0.186028
					c0.150528,0.1955371,0.2258301,0.5121999,0.2258301,0.9518676l0.037262-0.0050306
					c0.0001678,0.0147605,0.0038605,0.0237718,0.0038605,0.0388088l1.2006531-0.1615376
					c0-0.6535592-0.1542511-1.1758752-0.4608459-1.5668941c-0.079834-0.1010027-0.1748047-0.1876867-0.2823334-0.2625954
					c-0.3110199-0.2353411-0.7428436-0.3567984-1.3045807-0.3567984c-0.5470734,0-0.9757385,0.1073601-1.2878113,0.322191
					c-0.3125763,0.2147753-0.536972,0.507611-0.6737366,0.8784511c-0.0486603,0.1174769-0.0876923,0.2707777-0.1170349,0.4617262
					c-0.0294189,0.1900086-0.0514221,0.40202-0.0656891,0.6370292c-0.0146484,0.2340693-0.0270233,0.4809642-0.0366974,0.7389159
					c-0.0100708,0.2588363-0.0146484,0.5103755-0.0146484,0.7545614c0,0.1854205,0.0022583,0.3854904,0.0072937,0.6003213
					C211.4288025,8.1655588,211.4338837,8.3775702,211.4389191,8.5878124z"/>
				<path class="st0" d="M231.0742645,10.3153591c0.0686493,0.1133308,0.1546783,0.2106848,0.2504883,0.2988615
					c0.0830841,0.0824833,0.1763458,0.1554012,0.280777,0.2177057c0.2047119,0.1221209,0.4589691,0.1835957,0.7609711,0.1835957
					c0.3130188,0,0.5929718-0.0541773,0.8426819-0.1615372c0.2381592-0.1028824,0.4503937-0.2817793,0.6390228-0.5277348v0.5673723
					h0.0411377v0.0337782h1.1575165V5.5979271c0-0.7416806-0.1790009-1.2621174-0.535141-1.5595412
					c-0.0081787-0.006855-0.0187988-0.0112777-0.0271454-0.0179672c-0.005249-0.0045333-0.0086823-0.0113883-0.0139923-0.015811
					c-0.3570709-0.2974238-0.861908-0.4470205-1.5154724-0.4470205c-0.5562592,0-1.0152283,0.136771-1.3760071,0.4103127
					c-0.3616638,0.2735415-0.5957336,0.6489701-0.7031403,1.1271706l0.0491486,0.0137653
					c-0.00177,0.0074081-0.0063629,0.0125494-0.0080261,0.0200129l1.0987549,0.3075409
					c0.0486603-0.2634802,0.1652527-0.4534888,0.3506622-0.5709658c0.1854248-0.1174769,0.3763733-0.1753035,0.5718536-0.1753035
					c0.3477325,0,0.5800323,0.079442,0.717804,0.2254453c0.1274261,0.1652417,0.1920471,0.3847165,0.1920471,0.6632891v0.9656329
					h-1.1418762c-0.4001923,0-0.7269745,0.0715919-0.9812775,0.2129512
					c-0.2533569,0.1413593-0.4534302,0.3240705-0.6003113,0.5489626c-0.1459503,0.2248373-0.2487793,0.4736118-0.3074951,0.7462692
					c-0.0578308,0.2735415-0.0872345,0.5470829-0.0872345,0.8206244c0,0.2634249,0.0266418,0.5194969,0.0798798,0.7682724
					C230.8640747,9.8903418,230.9512482,10.1152344,231.0742645,10.3153591z M231.8983612,8.833602
					c0-0.4690237,0.1147766-0.7930937,0.3442535-0.9739256c0.2294769-0.1808314,0.4947357-0.2707772,0.7976227-0.2707772h0.8079681
					V8.697052c0,0.3616638-0.0899506,0.6443825-0.2707672,0.849041c-0.1808319,0.2056532-0.4516144,0.3075409-0.8123474,0.3075409
					c-0.2919922,0-0.5033417-0.0861874-0.6505585-0.2434683C231.9714508,9.4303846,231.8983612,9.1717148,231.8983612,8.833602z"/>
				<path class="st0" d="M237.1141815,9.6048584c0.048645,0.1762438,0.1221161,0.3497229,0.2194214,0.5204372
					c0.09729,0.1707697,0.224884,0.3194818,0.3809509,0.4461355c0.0063629,0.0051422,0.0164185,0.0074081,0.0228882,0.0124941
					c0.0072937,0.0061369,0.0107269,0.0152588,0.0181885,0.0212841c0.1560669,0.1266546,0.3442535,0.2294807,0.5636139,0.3074856
					c0.2194214,0.0780602,0.4810181,0.1175327,0.7839203,0.1175327c0.2340698,0,0.4727173-0.0248222,0.7169037-0.073472
					c0.2441864-0.0486488,0.4709015-0.1413593,0.6810913-0.2781296c0.2093048-0.1367712,0.3883209-0.3267794,0.534256-0.5709105
					c0.1468353-0.2441864,0.2441406-0.5617886,0.2927856-0.9519224c0.0294037-0.2827187,0.048645-0.5222616,0.0587616-0.7177982
					c0.0091858-0.1945972,0.0147095-0.4296064,0.0147095-0.7022085c0-0.2147756-0.0027618-0.4488449-0.0073547-0.7031479
					c-0.0055237-0.2542477-0.0147095-0.5030227-0.0294037-0.7471533c-0.0146484-0.2433019-0.0348816-0.4727826-0.0587158-0.6875582
					c-0.024826-0.2147756-0.0615234-0.3910189-0.1101837-0.5277896c-0.0596466-0.1560645-0.1330566-0.3047767-0.2211914-0.446136
					c-0.0881195-0.1413593-0.198288-0.2661891-0.3304749-0.3736043c-0.0056458-0.0045333-0.0150909-0.0063577-0.0208435-0.0108356
					c-0.0079651-0.0067444-0.0121613-0.0163636-0.0202942-0.0229425c-0.1330566-0.1073599-0.2973633-0.1927729-0.4929047-0.256072
					c-0.1964111-0.0633545-0.431427-0.0954742-0.7058563-0.0954742c-0.1377106,0-0.3286591,0.0394723-0.5737305,0.1174769
					c-0.239975,0.0761251-0.4546509,0.2390451-0.6465302,0.4821258c0.0045929-0.4681942,0.0691528-0.9071987,0.2011719-1.3120935
					c0.1367645-0.4194894,0.3754272-0.7223866,0.717804-0.9078066c0.2432404-0.1367707,0.4507141-0.2441862,0.6214294-0.3221909
					c0.1707153-0.07806,0.3295441-0.1468877,0.4764404-0.2056538c0.1459503-0.0578264,0.2973633-0.1211257,0.4534302-0.1900086
					c0.1560669-0.0678879,0.3469543-0.1606532,0.5709686-0.2781302l-0.3947296-0.8196851
					c-0.007843,0.0035934-0.0128174,0.0053072-0.0206146,0.0088453l-0.0205078-0.0426234
					c-0.2340698,0.1073602-0.4396667,0.1954817-0.615036,0.2634248c-0.176239,0.0679432-0.3423615,0.1312425-0.4984283,0.1900086
					c-0.1560059,0.0587661-0.3093109,0.1202411-0.4607849,0.1835958s-0.3194275,0.1385951-0.5048523,0.2267166
					c-0.3221893,0.1560647-0.5920868,0.3488375-0.8096161,0.5783184c-0.2175446,0.229481-0.3928528,0.5268497-0.5277863,0.8931015
					c-0.1349487,0.3662517-0.2340698,0.8197403-0.2964935,1.3622353c-0.0624084,0.5415549-0.0945892,1.1978779-0.0945892,1.9689136
					v1.4494171c0,0.3708401,0.0073547,0.7563853,0.0220642,1.1565814
					C237.0187531,9.0687771,237.0554657,9.3809061,237.1141815,9.6048584z M240.1966095,8.598814
					c-0.024765,0.3304281-0.0624237,0.5498476-0.1110687,0.6572075c-0.078949,0.1946526-0.1964722,0.3552504-0.3543091,0.4819593
					c-0.1569977,0.1257143-0.3387146,0.1890688-0.5452576,0.1890688c-0.2485504,0-0.4501648-0.0595951-0.6104889-0.1737003
					c-0.1476593-0.1199646-0.2575684-0.276969-0.3223114-0.4782c-0.048645-0.1652412-0.0780487-0.3754292-0.0872345-0.6278524
					c-0.0100555-0.2533627-0.0146484-0.5406704-0.0146484-0.8619766c0.0091858-0.5837913,0.0165253-1.0528145,0.0220032-1.4080648
					c0.0045929-0.3561349,0.0458832-0.6260281,0.1248322-0.8105083c0.0881195-0.2240076,0.2166595-0.3846607,0.3837128-0.4819593
					c0.1670685-0.0972986,0.3487854-0.1459479,0.5452728-0.1459479c0.2318573,0,0.421524,0.0583792,0.5735626,0.1687799
					c0.1422424,0.1188588,0.2489929,0.2869201,0.3142242,0.5125313c0.0293579,0.0881214,0.0514069,0.2120113,0.0661163,0.3726645
					c0.0146484,0.1606531,0.024765,0.3304834,0.0293579,0.5113149c0.0054779,0.1798921,0.0101166,0.3570747,0.0155945,0.5323782
					c0.0045776,0.175303,0.0073547,0.3258395,0.0073547,0.452549C240.2333221,7.8975453,240.2204895,8.2674456,240.1966095,8.598814
					z"/>
				<path class="st0" d="M268.8808289,10.3153591c0.0686035,0.1133308,0.1546936,0.2106295,0.2504883,0.2988062
					c0.0830994,0.0824833,0.1763611,0.1554565,0.2808533,0.217761c0.2046509,0.1221209,0.4589539,0.1835957,0.7608948,0.1835957
					c0.3130188,0,0.5930481-0.0541773,0.8426819-0.1615372c0.2382813-0.1028824,0.450531-0.2818346,0.6390991-0.5277901v0.5674276
					h0.0410767v0.0337782h1.1575012V5.5979271c0-0.7416806-0.1789856-1.2621174-0.5351257-1.5595412
					c-0.0081787-0.006855-0.0187988-0.0112224-0.0271606-0.0179119c-0.005249-0.0045333-0.008667-0.0114436-0.0139771-0.0158663
					c-0.3570862-0.2974238-0.861908-0.4470205-1.5154724-0.4470205c-0.5562744,0-1.0152283,0.136771-1.3760071,0.4103127
					c-0.3616638,0.2735415-0.5957336,0.6489701-0.7030945,1.1271706l0.0491333,0.0137653
					c-0.001709,0.0074081-0.0063477,0.0125494-0.0079956,0.0200129l1.0987549,0.3075409
					c0.048645-0.2634802,0.1651917-0.4534888,0.3505859-0.5709658c0.1854248-0.1174769,0.3763733-0.1753035,0.5719299-0.1753035
					c0.3477173,0,0.5800171,0.079442,0.7177734,0.2254453c0.1274414,0.1652417,0.1920776,0.3847165,0.1920776,0.6632891v0.9656329
					h-1.1419373c-0.4002075,0-0.7269897,0.0715919-0.9812927,0.2129512
					c-0.2532959,0.1413593-0.4534302,0.3240705-0.6003113,0.5489626c-0.1459351,0.2248373-0.2487183,0.4736118-0.3074951,0.7462692
					c-0.0578003,0.2735415-0.0871582,0.5470829-0.0871582,0.8206244c0,0.2634249,0.0265808,0.5194969,0.0798035,0.7682724
					C268.6706543,9.8903418,268.7578125,10.1152344,268.8808289,10.3153591z M269.7049255,8.833602
					c0-0.4690237,0.1147766-0.7930937,0.3442688-0.9739256c0.2294617-0.1808314,0.4947205-0.2707772,0.7976685-0.2707772h0.8079834
					V8.697052c0,0.3616638-0.0899963,0.6443825-0.2708435,0.849041c-0.1808167,0.2056532-0.4515991,0.3075409-0.8123169,0.3075409
					c-0.2919617,0-0.5033264-0.0861874-0.6505432-0.243413C269.7780151,9.4304953,269.7049255,9.1717701,269.7049255,8.833602z"/>
				<polygon class="st0" points="200.6257782,19.2917042 196.3500671,19.2917042 196.3500671,26.5249691 196.3911896,26.5249691 
					196.3911896,26.5587463 197.5482178,26.5587463 197.5482178,20.3508224 199.4691925,20.3508224 199.4691925,26.5249691 
					199.5102692,26.5249691 199.5102692,26.5587463 200.6668549,26.5587463 200.6668549,19.3254833 200.6257782,19.3254833 				"/>
				<path class="st0" d="M202.6754608,19.2770538V29.336565h0.0411377v0.0337791h1.1565704v-3.3385029h0.0183105
					c0.0678253,0.0916042,0.1430054,0.1731472,0.2267609,0.2428055c0.0889587,0.0802708,0.1860352,0.149374,0.29422,0.203331
					c0.2042694,0.1028271,0.4470215,0.1541843,0.7288513,0.1541843c0.4566498,0,0.8114471-0.1000061,1.0638733-0.3001328
					c0.2528687-0.2001247,0.4396667-0.4709015,0.5608521-0.8132725c0.1216278-0.3414841,0.1945953-0.7435036,0.2189178-1.2079945
					c0.02388-0.4635506,0.0362701-0.9583359,0.0362701-1.486124c0-0.2827187-0.0023193-0.5856171-0.0073547-0.9078064
					c-0.0050354-0.3221912-0.0215607-0.6297321-0.0509186-0.9225121c-0.0487061-0.4002514-0.1409149-0.7169151-0.2767944-0.950983
					c-0.1362762-0.2350101-0.2895813-0.4130764-0.4594116-0.5351429c-0.0040894-0.0029297-0.0084534-0.0043125-0.0126038-0.0072422
					c-0.0098877-0.0075741-0.0185242-0.0193481-0.0285187-0.026535c-0.1698303-0.1221218-0.3474121-0.2001266-0.5319366-0.2340698
					c-0.1844788-0.0340004-0.3401031-0.0514145-0.4663239-0.0514145c-0.3786316,0-0.6558228,0.0568867-0.8306732,0.1688919
					c-0.1706085,0.1092949-0.3317108,0.269228-0.4835205,0.4763203V19.310833h-0.0411224v-0.0337791H202.6754608z
					 M203.8585205,24.3621769V21.492754c0-0.3323078,0.0830383-0.6049652,0.2492218-0.8206253
					c0.1656799-0.213892,0.4098206-0.3213062,0.7320099-0.3213062c0.2371674,0,0.4217529,0.0452213,0.5576935,0.1329556
					c0.1211853,0.0935402,0.2165985,0.2292595,0.2796783,0.4188824c0.0678864,0.2047138,0.1096802,0.4663143,0.1243286,0.7830315
					c0.0147095,0.3176022,0.0220642,0.7003841,0.0220642,1.149229c0,0.4984341-0.0147095,0.9151592-0.0440674,1.2520561
					c-0.0293579,0.336895-0.0803223,0.6076736-0.1537476,0.8123322c-0.0729675,0.2056522-0.1757965,0.3497772-0.3075256,0.4323692
					c-0.1316986,0.0825939-0.3051758,0.1248302-0.5195007,0.1248302c-0.31987,0-0.5504608-0.0986252-0.7076263-0.2777977
					C203.9363098,24.973444,203.8585205,24.70261,203.8585205,24.3621769z"/>
				<path class="st0" d="M233.3213654,26.5249691h0.0410614v0.0337772h1.1575317v-7.233263h-0.0411377v-0.0337791h-3.8369293
					v4.3197803c0,0.3506622-0.0146484,0.6443825-0.0431213,0.8784523c-0.0293579,0.2340679-0.0835419,0.4314289-0.1615448,0.592968
					c-0.0780487,0.1606522-0.1826477,0.3047752-0.3148346,0.4314308c-0.1313019,0.127594-0.3001862,0.2588348-0.5048981,0.395607
					l0.5121918,0.8638c0.0058136-0.0027084,0.0102386-0.0059147,0.015976-0.0086231l0.0251617,0.0424023
					c0.2928314-0.1367722,0.5397339-0.2900715,0.7398529-0.4607868c0.1991882-0.1707706,0.3607178-0.3781929,0.4828491-0.6223793
					c0.1220551-0.2441864,0.2101898-0.5296135,0.2634277-0.8563919c0.0532379-0.3277206,0.0807648-0.7206192,0.0807648-1.1795807
					v-3.3375607h1.5836487V26.5249691z"/>
				<polygon class="st0" points="245.7243347,26.5249691 245.7654572,26.5249691 245.7654572,26.5587463 246.9514465,26.5587463 
					246.9514465,19.3254833 246.9103241,19.3254833 246.9103241,19.2917042 245.7243347,19.2917042 245.7243347,22.3374271 
					243.8616638,22.3374271 243.8616638,19.3254833 243.8205872,19.3254833 243.8205872,19.2917042 242.6345978,19.2917042 
					242.6345978,26.5249691 242.6757355,26.5249691 242.6757355,26.5587463 243.8616638,26.5587463 243.8616638,23.3524265 
					245.7243347,23.3524265 				"/>
				<polygon class="st0" points="253.9673462,19.2917042 253.9673462,26.5249691 254.0084229,26.5249691 254.0084229,26.5587463 
					255.2090607,26.5587463 255.2090607,19.3254833 255.167984,19.3254833 255.167984,19.2917042 				"/>
				<polygon class="st0" points="289.927948,19.2917042 288.7420044,19.2917042 288.7420044,22.3374271 286.879364,22.3374271 
					286.879364,19.3254833 286.8382263,19.3254833 286.8382263,19.2917042 285.6522217,19.2917042 285.6522217,26.5249691 
					285.6933594,26.5249691 285.6933594,26.5587463 286.879364,26.5587463 286.879364,23.3524265 288.7420044,23.3524265 
					288.7420044,26.5249691 288.7831421,26.5249691 288.7831421,26.5587463 289.9690857,26.5587463 289.9690857,19.3254833 
					289.927948,19.3254833 				"/>
				<polygon class="st0" points="200.6257782,34.9221649 196.3500671,34.9221649 196.3500671,42.1554298 196.3911896,42.1554298 
					196.3911896,42.189209 197.5482178,42.189209 197.5482178,35.9812851 199.4691925,35.9812851 199.4691925,42.1554298 
					199.5102692,42.1554298 199.5102692,42.189209 200.6668549,42.189209 200.6668549,34.9559441 200.6257782,34.9559441 				"/>
				<polygon class="st0" points="237.0848236,34.9221649 235.89888,34.9221649 235.89888,37.9678307 234.0362244,37.9678307 
					234.0362244,34.9559441 233.9951019,34.9559441 233.9951019,34.9221649 232.8091583,34.9221649 232.8091583,42.1554298 
					232.850235,42.1554298 232.850235,42.189209 234.0362244,42.189209 234.0362244,38.9828873 235.89888,38.9828873 
					235.89888,42.1554298 235.9400177,42.1554298 235.9400177,42.189209 237.1259613,42.189209 237.1259613,34.9559441 
					237.0848236,34.9559441 				"/>
				<path class="st0" d="M243.3221588,34.9221649h-1.1566315v3.1347275
					c-0.1771393,0.1073608-0.3634949,0.1918335-0.5599213,0.255188c-0.1973572,0.0633011-0.3790741,0.0945358-0.5461426,0.0945358
					c-0.2759094,0-0.480957-0.0792198-0.6277924-0.2236214c-0.1428986-0.1651878-0.2159882-0.4086533-0.2159882-0.7339973
					v-2.4930534h-0.0411377v-0.0337791h-1.1565704v2.8115997c0,0.6150246,0.1441193,1.0592804,0.431427,1.3318825
					c0.0075226,0.0071335,0.0193481,0.0091209,0.0269775,0.0160332c0.0053101,0.0052528,0.008728,0.0126038,0.0141449,0.017746
					c0.2882538,0.2735405,0.6912079,0.4103127,1.2080078,0.4103127c0.4654236,0,0.9503632-0.1337852,1.4523468-0.396328v3.0420189
					h0.0411224v0.0337791h1.1712341v-7.2332649h-0.0410767V34.9221649z"/>
				<polygon class="st0" points="255.9729614,34.9221649 254.8163757,34.9221649 252.7050018,39.6251144 252.7050018,34.9559441 
					252.6638641,34.9559441 252.6638641,34.9221649 251.5366516,34.9221649 251.5366516,42.1554298 251.577774,42.1554298 
					251.577774,42.189209 252.6866455,42.189209 254.8163757,37.4323578 254.8163757,42.1554298 254.8575134,42.1554298 
					254.8575134,42.189209 256.0140991,42.189209 256.0140991,34.9559441 255.9729614,34.9559441 				"/>
				<path class="st0" d="M254.6842041,32.0518036c0,0.0982399-0.0220032,0.2010117-0.0651855,0.3074837
					c-0.0440674,0.1083565-0.1101227,0.2074814-0.1982422,0.30019c-0.0871887,0.0935936-0.1927795,0.1688919-0.3148346,0.2276573
					c-0.1221313,0.057827-0.2607269,0.0871811-0.4167938,0.0871811c-0.1468201,0-0.2781219-0.0293541-0.3955994-0.0871811
					c-0.1027679-0.0514145-0.1863556-0.1212387-0.2624817-0.199131c-0.0806122-0.0913277-0.1460571-0.1884613-0.1938782-0.2949371
					c-0.0495911-0.1064758-0.078949-0.2092476-0.0881195-0.3074837h-0.0314636
					c-0.0014954-0.010891-0.0086823-0.0229988-0.0096741-0.0337791h-0.9519196c0,0.1863594,0.0339966,0.383667,0.102829,0.592968
					c0.0679321,0.2102432,0.1780548,0.4029617,0.3295441,0.5792046c0.0781708,0.0910492,0.1704865,0.1734238,0.2741394,0.2487183
					c0.1068115,0.0827599,0.2246246,0.1587181,0.3599548,0.2238426c0.2432404,0.1174774,0.5461426,0.1762428,0.9078064,0.1762428
					c0.3221893,0,0.6003265-0.0587654,0.8343964-0.1762428s0.4295959-0.2634239,0.5856628-0.4387856
					c0.1560059-0.1762428,0.2735443-0.3689575,0.3515472-0.5792007c0.0780029-0.2092476,0.1266479-0.4066086,0.1459503-0.592968
					h-0.0494232c0.0012665-0.0106697,0.0071869-0.0231667,0.0082855-0.0337791H254.6842041z"/>
				<polygon class="st0" points="268.5209961,34.9221649 267.3644104,34.9221649 265.2530212,39.6251144 265.2530212,34.9559441 
					265.2119141,34.9559441 265.2119141,34.9221649 264.0846863,34.9221649 264.0846863,42.1554298 264.1257935,42.1554298 
					264.1257935,42.189209 265.2383423,42.189209 267.3644104,37.4568481 267.3644104,42.1554298 267.4055481,42.1554298 
					267.4055481,42.189209 268.5621338,42.189209 268.5621338,34.9559441 268.5209961,34.9559441 				"/>
				<polygon class="st0" points="275.0227051,34.9221649 273.8367004,34.9221649 273.8367004,37.9678307 271.9740295,37.9678307 
					271.9740295,34.9559441 271.9329529,34.9559441 271.9329529,34.9221649 270.7469788,34.9221649 270.7469788,42.1554298 
					270.7881165,42.1554298 270.7881165,42.189209 271.9740295,42.189209 271.9740295,38.9828873 273.8367004,38.9828873 
					273.8367004,42.1554298 273.8778381,42.1554298 273.8778381,42.189209 275.0638123,42.189209 275.0638123,34.9559441 
					275.0227051,34.9559441 				"/>
				<polygon class="st0" points="280.9956055,34.9221649 277.2477417,34.9221649 277.2477417,42.1554298 277.2888794,42.1554298 
					277.2888794,42.189209 278.4454346,42.189209 278.4454346,35.9812851 281.0367432,35.9812851 281.0367432,34.9559441 
					280.9956055,34.9559441 				"/>
				<path class="st0" d="M287.0585327,34.9221649h-1.1860046l-0.6003113,2.7381821l-0.5415649,2.5325279h-0.0108337
					l-0.5776978-2.4693947l-0.6150208-2.7675362h-0.0336304l-0.0075073-0.0337791h-1.230011l1.917511,7.2919769
					l-0.1165466,0.5121994c-0.1074219,0.4883728-0.2221375,0.8225021-0.3442383,1.003334
					c-0.1220703,0.1798935-0.3203735,0.2707787-0.5929871,0.2707787h-0.2928162v0.9959297h0.0411377v0.0337753h0.4387817
					c0.5177307,0,0.9031982-0.1495934,1.1575012-0.4470177c0.2533264-0.2974243,0.4387512-0.6902695,0.5562744-1.1786423
					l2.0791016-8.448555h-0.0494385L287.0585327,34.9221649z"/>
				<polygon class="st0" points="203.170517,10.9274006 203.170517,0.7365923 203.1293945,0.7365923 203.1293945,0.7028142 
					201.9434509,0.7028142 200.7574615,3.8063066 199.7913818,6.369184 199.7756958,6.369184 198.8512421,3.9135563 
					197.6358948,0.7365923 197.6076965,0.7365923 197.5947571,0.7028142 196.4234772,0.7028142 196.4234772,10.8936224 
					196.4646149,10.8936224 196.4646149,10.9274006 197.6211853,10.9274006 197.6211853,3.8694954 197.6517029,3.8694954 
					198.4438629,5.9441662 199.4985504,8.4189224 199.5253143,8.4189224 199.5396881,8.4526997 200.0812378,8.4526997 
					201.135498,5.9779444 201.9409637,3.8694954 201.9728088,3.8694954 201.9728088,10.8936224 202.0139465,10.8936224 
					202.0139465,10.9274006 				"/>
				<path class="st0" d="M209.4959259,10.9274006V5.5979271c0-0.7416806-0.1785126-1.2621174-0.535141-1.5595412
					c-0.0081787-0.006855-0.0187988-0.0112777-0.0271454-0.0179672c-0.005249-0.0045333-0.0086823-0.0113883-0.0139923-0.015811
					c-0.3565674-0.2974238-0.8614807-0.4470205-1.5145416-0.4470205c-0.5567474,0-1.0157166,0.136771-1.3764343,0.4103127
					c-0.3612213,0.2735415-0.5957336,0.6489701-0.7031555,1.1271706l0.0491486,0.0137653
					c-0.001709,0.0074081-0.0063477,0.0125494-0.0080109,0.0200129l1.0983124,0.3075409
					c0.048645-0.2634802,0.1661224-0.4534888,0.3515472-0.5709658s0.3754272-0.1753035,0.5709686-0.1753035
					c0.3477325,0,0.5806885,0.0793872,0.7182312,0.2254453c0.1270447,0.1652417,0.1925049,0.3847165,0.1925049,0.6632891v0.9656329
					h-1.1423187c-0.4002533,0-0.7270355,0.0715919-0.980835,0.2129512
					c-0.2542572,0.1413593-0.4538879,0.3240705-0.6003265,0.5489626c-0.1463928,0.2248373-0.2492218,0.4736118-0.3074799,0.7462692
					c-0.0587769,0.2735415-0.0881195,0.5470829-0.0881195,0.8206244c0,0.2634249,0.0270844,0.5194969,0.0807648,0.7682724
					c0.0532379,0.2487745,0.1413574,0.4736671,0.2634277,0.6737919c0.0691528,0.1132755,0.1551208,0.2106295,0.2508087,0.2988062
					c0.0830383,0.0825386,0.1762543,0.1554565,0.2809601,0.217761c0.2051544,0.1221209,0.4585114,0.1835957,0.7614136,0.1835957
					c0.3121338,0,0.5929718-0.0541773,0.8417358-0.1615372c0.2386627-0.1028824,0.4505615-0.2818346,0.6399689-0.5277901v0.5674276
					h0.0411224v0.0337782H209.4959259z M206.3479309,8.833602c0-0.4690237,0.1147156-0.7930937,0.3441925-0.9739256
					c0.2290344-0.1808314,0.495224-0.2707772,0.7976837-0.2707772h0.8084106V8.697052
					c0,0.3616638-0.0903931,0.6443825-0.2707825,0.849041c-0.1808319,0.2056532-0.4516144,0.3075409-0.8128357,0.3075409
					c-0.2915039,0-0.5035095-0.0861874-0.6505127-0.243413C206.420578,9.4304953,206.3479309,9.1717701,206.3479309,8.833602z"/>
				<polygon class="st0" points="217.4621277,10.9274006 224.28508,10.9274006 224.28508,3.6941369 224.2439575,3.6941369 
					224.2439575,3.6603589 223.1167908,3.6603589 223.1167908,9.7958069 221.4441376,9.7958069 221.4441376,3.6941369 
					221.4029999,3.6941369 221.4029999,3.6603589 220.2464294,3.6603589 220.2464294,9.7958069 218.6187744,9.7958069 
					218.6187744,3.6941369 218.5776367,3.6941369 218.5776367,3.6603589 217.4210663,3.6603589 217.4210663,10.8936224 
					217.4621277,10.8936224 				"/>
				<polygon class="st0" points="225.8804474,4.7194757 227.3621521,4.7194757 227.3621521,10.8936224 227.4032898,10.8936224 
					227.4032898,10.9274006 228.5598602,10.9274006 228.5598602,4.7194757 230.0973969,4.7194757 230.0973969,3.6941369 
					230.0562744,3.6941369 230.0562744,3.6603589 225.839325,3.6603589 225.839325,4.6856976 225.8804474,4.6856976 				"/>
				<polygon class="st0" points="243.3779449,10.9274006 244.4904633,10.9274006 246.6165466,6.195097 246.6165466,10.8936224 
					246.6576691,10.8936224 246.6576691,10.9274006 247.8142548,10.9274006 247.8142548,3.6941369 247.7731323,3.6941369 
					247.7731323,3.6603589 246.6165466,3.6603589 244.5051727,8.363307 244.5051727,3.6941369 244.464035,3.6941369 
					244.464035,3.6603589 243.3368073,3.6603589 243.3368073,10.8936224 243.3779449,10.8936224 				"/>
				<path class="st0" d="M249.8492889,13.7389975h1.1575165v-3.3385019h0.0174713
					c0.068222,0.0916042,0.1435699,0.1730919,0.2273865,0.2427492c0.0890503,0.0802708,0.1860199,0.1494303,0.2939911,0.2033873
					c0.2037811,0.1028271,0.4470215,0.1541843,0.7288055,0.1541843c0.4571381,0,0.8114471-0.1000071,1.0638733-0.3001328
					c0.2524719-0.2001247,0.4397125-0.4709024,0.5608368-0.8132715c0.1211853-0.341485,0.1946564-0.7435608,0.2184906-1.2079954
					c0.0248108-0.4635506,0.0366974-0.9583354,0.0366974-1.486125c0-0.2827187-0.0027008-0.5856156-0.0072937-0.9078064
					c-0.0045929-0.3222466-0.022049-0.6297321-0.0514069-0.9225674c-0.0477753-0.4001956-0.1404724-0.7168584-0.2763062-0.9509277
					c-0.1367798-0.2350092-0.2891388-0.4130766-0.4589691-0.5351419c-0.0040894-0.0029302-0.0084534-0.0043674-0.0125427-0.0072422
					c-0.009903-0.0076292-0.0185852-0.0194044-0.0285797-0.0265913c-0.1707153-0.1220653-0.3479004-0.2000701-0.5323792-0.2340693
					c-0.1845398-0.0339439-0.3396606-0.0513582-0.4663239-0.0513582c-0.3791199,0-0.6553802,0.0568867-0.8307343,0.1688905
					c-0.1698303,0.1090186-0.3305359,0.2686768-0.483017,0.475215V3.6794868h-0.0411224v-0.033778h-1.1574707v10.0595102h0.0410767
					V13.7389975z M250.992157,8.7308302V5.861352c0-0.3322525,0.0825958-0.6049099,0.2487183-0.8206248
					c0.1652527-0.2138357,0.4094391-0.3212514,0.7316284-0.3212514c0.2375488,0,0.4217987,0.0452771,0.5576935,0.1330118
					c0.1212921,0.0934839,0.21698,0.2292042,0.2796173,0.4188261c0.0688324,0.2047138,0.1101227,0.4663143,0.1248322,0.7830319
					c0.0147095,0.3176026,0.0220032,0.7003288,0.0220032,1.149229c0,0.4984341-0.0146484,0.9151587-0.0440521,1.2520556
					c-0.0293579,0.3368406-0.08078,0.6076736-0.1532593,0.8123322c-0.0734711,0.2056541-0.176239,0.3497219-0.3075409,0.4323702
					c-0.1321716,0.0825939-0.3056488,0.1248302-0.5204315,0.1248302c-0.3194733,0-0.5500183-0.0985699-0.7071228-0.2777433
					C251.0699463,9.3421526,250.992157,9.0712643,250.992157,8.7308302z"/>
				<path class="st0" d="M257.3588562,10.9126949c0.2203064,0.0780602,0.4819031,0.1175327,0.7857361,0.1175327
					c0.2350159,0,0.4754944-0.0248222,0.719696-0.073472c0.2450562-0.0486488,0.4727173-0.1413593,0.6838379-0.2781296
					c0.2102051-0.1367712,0.3891907-0.3267794,0.5360413-0.5709105c0.1468811-0.2441864,0.2451172-0.5617886,0.2937622-0.9519224
					c0.0587158-0.5562611,0.0881348-1.1125212,0.0881348-1.6696658c0-0.2533631-0.0055237-0.5416102-0.0147095-0.863801
					c-0.0101318-0.3221912-0.0247803-0.6242037-0.0440674-0.9078069c-0.0192871-0.3020124-0.0633545-0.5829067-0.1321716-0.841743
					c-0.0688477-0.2588363-0.1808472-0.4828444-0.3377991-0.6737375c-0.0810242-0.0980725-0.1769409-0.1842036-0.2852478-0.2602735
					c-0.1122742-0.0849152-0.2365723-0.1601005-0.3800659-0.2196405c-0.2597961-0.1074154-0.5957336-0.1615379-1.0069275-0.1615379
					c-0.5480347,0-0.9840698,0.1073601-1.3071899,0.322191c-0.3230591,0.2147753-0.5534973,0.507611-0.6902771,0.8784511
					c-0.04953,0.1174769-0.0889893,0.2707777-0.1184082,0.4617262c-0.0293579,0.1900086-0.0532227,0.40202-0.0734253,0.6370292
					c-0.0192871,0.2340693-0.0339355,0.4809642-0.0440369,0.7389159c-0.0091858,0.2588363-0.0147095,0.5103755-0.0147095,0.7545614
					c0,0.1854205,0.0027466,0.3854904,0.0073547,0.6003213c0.0055237,0.2147756,0.0101013,0.4267869,0.0147095,0.6370292
					c0.0054626,0.2092476,0.017395,0.4020195,0.0366821,0.5782633c0.0202026,0.1753588,0.0440674,0.3221903,0.0734253,0.4387827
					c0.0495911,0.1762438,0.1230164,0.3497229,0.2203064,0.5204372c0.0982361,0.1707697,0.2258301,0.3194818,0.381897,0.4461355
					c0.0063171,0.0050869,0.0162964,0.0072975,0.0227356,0.0123281c0.0073547,0.0061922,0.0108337,0.0153694,0.0183411,0.02145
					C256.9494934,10.731864,257.1385498,10.8346901,257.3588562,10.9126949z M257.2587891,6.1138306
					c0.0192871-0.4333105,0.0578308-0.7178535,0.1166077-0.8546243c0.0871582-0.2239523,0.2101746-0.3790774,0.3708191-0.4671988
					c0.159729-0.0872369,0.3369141-0.1312976,0.5305786-0.1312976c0.2289734,0,0.4165955,0.0560017,0.566803,0.1624222
					c0.1392517,0.1139388,0.2442017,0.2742047,0.3081665,0.4895334c0.0284424,0.0881214,0.0504456,0.2046585,0.065155,0.3506064
					s0.0238953,0.3121295,0.0293579,0.4966097c0.0046082,0.18542,0.0091858,0.3772531,0.0147095,0.5773783
					c0.0045776,0.1991858,0.0073547,0.4011354,0.0073547,0.6058497c0,0.203774-0.0027771,0.4084325-0.0073547,0.6131468
					c-0.0055237,0.2047143-0.0147095,0.3965468-0.0293579,0.5764384c-0.0147095,0.1799469-0.0312195,0.3360119-0.0505371,0.4672546
					c-0.0201721,0.1312418-0.0394592,0.2221279-0.0586853,0.2698927c-0.0771179,0.1945972-0.1937256,0.3533707-0.3488464,0.4745512
					c-0.1551208,0.1220655-0.334137,0.1826563-0.5379028,0.1826563c-0.2451782,0-0.4449768-0.0551176-0.6029358-0.1612062
					c-0.1440125-0.1115065-0.2516479-0.2673492-0.315155-0.4769287c-0.048645-0.1652412-0.0780029-0.4011354-0.0871887-0.707736
					c-0.0101013-0.3066015-0.0147095-0.6204996-0.0147095-0.9418063
					C257.2248535,7.0555811,257.239563,6.5470858,257.2587891,6.1138306z"/>
				<path class="st0" d="M264.302063,10.9274006c0.8288574,0,1.4438782-0.1753035,1.8440857-0.5269051
					c0.400238-0.3515463,0.6003723-0.9078064,0.6003723-1.6696653c0-0.3800173-0.0559998-0.7150888-0.1680298-1.0023961
					c-0.0613403-0.1579447-0.1558838-0.2881365-0.271698-0.4004722c-0.0928345-0.0990677-0.2093506-0.178123-0.3408813-0.2448497
					c0.2383728-0.1644125,0.4141846-0.3539786,0.5244751-0.5700259c0.1119995-0.220304,0.1688843-0.5002584,0.1688843-0.8426275
					c0-0.6242037-0.1854248-1.1097565-0.5562439-1.4567695c-0.0092468-0.0086246-0.0221252-0.0142078-0.0316467-0.0226111
					c-0.0035706-0.0034275-0.0058594-0.0077949-0.009491-0.011167c-0.3717346-0.3460734-0.9518738-0.5195522-1.7431335-0.5195522
					h-1.9322205v7.2332635h0.0411377v0.0337782H264.302063z M263.6136169,7.6036043h0.7903137
					c0.4577026,0,0.7678223,0.0821509,0.9424133,0.2409797c0.1641541,0.1806102,0.246521,0.4350238,0.246521,0.7652316
					c0,0.1753578-0.0119324,0.3359556-0.0367737,0.4828434c-0.0238342,0.1459484-0.079834,0.2707777-0.1679382,0.3736048
					c-0.0881348,0.1018867-0.2102051,0.1826563-0.366272,0.2414217c-0.1560364,0.0587111-0.3662415,0.0881214-0.6296692,0.0881214
					h-0.778595V7.6036043z M265.4615479,5.6219754c0,0.3221908-0.0935669,0.5663772-0.2781067,0.7325034
					c-0.1863098,0.1661263-0.4984436,0.2487745-0.9372253,0.2487745h-0.6325989V4.7194757h0.688446
					c0.4230042,0,0.7200012,0.0764017,0.9024963,0.2214651C265.3725586,5.0967841,265.4615479,5.3211789,265.4615479,5.6219754z"/>
				<polygon class="st0" points="275.0197754,10.9274006 276.2056885,10.9274006 276.2056885,7.7210813 278.0683594,7.7210813 
					278.0683594,10.8936224 278.1094971,10.8936224 278.1094971,10.9274006 279.2954407,10.9274006 279.2954407,3.6941369 
					279.254303,3.6941369 279.254303,3.6603589 278.0683594,3.6603589 278.0683594,6.7060251 276.2056885,6.7060251 
					276.2056885,3.6941369 276.1645813,3.6941369 276.1645813,3.6603589 274.9786377,3.6603589 274.9786377,10.8936224 
					275.0197754,10.8936224 				"/>
				<polygon class="st0" points="281.5067139,10.9274006 282.6192322,10.9274006 284.7453613,6.1949863 284.7453613,10.8936224 
					284.786499,10.8936224 284.786499,10.9274006 285.9430847,10.9274006 285.9430847,3.6941369 285.901947,3.6941369 
					285.901947,3.6603589 284.7453613,3.6603589 282.6339417,8.3634176 282.6339417,3.6941369 282.592804,3.6941369 
					282.592804,3.6603589 281.4656372,3.6603589 281.4656372,10.8936224 281.5067139,10.8936224 				"/>
				<path class="st0" d="M292.1358948,9.0887346c0.0006104-0.008956,0.0027771-0.0164194,0.0033264-0.0254307l-1.1712952-0.2194195
					c-0.0192261,0.341485-0.1009216,0.6076736-0.2432251,0.7976828c-0.1431885,0.1909485-0.3570862,0.2854824-0.6416321,0.2854824
					c-0.2290955,0-0.4171753-0.0539007-0.567688-0.1570597c-0.1380615-0.1094055-0.2428284-0.2623749-0.3072815-0.4682493
					c-0.048645-0.1651869-0.079834-0.4047842-0.0945129-0.7168579c-0.0147095-0.31213-0.0220642-0.6297321-0.0220642-0.9519229
					h3.1035461V5.8467016c0-0.7031479-0.160675-1.2548194-0.4810181-1.655015
					c-0.0830994-0.1035457-0.1807861-0.1924412-0.2905273-0.2691746c-0.3185425-0.2409797-0.7535706-0.3649249-1.3119812-0.3649249
					c-0.5452576,0-0.9757385,0.1128886-1.2915344,0.3368411c-0.3157654,0.2248921-0.5424805,0.5269051-0.6783142,0.9078617
					c-0.048645,0.1266541-0.0872498,0.2854829-0.1166077,0.4763761c-0.0293274,0.1900086-0.0541687,0.3974867-0.0733948,0.6223793
					c-0.0192871,0.2239523-0.03125,0.4607859-0.0367737,0.7095609c-0.0045776,0.2487192-0.0072937,0.4956698-0.0072937,0.7398558
					c0,0.1854205,0.0027161,0.3854904,0.0072937,0.6003213c0.0055237,0.2147756,0.0128784,0.4267869,0.0220642,0.6370292
					c0.0101013,0.2092476,0.0247498,0.4020195,0.0440674,0.5782633c0.0192871,0.1753588,0.0440369,0.3221903,0.0733948,0.4387827
					c0.0386047,0.1661263,0.1037903,0.3323078,0.1965027,0.4984341c0.0926819,0.1661263,0.2165833,0.3148384,0.3717041,0.4461365
					c0.0067444,0.0056944,0.0177612,0.0082922,0.0245972,0.0139313c0.0068054,0.0059156,0.0096436,0.0139866,0.0165405,0.0198469
					c0.1560669,0.1321821,0.3460693,0.239542,0.5691528,0.3221903c0.223938,0.0825939,0.4919434,0.1248302,0.8031311,0.1248302
					c0.7004089,0,1.2227173-0.1661816,1.5687256-0.4984341c0.3451233-0.3313684,0.5370178-0.8096237,0.5755615-1.4347115
					L292.1358948,9.0887346z M290.8201599,5.0657148c0.0688782,0.127594,0.1156616,0.2763062,0.1404724,0.4470205
					c0.0247803,0.1707702,0.0367126,0.3488379,0.0367126,0.5342579v0.6149712h-1.8898621
					c0.0093079-0.3256187,0.0233459-0.6043015,0.0427856-0.829968c0.0193176-0.2340693,0.0541992-0.4194894,0.1028442-0.5562601
					c0.0889893-0.2248926,0.206543-0.3781929,0.3543091-0.4617262c0.1477661-0.082593,0.3102417-0.1238899,0.4874268-0.1238899
					c0.1899414,0,0.3439331,0.0359898,0.46521,0.1038775C290.6666565,4.8650365,290.7578735,4.9510574,290.8201599,5.0657148z"/>
				<polygon class="st0" points="213.5371399,26.5587463 213.5371399,19.3254833 213.4960022,19.3254833 213.4960022,19.2917042 
					212.3394165,19.2917042 210.2279816,23.9947643 210.2279816,19.3254833 210.1868591,19.3254833 210.1868591,19.2917042 
					209.0596313,19.2917042 209.0596313,26.5249691 209.1007538,26.5249691 209.1007538,26.5587463 210.2132874,26.5587463 
					212.3394165,21.8263321 212.3394165,26.5249691 212.3805542,26.5249691 212.3805542,26.5587463 				"/>
				<path class="st0" d="M219.9139557,21.916832c-0.0147095-0.243248-0.0348969-0.472784-0.0587769-0.6875591
					c-0.024765-0.2147751-0.0614777-0.3910179-0.1101227-0.5277901c-0.0597076-0.1560631-0.1331177-0.3047752-0.2212372-0.4461346
					s-0.1982574-0.2661896-0.3304291-0.3736057c-0.0056458-0.0045319-0.0150909-0.0063572-0.0208435-0.0108356
					c-0.0079651-0.0067444-0.0121613-0.0163631-0.0202942-0.0229416c-0.1331177-0.1073608-0.2974243-0.1927185-0.4929504-0.256073
					c-0.1964264-0.0633545-0.4313812-0.0954742-0.7058716-0.0954742c-0.1377106,0-0.328598,0.0394726-0.5737152,0.1174774
					c-0.2399292,0.0761261-0.4546051,0.2390461-0.6465454,0.4821262c0.0045929-0.468195,0.0691528-0.9071999,0.2011719-1.3120937
					c0.1367798-0.4194889,0.3754272-0.7223873,0.717804-0.9078064c0.2433014-0.1367702,0.4507294-0.2441864,0.6214447-0.3221912
					c0.1707611-0.0780602,0.3295441-0.1468868,0.4764252-0.2056541c0.1459503-0.0578251,0.2974243-0.1211243,0.4534302-0.1900082
					c0.1560669-0.0678883,0.3470154-0.1605988,0.5709686-0.2781296l-0.3947296-0.819685
					c-0.007843,0.0035934-0.0128174,0.0053062-0.0206146,0.0088444l-0.0205078-0.0426235
					c-0.2340698,0.1073608-0.4396667,0.1954823-0.614975,0.2634258c-0.176239,0.0679417-0.3424225,0.1312962-0.4984283,0.1900082
					c-0.1560669,0.0587654-0.3093719,0.1202412-0.4608459,0.1835957c-0.151413,0.0633545-0.3194275,0.1385956-0.5048523,0.226717
					c-0.3221893,0.156065-0.5920258,0.3488369-0.8096161,0.5783176c-0.2175446,0.2294807-0.3928375,0.5268497-0.5277863,0.8931007
					c-0.1349487,0.3662529-0.2340698,0.8197422-0.2964935,1.362236c-0.0624084,0.5415554-0.0945282,1.1978779-0.0945282,1.9689693
					v1.4493618c0,0.3708401,0.0073547,0.7563858,0.0220032,1.1565819c0.0147095,0.4011345,0.0514069,0.7132645,0.1101837,0.9372158
					c0.048645,0.1762428,0.1220551,0.3497219,0.2193604,0.5204926c0.09729,0.1707153,0.224884,0.3194275,0.3809509,0.4460812
					c0.0063629,0.0051403,0.0165405,0.0074635,0.022995,0.0125484c0.007309,0.0061378,0.0107269,0.0152035,0.0181427,0.0212288
					c0.1560059,0.126709,0.3441925,0.2294807,0.5636139,0.3074856c0.2193604,0.0780602,0.480957,0.1175327,0.7838593,0.1175327
					c0.2340698,0,0.4727783-0.0247669,0.7169189-0.0734711c0.2441864-0.0486488,0.4709015-0.1413593,0.681076-0.2781296
					c0.2093048-0.1367722,0.3883209-0.3267803,0.5342712-0.5709114c0.1468811-0.2441864,0.2441864-0.5617886,0.2928314-0.9519234
					c0.0293579-0.2827187,0.048645-0.5222607,0.0587006-0.7177963c0.0091858-0.1945972,0.0147095-0.4296074,0.0147095-0.7022095
					c0-0.2147751-0.0027618-0.4488449-0.0073547-0.7031479C219.9377747,22.4097366,219.9286041,22.1609612,219.9139557,21.916832z
					 M218.7455902,24.2301598c-0.024765,0.3304844-0.0624084,0.5498466-0.1110687,0.6572628
					c-0.0789337,0.1945972-0.1964111,0.355196-0.3543091,0.481905c-0.1569519,0.1257133-0.3387146,0.1890678-0.5452576,0.1890678
					c-0.2485504,0-0.4502716-0.0595951-0.6105957-0.173811c-0.1475067-0.1199646-0.2574615-0.2769127-0.3221893-0.4780884
					c-0.0486603-0.1652431-0.0780182-0.3754292-0.0871887-0.6278534c-0.0101166-0.2533627-0.0147095-0.5406704-0.0147095-0.8619213
					c0.0091858-0.583847,0.0165405-1.0528698,0.0220642-1.4081192c0.0045929-0.3561363,0.0458832-0.6260281,0.1248322-0.8105087
					c0.0881195-0.2240086,0.2165985-0.3846054,0.383667-0.4819603c0.1670685-0.0972977,0.3488312-0.1459465,0.5452576-0.1459465
					c0.2318573,0,0.421524,0.0583782,0.5736084,0.1687794c0.1423035,0.1188583,0.2490082,0.2869205,0.3141785,0.5125313
					c0.0294189,0.0881214,0.0514221,0.2120667,0.0661163,0.3726635c0.0147095,0.1606541,0.0247803,0.3304844,0.0293579,0.5113163
					c0.0055389,0.1798916,0.0101166,0.3570747,0.0156555,0.5323772c0.0045776,0.1753025,0.0072937,0.32584,0.0072937,0.452549
					C218.7823029,23.5288906,218.7694702,23.8987923,218.7455902,24.2301598z"/>
				<polygon class="st0" points="227.9751282,26.5587463 227.9751282,19.3254833 227.9340515,19.3254833 227.9340515,19.2917042 
					226.7333679,19.2917042 226.7333679,26.5249691 226.7744904,26.5249691 226.7744904,26.5587463 				"/>
				<path class="st0" d="M225.7051544,22.7420444c-0.0885773-0.1006145-0.1952057-0.1911144-0.3187714-0.2719383
					c-0.1317444-0.0921574-0.2796173-0.1751919-0.4539795-0.2428589c-0.3130188-0.1220665-0.7223969-0.1826572-1.2299957-0.1826572
					H223.1138v-2.7191067h-0.0410767v-0.0337791h-1.2006378v7.2332649h0.0410767v0.0337772h1.9037781
					c0.4681396,0,0.8536987-0.0532379,1.1565857-0.1606522c0.3020172-0.1064758,0.5416107-0.2597218,0.7169189-0.4598465
					c0.176239-0.1991863,0.2983093-0.4396687,0.3662567-0.7224426c0.0679321-0.2817783,0.1028137-0.5984421,0.1028137-0.9482193
					c0-0.2918949-0.0321655-0.5690861-0.0954742-0.831625C226.0006866,23.1725349,225.8813934,22.9421139,225.7051544,22.7420444z
					 M223.1138,23.1468296h0.6003265c0.2735291,0,0.4957123,0.0321178,0.6664276,0.0954742
					c0.085083,0.0315666,0.1603241,0.067997,0.2259521,0.1092396c0.0463867,0.0332794,0.0924377,0.0666714,0.1276398,0.1057014
					c0.0927124,0.1028271,0.1541901,0.2248917,0.183609,0.366251c0.0293427,0.1413593,0.0440521,0.2854824,0.0440521,0.4323711
					c0,0.1367702-0.0147095,0.2726021-0.0440521,0.4093723c-0.0294189,0.1367702-0.0881348,0.2616558-0.1762543,0.3736038
					c-0.0872345,0.1120052-0.2148285,0.2047138-0.3800201,0.2781315c-0.1661682,0.0734711-0.3864746,0.110178-0.6590729,0.110178
					H223.1138V23.1468296z"/>
				<path class="st0" d="M240.3469849,25.9382477c0.176239-0.1991863,0.2983093-0.4396687,0.3662415-0.7224426
					c0.0678864-0.2817783,0.1027679-0.5984421,0.1027679-0.9482193c0-0.2918949-0.0321045-0.5690861-0.0954742-0.831625
					c-0.0632935-0.2634258-0.1826477-0.4938469-0.3588867-0.6939163c-0.088562-0.1006145-0.1952057-0.1911144-0.3187714-0.2719383
					c-0.1317444-0.0921574-0.2796173-0.1751919-0.4539337-0.2428589c-0.3130035-0.1220665-0.7223816-0.1826572-1.2299957-0.1826572
					H237.77034v-2.7191067h-0.0411377v-0.0337791h-1.2006378v7.2332649h0.0411224v0.0337772h1.9037933
					c0.4681396,0,0.8536377-0.0532379,1.1565857-0.1606522C239.9320831,26.2916183,240.1716156,26.1383724,240.3469849,25.9382477z
					 M237.77034,23.1468296h0.6003113c0.2735443,0,0.4956818,0.0321178,0.6664429,0.0954742
					c0.085083,0.0315113,0.1602173,0.0679417,0.2257843,0.1091843c0.0464325,0.0332794,0.0925446,0.0667267,0.1277618,0.1057568
					c0.0926971,0.1028271,0.1542358,0.2248917,0.1835938,0.366251c0.0294037,0.1413593,0.0440521,0.2854824,0.0440521,0.4323711
					c0,0.1367702-0.0146484,0.2726021-0.0440521,0.4093723c-0.0293579,0.1367702-0.0881195,0.2616558-0.1762543,0.3736038
					c-0.0871735,0.1120052-0.2147675,0.2047138-0.3800049,0.2781315c-0.1661377,0.0734711-0.3864288,0.110178-0.6590424,0.110178
					H237.77034V23.1468296z"/>
				<path class="st0" d="M252.9243622,25.9382477c0.1762543-0.1991863,0.2983093-0.4396687,0.3662567-0.7224426
					c0.0679474-0.2817783,0.102829-0.5984421,0.102829-0.9482193c0-0.2918949-0.0321198-0.5690861-0.0954742-0.831625
					c-0.0633545-0.2634258-0.182663-0.4938469-0.358902-0.6939163c-0.088562-0.1006145-0.1952057-0.1911144-0.3187714-0.2719383
					c-0.1317291-0.0921574-0.2796173-0.1751919-0.4539795-0.2428589c-0.3130188-0.1220665-0.7223816-0.1826572-1.2299957-0.1826572
					h-0.5886078v-2.7191067h-0.0410767v-0.0337791h-1.2006378v7.2332649h0.0410767v0.0337772h1.9037933
					c0.4681396,0,0.8536835-0.0532379,1.1565857-0.1606522C252.5094604,26.2916183,252.7490692,26.1383724,252.9243622,25.9382477z
					 M250.3477173,23.1468296h0.6003876c0.2735291,0,0.4956665,0.0321178,0.6663818,0.0954742
					c0.085083,0.0315666,0.1603241,0.067997,0.2259369,0.1092396c0.0463867,0.0332794,0.0924377,0.0666714,0.127655,0.1057014
					c0.0927124,0.1028271,0.1541748,0.2248917,0.1835938,0.366251c0.0293579,0.1413593,0.0440674,0.2854824,0.0440674,0.4323711
					c0,0.1367702-0.0147095,0.2726021-0.0440674,0.4093723c-0.0294189,0.1367702-0.0881195,0.2616558-0.176239,0.3736038
					c-0.0872345,0.1120052-0.2148285,0.2047138-0.3800201,0.2781315c-0.1661835,0.0734711-0.3864899,0.110178-0.6590881,0.110178
					h-0.5886078V23.1468296z"/>
				<polygon class="st0" points="258.1804199,26.5587463 259.2652588,24.0863686 260.2771606,26.5249691 260.3041992,26.5249691 
					260.3182373,26.5587463 261.6070557,26.5587463 259.908844,22.8539925 261.5776367,19.3254833 261.5205383,19.3254833 
					261.536499,19.2917042 260.1899109,19.2917042 259.2510376,21.6457214 258.2685547,19.3254833 258.2417297,19.3254833 
					258.227417,19.2917042 256.9248962,19.2917042 258.6377258,22.8349209 256.8661194,26.5249691 256.9234619,26.5249691 
					256.9072571,26.5587463 				"/>
				<path class="st0" d="M271.0809326,24.787138c0.0293579-0.2827187,0.048645-0.5222607,0.0587158-0.7177963
					c0.0091858-0.1945972,0.0147095-0.4296074,0.0147095-0.7022095c0-0.2147751-0.0027771-0.4488449-0.0073547-0.7031479
					c-0.0054626-0.2542477-0.0146484-0.5030231-0.0293579-0.7471523c-0.0147095-0.243248-0.0348816-0.472784-0.0587769-0.6875591
					c-0.0247498-0.2147751-0.0614624-0.3910179-0.1101074-0.5277901c-0.0596619-0.1560631-0.1331177-0.3047752-0.2212524-0.4461346
					c-0.0881042-0.1413593-0.1982422-0.2661896-0.3304138-0.3736057c-0.0056458-0.0045319-0.0151062-0.0063572-0.0208435-0.0108356
					c-0.0079651-0.0067444-0.0121765-0.0163631-0.0202942-0.0229416c-0.1331177-0.1073608-0.2974243-0.1927185-0.4929199-0.256073
					c-0.1964722-0.0633545-0.431427-0.0954742-0.7059021-0.0954742c-0.1376953,0-0.3286133,0.0394726-0.5736694,0.1174774
					c-0.2399902,0.0761261-0.4545898,0.2391567-0.6465454,0.4820709c0.0046082-0.4682503,0.0691223-0.9071999,0.2011414-1.3120384
					c0.1367493-0.4194889,0.3754272-0.7223873,0.7178345-0.9078064c0.2432556-0.1367702,0.4506836-0.2441864,0.6214294-0.3221912
					c0.1707153-0.0780602,0.3294983-0.1468868,0.4763794-0.2056541c0.1459656-0.0578251,0.2974243-0.1211243,0.4534302-0.1900082
					c0.1560669-0.0678883,0.3470154-0.1605988,0.5709839-0.2781296l-0.3947144-0.819685
					c-0.0078735,0.0035934-0.0128479,0.0052509-0.0205688,0.0087891l-0.0205078-0.0425682
					c-0.2341309,0.1073608-0.4397278,0.1954823-0.6150513,0.2634258c-0.176239,0.0679417-0.3423462,0.1312962-0.4984131,0.1900082
					c-0.1560669,0.0587654-0.3093872,0.1202412-0.4607849,0.1835957c-0.1514893,0.0633545-0.3194885,0.1385956-0.5049133,0.226717
					c-0.3221741,0.156065-0.592041,0.3488369-0.8095703,0.5783176c-0.2175903,0.2294807-0.3928833,0.5268497-0.527832,0.8931007
					c-0.1348877,0.3662529-0.2340698,0.8197422-0.2964783,1.362236c-0.062439,0.5415554-0.0945435,1.1978779-0.0945435,1.9689693
					v1.4493618c0,0.3708401,0.0073547,0.7563858,0.0220032,1.1565819c0.0147095,0.4011345,0.0514221,0.7132645,0.1101685,0.9372158
					c0.048645,0.1762428,0.1220703,0.3497219,0.2193604,0.5204926c0.0973206,0.1707153,0.2249146,0.3194275,0.3809814,0.4460812
					c0.0063477,0.0051403,0.01651,0.0074635,0.0229797,0.0125484c0.0072937,0.0061378,0.0107422,0.0152035,0.0181274,0.0212288
					c0.1560669,0.126709,0.3442078,0.2294807,0.5636292,0.3074856c0.2193604,0.0780602,0.480957,0.1175327,0.783905,0.1175327
					c0.2340698,0,0.4727173-0.0247669,0.7168579-0.0734711c0.2442017-0.0486488,0.4709167-0.1413593,0.6811523-0.2781296
					c0.209259-0.1367722,0.3882446-0.3267803,0.5342102-0.5709114
					C270.9349976,25.494875,271.0322876,25.1772728,271.0809326,24.787138z M269.9492798,24.2301598
					c-0.0247498,0.3304844-0.0624084,0.5498466-0.1110535,0.6572628c-0.078949,0.1945972-0.1964111,0.355196-0.3543091,0.481905
					c-0.1569519,0.1257133-0.3387146,0.1890678-0.5452576,0.1890678c-0.2485657,0-0.4501648-0.0597057-0.6105042-0.1737556
					c-0.147644-0.1199646-0.2575073-0.2769127-0.3222961-0.4781437c-0.048645-0.1652431-0.0780029-0.3754292-0.0871887-0.6278534
					c-0.0101013-0.2533627-0.014679-0.5406704-0.014679-0.8619213c0.0091553-0.583847,0.01651-1.0528698,0.0220337-1.4081192
					c0.0046082-0.3561363,0.0458984-0.6260281,0.1248474-0.8105087c0.0881042-0.2240086,0.2165833-0.3846054,0.383667-0.4819603
					c0.1670532-0.0972977,0.3488159-0.1459465,0.5452576-0.1459465c0.231842,0,0.4215393,0.0583782,0.5736084,0.1687794
					c0.1423035,0.1188583,0.2489929,0.2869205,0.3142395,0.5125313c0.0293579,0.0881214,0.0513611,0.2120667,0.0660706,0.3726635
					c0.014679,0.1606541,0.0247498,0.3304844,0.0293274,0.5113163c0.0055542,0.1798916,0.0101318,0.3570747,0.0156555,0.5323772
					c0.0046082,0.1753025,0.0072937,0.32584,0.0072937,0.452549
					C269.9859924,23.5288906,269.973175,23.8987923,269.9492798,24.2301598z"/>
				<polygon class="st0" points="277.5669861,26.5587463 277.5669861,19.3254833 277.5258789,19.3254833 277.5258789,19.2917042 
					276.3692932,19.2917042 274.257843,23.9947643 274.257843,19.3254833 274.2167053,19.3254833 274.2167053,19.2917042 
					273.0895386,19.2917042 273.0895386,26.5249691 273.1306763,26.5249691 273.1306763,26.5587463 274.2431946,26.5587463 
					276.3692932,21.8263321 276.3692932,26.5249691 276.4104004,26.5249691 276.4104004,26.5587463 				"/>
				<path class="st0" d="M283.3728333,25.5040531c0.1221313-0.2726021,0.1827087-0.6140881,0.1827087-1.0244007
					c0-0.3809566-0.0440369-0.7251492-0.1312866-1.03269c-0.0476074-0.1660709-0.1375427-0.2972584-0.2561646-0.4048405
					c-0.0962219-0.0989017-0.2239685-0.171875-0.3735046-0.2273254v-0.0195141
					c0.1459351-0.057827,0.2680054-0.1413593,0.3662415-0.2487755c0.09729-0.1074142,0.1753235-0.2285404,0.2340698-0.366251
					c0.0587769-0.1358318,0.1000671-0.2873077,0.1239014-0.453434c0.0248108-0.1661816,0.0367432-0.3314228,0.0367432-0.4975491
					c0-0.6737366-0.1881714-1.1712856-0.5635986-1.4934769c-0.0084534-0.0072422-0.0192871-0.0119419-0.0279236-0.0190735
					c-0.0049744-0.0043678-0.0081787-0.0103931-0.0132141-0.0147057c-0.3754272-0.3221912-0.9005127-0.4837284-1.5742493-0.4837284
					c-0.5856018,0-1.0638733,0.156065-1.4346924,0.4681396c-0.3708496,0.3111897-0.5810852,0.760973-0.6297302,1.3475285
					l0.0450439,0.0096207c-0.0007629,0.0085125-0.0032043,0.0155888-0.0039368,0.0241585l1.0987549,0.2340698
					c0.0386047-0.6535587,0.3607788-0.9803391,0.9656982-0.9803391c0.3115234,0,0.5358582,0.0881767,0.688385,0.2496033
					c0.1475525,0.1833191,0.2223511,0.4132423,0.2223511,0.6905441c0,0.3294888-0.0587158,0.581028-0.175293,0.7554455
					c-0.1174927,0.1743641-0.3175964,0.2616005-0.6003418,0.2616005h-0.6737366v1.0106335h0.0410767v0.0337791h0.6444092
					c0.147583,0,0.271759,0.0273647,0.3754272,0.078722c0.0857849,0.0527401,0.1622009,0.1164818,0.2131653,0.2096901
					c0.1165771,0.2147751,0.175293,0.4883175,0.175293,0.819685c0,0.4296074-0.1046448,0.7252064-0.3148193,0.8858051
					c-0.2102051,0.1606522-0.4414978,0.2414207-0.6948853,0.2414207c-0.2962341,0-0.5188293-0.0754051-0.6785278-0.2152729
					c-0.1542358-0.1568947-0.2427673-0.4039001-0.2615967-0.7468777l-0.0340576,0.0053082
					c-0.0010986-0.014761-0.0062561-0.0239372-0.0070801-0.0390854l-1.1272278,0.1762428
					c0.0578308,0.6535587,0.272644,1.1271706,0.6434937,1.4200058c0.0067444,0.0053082,0.0148621,0.008791,0.0216675,0.0139866
					c0.0071411,0.0058613,0.0122375,0.0140972,0.0194702,0.0197926c0.3708496,0.2928352,0.8499756,0.4396667,1.4356079,0.4396667
					c0.2928162,0,0.5727844-0.0367069,0.8417358-0.1101227c0.2680664-0.0734177,0.5048828-0.1927738,0.7104797-0.3589001
					C283.0874329,25.9978981,283.2507935,25.7775936,283.3728333,25.5040531z"/>
				<path class="st0" d="M295.449646,19.5539684c-0.3185425-0.2410355-0.7536316-0.365036-1.3121033-0.365036
					c-0.5452576,0-0.9757385,0.1128883-1.2915344,0.3368416c-0.3157043,0.2248917-0.5424805,0.5269051-0.6783142,0.9078617
					c-0.048645,0.1266537-0.0871887,0.2854824-0.1165771,0.4763756c-0.0293579,0.1900101-0.0541382,0.3974876-0.0734253,0.6223793
					c-0.0192871,0.2239532-0.03125,0.4607868-0.0367126,0.7095623c-0.0045776,0.2487183-0.0073547,0.4956684-0.0073547,0.7398548
					c0,0.185421,0.0027771,0.3854904,0.0073547,0.6003208c0.0054626,0.214777,0.0128174,0.4267883,0.0220032,0.6370296
					c0.0101318,0.2093029,0.0248108,0.4020195,0.0440674,0.5782642c0.0192871,0.1753578,0.0440674,0.3221893,0.0734558,0.4387817
					c0.0385437,0.1661263,0.1037292,0.3323078,0.1964417,0.4984341s0.2165833,0.3148384,0.3717041,0.4461365
					c0.0067444,0.0056934,0.0177612,0.0082932,0.0245972,0.0139313c0.0068054,0.0059147,0.0096436,0.0139866,0.0165405,0.0198479
					c0.1560669,0.1321812,0.3460693,0.239542,0.5691528,0.3221893c0.223938,0.0825939,0.4920044,0.1248302,0.8031616,0.1248302
					c0.7003784,0,1.2226868-0.1661816,1.5687561-0.4984341c0.3451233-0.3313675,0.5369568-0.8096237,0.5755005-1.4347115
					l-0.0444336-0.0083485c0.0005798-0.008955,0.0027466-0.0164185,0.0032959-0.0254288l-1.1712341-0.2194195
					c-0.0192871,0.3414841-0.1009827,0.6076736-0.2432251,0.7976818c-0.1432495,0.1909485-0.3570862,0.2854824-0.6416931,0.2854824
					c-0.2290955,0-0.4171448-0.0539017-0.567688-0.1570587c-0.1380615-0.1094055-0.2427979-0.2623749-0.3072815-0.4682503
					c-0.048645-0.1651859-0.079834-0.4047832-0.0945129-0.7168579c-0.0146484-0.31213-0.0220032-0.6297321-0.0220032-0.9519234
					h3.1034851v-1.7862568c0-0.7031479-0.1606445-1.2548199-0.4810181-1.6550159
					C295.6569519,19.7195415,295.5593262,19.6307011,295.449646,19.5539684z M294.8461609,20.6970615
					c0.0688782,0.127594,0.1157227,0.2763062,0.1404724,0.4470196c0.0247803,0.1707706,0.0367126,0.3488388,0.0367126,0.5342579
					v0.6150265h-1.8898621c0.0093079-0.3255634,0.0233459-0.6043015,0.0427856-0.8300228
					c0.0193176-0.2340698,0.0541992-0.4194889,0.1028442-0.5562611c0.0890503-0.2248917,0.206543-0.3781929,0.3543091-0.4617252
					c0.1477661-0.0825939,0.3102417-0.1238899,0.4874268-0.1238899c0.1899719,0,0.3439331,0.0359898,0.46521,0.103878
					C294.6926575,20.4963818,294.7838745,20.5824032,294.8461609,20.6970615z"/>
				<path class="st0" d="M299.4118042,20.8887272c0.0871582-0.2230663,0.2000732-0.3781929,0.3405457-0.465374
					c0.1404114-0.0881214,0.3074646-0.1312981,0.5020752-0.1312981c0.1303101,0,0.2470703,0.0243244,0.3499451,0.0730305
					c0.0834656,0.0476532,0.1624756,0.1032677,0.225769,0.1860275c0.1505432,0.1955376,0.2258301,0.5121994,0.2258301,0.9518681
					l0.037262-0.0050316c0.0001831,0.014761,0.0038757,0.0238266,0.0038757,0.0388641l1.2006531-0.1615925
					c0-0.6535587-0.1542664-1.1758747-0.461731-1.5668945c-0.0796814-0.1010571-0.1745911-0.1877422-0.282074-0.2626514
					c-0.310791-0.2353954-0.7429504-0.3567429-1.3039551-0.3567429c-0.5470886,0-0.9757385,0.1073608-1.2887573,0.3221912
					c-0.3120728,0.2147751-0.5369873,0.5076122-0.6727905,0.8784523c-0.0495911,0.1174755-0.0881348,0.2707767-0.1175537,0.4617252
					c-0.0293579,0.1900082-0.0513916,0.4020195-0.06604,0.6370296c-0.0147095,0.2340698-0.0266724,0.4809647-0.0367126,0.7389164
					c-0.0091858,0.2588348-0.0147095,0.5103741-0.0147095,0.7545605c0,0.185421,0.0027466,0.3854904,0.0073547,0.6003208
					c0.0054626,0.214777,0.0100403,0.4267883,0.0146484,0.6370296c0.0055237,0.2093029,0.0174561,0.4020195,0.0367432,0.5782642
					c0.0192566,0.1753578,0.0440674,0.3221893,0.0734253,0.4387817c0.048645,0.1762428,0.1192932,0.3497219,0.2120056,0.5204926
					c0.0927124,0.1707153,0.2175903,0.3194275,0.3736267,0.4460812c0.0065002,0.0053062,0.0169678,0.0076294,0.0236511,0.0128803
					c0.0071716,0.0060272,0.0101624,0.0149822,0.0174561,0.0208969c0.1560669,0.126709,0.3442688,0.2294807,0.5636292,0.3074856
					c0.2193604,0.0780602,0.4810181,0.1175327,0.783905,0.1175327c0.7214966,0,1.2511292-0.1780682,1.5880127-0.5351429
					c0.3369141-0.3561897,0.5149841-0.8656254,0.5351563-1.5301857l-0.0436401-0.0075169
					c0.0003357-0.0092335,0.0022278-0.0169735,0.0025024-0.0262604l-1.1859436-0.2047138
					c0,0.3708401-0.0661011,0.6636753-0.1964111,0.8784504c-0.1313171,0.214777-0.3460693,0.3221912-0.6462708,0.3221912
					c-0.2400208,0-0.4265137-0.0589314-0.5653687-0.1693878c-0.1299744-0.1194668-0.2294312-0.2774105-0.2939453-0.4806881
					c-0.048645-0.1652412-0.078064-0.4001961-0.0872498-0.7067966c-0.0100403-0.3056602-0.0146484-0.6186752-0.0146484-0.9390411
					c0.0091858-0.5828514,0.0238342-1.0868149,0.0431213-1.5145969
					C299.3144836,21.3210983,299.3530273,21.0346756,299.4118042,20.8887272z"/>
				<path class="st0" d="M308.2275391,21.3458652c-0.0192871-0.3020115-0.0633545-0.5829067-0.1321716-0.8417435
					c-0.0688782-0.2588348-0.1808472-0.4828434-0.3378296-0.6737366c-0.0810547-0.0981274-0.1770325-0.1842594-0.2854004-0.2603283
					c-0.1122742-0.0848598-0.2364807-0.1600456-0.3798828-0.2195854c-0.2597961-0.1074162-0.5957336-0.1615391-1.0069885-0.1615391
					c-0.5479736,0-0.9839783,0.1073608-1.3071289,0.3221912c-0.3231201,0.2147751-0.5534973,0.5076122-0.6902466,0.8784523
					c-0.0495911,0.1174755-0.0890808,0.2707767-0.1184387,0.4617252c-0.0293579,0.1900082-0.0532227,0.4020195-0.0733948,0.6370296
					c-0.0193176,0.2340698-0.0340271,0.4809647-0.0440674,0.7389164c-0.0091858,0.2588348-0.0147095,0.5103741-0.0147095,0.7545605
					c0,0.185421,0.0027466,0.3854904,0.0073547,0.6003208c0.0054626,0.214777,0.0100708,0.4267883,0.0146484,0.6370296
					c0.0055237,0.2093029,0.0174561,0.4020195,0.0367737,0.5782642c0.0201721,0.1753578,0.0440369,0.3221893,0.0733948,0.4387817
					c0.0495911,0.1762428,0.1230164,0.3497219,0.2203064,0.5204926c0.0982361,0.1707153,0.2258301,0.3194275,0.3818359,0.4460812
					c0.0063171,0.005085,0.0164185,0.0073528,0.0228271,0.0123825c0.0073547,0.0061932,0.0108643,0.0153141,0.0183105,0.0213947
					c0.1569519,0.126709,0.3460693,0.2294807,0.5663757,0.3074856c0.2203064,0.0780602,0.4819031,0.1175327,0.7857361,0.1175327
					c0.2349548,0,0.4754944-0.0247669,0.719635-0.0734711c0.2451172-0.0486488,0.4727173-0.1413593,0.6838379-0.2781296
					c0.2102661-0.1367722,0.3892212-0.3267803,0.5361023-0.5709114c0.1468811-0.2441864,0.2450562-0.5617886,0.2937012-0.9519234
					c0.0587769-0.5562592,0.0881348-1.1125202,0.0881348-1.6696644c0-0.2533627-0.0054626-0.5416107-0.0146484-0.863802
					C308.2614746,21.9314804,308.2467957,21.6295242,308.2275391,21.3458652z M305.0790405,21.7451763
					c0.0193176-0.4332542,0.0578308-0.7178535,0.1166077-0.8546238c0.0871887-0.2239532,0.2101746-0.3790779,0.3708191-0.4671993
					c0.159729-0.0872364,0.336853-0.1312981,0.5305786-0.1312981c0.2289124,0,0.4165039,0.0559464,0.5667114,0.1623669
					c0.1393127,0.113884,0.2442322,0.2742062,0.3082581,0.4895897c0.0284119,0.0881214,0.0504761,0.2046585,0.065155,0.3506069
					c0.0146484,0.1459465,0.0238342,0.3121281,0.0293579,0.4966087c0.0046082,0.185421,0.0091858,0.3772526,0.0147095,0.5773792
					c0.0046082,0.1991844,0.0072937,0.4011345,0.0072937,0.6058483c0,0.2037754-0.0026855,0.4084892-0.0072937,0.6131477
					c-0.0055237,0.2047138-0.0147095,0.3965473-0.0294189,0.5764942c-0.0146484,0.1798916-0.0311584,0.3359566-0.0504456,0.4671993
					c-0.0202026,0.1312408-0.0394897,0.2221279-0.0587769,0.2698917c-0.0770569,0.1945972-0.1936646,0.3533707-0.3487854,0.4745522
					c-0.1551208,0.1220646-0.334137,0.1826553-0.5379028,0.1826553c-0.2452393,0-0.4450378-0.0551167-0.6029663-0.1612053
					c-0.1440125-0.1115074-0.2516174-0.2673512-0.3151245-0.4769287c-0.048645-0.1652412-0.078064-0.4011364-0.0872498-0.707737
					c-0.0100403-0.3065453-0.0146484-0.6204987-0.0146484-0.9417515
					C305.045105,22.6869278,305.0597534,22.1784325,305.0790405,21.7451763z"/>
				<path class="st0" d="M314.3996582,23.3597794c-0.0613708-0.1579437-0.1559143-0.2881355-0.2717285-0.4004707
					c-0.0928345-0.0990677-0.2093506-0.1781235-0.3408203-0.2448502c0.2383728-0.1644135,0.4141846-0.3539791,0.5244141-0.5700264
					c0.1119995-0.2203026,0.1688843-0.5002575,0.1688843-0.8426266c0-0.6242046-0.1854248-1.1097565-0.5562439-1.4567699
					c-0.0091858-0.0085697-0.0220032-0.0141525-0.0314636-0.022501c-0.0036011-0.0034275-0.0059814-0.0078506-0.009613-0.0112782
					c-0.3717957-0.3460178-0.9519348-0.5195522-1.7431946-0.5195522h-1.9322205v7.2332649h0.0411377v0.0337772h1.8743896
					c0.8289185,0,1.4438782-0.1753025,1.8441162-0.5269051c0.4002075-0.3515453,0.6003418-0.9078064,0.6003418-1.6696644
					C314.5676575,23.9821587,314.5116577,23.6470871,314.3996582,23.3597794z M313.2827148,21.2533207
					c0,0.3221912-0.0935974,0.5663776-0.2781372,0.7325039c-0.1863098,0.1661816-0.4984436,0.2487755-0.9371643,0.2487755
					h-0.6326599v-1.8837776h0.688446c0.4230042,0,0.7200012,0.0764008,0.9025574,0.2214642
					C313.1937561,20.7281303,313.2827148,20.9525242,313.2827148,21.2533207z M311.4347534,23.234951h0.7903137
					c0.4577637,0,0.7678528,0.0821495,0.9424133,0.2409782c0.1641541,0.1806107,0.246521,0.4350243,0.246521,0.7652321
					c0,0.1753578-0.0119324,0.3359566-0.0367126,0.4828434c-0.0238953,0.1459484-0.079895,0.2707787-0.1679993,0.3736057
					c-0.0881348,0.1018867-0.2102051,0.1826553-0.366272,0.2414207c-0.1560364,0.058712-0.3662415,0.0881214-0.6296692,0.0881214
					h-0.778595V23.234951z"/>
				<path class="st0" d="M207.0652924,36.9762726c-0.0197449-0.30196-0.063797-0.5828514-0.1321869-0.8417435
					c-0.0688324-0.2588387-0.1812744-0.4827881-0.3377838-0.6737366c-0.0810394-0.0980721-0.1769104-0.1842041-0.285202-0.2602768
					c-0.1122894-0.0849152-0.236618-0.160099-0.3805695-0.2196388c-0.2597809-0.1073608-0.5948486-0.1615372-1.006546-0.1615372
					c-0.5484619,0-0.984436,0.1074142-1.3071136,0.3221893c-0.3235779,0.2148323-0.5534973,0.5076141-0.6907196,0.8784523
					c-0.0491333,0.1175308-0.0881195,0.2707787-0.1175232,0.4617271c-0.0293579,0.1900063-0.0541229,0.4020729-0.0738678,0.6370277
					c-0.0192871,0.2340698-0.0339966,0.4810219-0.0436096,0.7389717c-0.0101166,0.2588348-0.0147095,0.5103188-0.0147095,0.7545052
					c0,0.185421,0.0023193,0.3855476,0.0073547,0.6003227c0.0045929,0.2147751,0.0096741,0.4268417,0.0147095,0.6370277
					c0.0045776,0.2093048,0.0169678,0.4020767,0.0362549,0.5783195c0.0197449,0.1753044,0.0445099,0.3221893,0.0738678,0.4387817
					c0.0491486,0.1762428,0.1225586,0.3497238,0.2203064,0.5204391c0.0977936,0.1707153,0.224884,0.3194275,0.381897,0.4461365
					c0.0063019,0.005085,0.0162964,0.0073509,0.0227203,0.0123825c0.0074005,0.0061913,0.0108337,0.0153122,0.0183563,0.0213928
					c0.1564941,0.1266556,0.3451843,0.2294807,0.5659332,0.3074875c0.2202911,0.0780029,0.4823456,0.1174774,0.7857361,0.1174774
					c0.2350159,0,0.4749908-0.0247688,0.7201233-0.0734177c0.2446289-0.0486488,0.4727173-0.1413574,0.6829071-0.2781296
					c0.2106934-0.1367722,0.3896942-0.3267784,0.5365295-0.5709648c0.1468811-0.244133,0.2451172-0.5617332,0.2937775-0.95187
					c0.0587006-0.5562592,0.0881195-1.1125183,0.0881195-1.6697197c0-0.2533646-0.0050812-0.5415535-0.0147095-0.8637466
					C207.0992279,37.5619431,207.0845795,37.2599297,207.0652924,36.9762726z M203.9167938,37.3755836
					c0.0192871-0.4332542,0.0582733-0.7178001,0.1165924-0.8545685c0.0871735-0.2240105,0.2106323-0.3791351,0.3703461-0.4672546
					c0.160202-0.0871811,0.3368988-0.1312447,0.5310516-0.1312447c0.2291412,0,0.4166718,0.0560036,0.5668182,0.1623688
					c0.1392517,0.113884,0.2441254,0.2741508,0.3081512,0.4895325c0.0289001,0.0881233,0.0504608,0.2047157,0.0651703,0.3506622
					c0.0146484,0.1459465,0.0243225,0.3120728,0.0289154,0.4966087c0.0050354,0.185421,0.009613,0.3772545,0.0146484,0.5773811
					c0.0050812,0.1991844,0.0073547,0.4011345,0.0073547,0.605793c0,0.2037735-0.0022736,0.4084892-0.0073547,0.6132011
					c-0.0050354,0.2046585-0.0146484,0.3965492-0.0289154,0.5764389c-0.0146484,0.1798935-0.0316162,0.3359566-0.0509186,0.4671974
					c-0.0192871,0.1312981-0.0385284,0.222187-0.0578156,0.2698936c-0.078064,0.1945992-0.1941528,0.3534279-0.3492889,0.4745522
					c-0.1551208,0.1221199-0.3341217,0.1827126-0.5374603,0.1827126c-0.2454529,0-0.4453583-0.055172-0.603363-0.1612625
					c-0.1440582-0.1115608-0.2516479-0.2673492-0.3151703-0.4769287c-0.048645-0.1651878-0.078064-0.4011345-0.087677-0.7076797
					c-0.009613-0.3066025-0.0147095-0.6205559-0.0147095-0.9418068
					C203.882843,38.3173904,203.8974915,37.8088379,203.9167938,37.3755836z"/>
				<path class="st0" d="M218.4425354,37.3425217c-0.0101166-0.2046585-0.0266571-0.395607-0.0514221-0.5709076
					c-0.02388-0.1753578-0.0505219-0.3221931-0.0798798-0.439724c-0.1367798-0.4488449-0.3763123-0.7995071-0.717804-1.0537529
					c-0.006073-0.0045357-0.0141449-0.0076294-0.02034-0.0121078c-0.0080109-0.0061913-0.0126648-0.0155907-0.0207825-0.0216713
					c-0.3337555-0.2485008-0.8144989-0.3874245-1.4376526-0.4211502v-2.6788597h-0.0411224V32.110569h-1.1419373v2.7087708
					c-0.5856171,0.0294113-1.0445709,0.1569481-1.3768768,0.3809586c-0.3313751,0.2248917-0.5709076,0.5323753-0.7168579,0.9225121
					c-0.127594,0.3221893-0.2001343,0.6957932-0.2203064,1.119873c-0.0193024,0.4249611-0.0294189,0.8812141-0.0294189,1.3695297
					c0,0.5269051,0.0147095,1.0152245,0.0440674,1.4640694c0.0294037,0.4488983,0.1321869,0.834446,0.3075409,1.1566353
					c0.0845337,0.1586075,0.1973572,0.2959862,0.3293152,0.4188805c0.1200867,0.1191902,0.2600098,0.2234573,0.4222565,0.3106384
					c0.3078156,0.1660156,0.7294617,0.2714958,1.2549896,0.3228531v2.6963882h0.0411377v0.0337753h1.1272125v-2.7234726
					c0.9169922-0.1266556,1.5374908-0.4103127,1.8596802-0.8499832c0.2433014-0.3313675,0.3873749-0.7389145,0.431427-1.2217598
					c0.0440674-0.4837265,0.0661163-1.0078697,0.0661163-1.5742455c0-0.2147751-0.0027618-0.4341965-0.0073395-0.6590881
					C218.4599457,37.7620125,218.4525909,37.5472374,218.4425354,37.3425217z M217.1860504,36.6350098
					c0.0293579,0.0789413,0.0514069,0.1927719,0.0660706,0.3441925c0.0146942,0.151474,0.02388,0.3277168,0.0294037,0.5269051
					c0.0045929,0.2001228,0.0091705,0.4176636,0.0146484,0.6517334c0.0045929,0.2340698,0.0073547,0.4690781,0.0073547,0.7031479
					c0,0.3414307-0.0073547,0.6682091-0.0220032,0.9812241c-0.0147095,0.31213-0.0707092,0.5663757-0.1688843,0.7609749
					c-0.1800079,0.3412628-0.5144196,0.5323753-0.9979858,0.5788155v-5.2154236
					c0.2994232,0.0282478,0.5393982,0.0966339,0.7189026,0.2024994
					C216.9931641,36.2765503,217.1140747,36.4283028,217.1860504,36.6350098z M213.9309235,40.6516685
					c-0.0284729-0.0679436-0.0532379-0.1680031-0.0725403-0.3001862c-0.0192871-0.1312447-0.0339355-0.2781296-0.0431213-0.4387283
					c-0.0091705-0.1615944-0.0165253-0.3295441-0.022049-0.5057869c-0.0045929-0.1753578-0.006424-0.3460732-0.006424-0.5121994
					c0-0.2340698,0.0018311-0.4690781,0.006424-0.7031479c0.0055237-0.2340698,0.0128784-0.453434,0.022049-0.6590881
					c0.0091858-0.2046585,0.0238342-0.3854904,0.0431213-0.5415535c0.0193024-0.1560669,0.0440674-0.2781296,0.0725403-0.3662529
					c0.0770569-0.2047157,0.2046509-0.3580132,0.3836517-0.4607849c0.1679077-0.0969124,0.3756561-0.1583328,0.6169128-0.1892357
					l-0.0145416,5.2141533c-0.3756409-0.0416298-0.6520691-0.1524734-0.8390808-0.3260078
					C214.0180359,40.8000488,213.9684601,40.7301178,213.9309235,40.6516685z"/>
				<path class="st0" d="M224.5329285,36.6247253c-0.0477142-0.4001961-0.1404266-0.7169151-0.2763062-0.9509811
					c-0.1367798-0.2349548-0.2891388-0.4130783-0.4589691-0.5351448c-0.0040894-0.0029297-0.0084534-0.0043678-0.0125427-0.0072403
					c-0.009903-0.007576-0.0185242-0.0193481-0.0285339-0.026535c-0.1707611-0.1220665-0.3479004-0.2001266-0.5324249-0.2340698
					c-0.184494-0.033947-0.3396149-0.0514145-0.4663239-0.0514145c-0.3790741,0-0.6553802,0.056942-0.8306885,0.1688919
					c-0.1698303,0.1090736-0.3305359,0.2687302-0.4830017,0.4752693v-0.5222626h-0.0411377v-0.0337791h-1.1575165v10.0595665
					h0.0411224v0.0337791h1.1575317v-3.338501h0.0174103c0.068222,0.0915489,0.1435699,0.1730919,0.2273865,0.2427483
					c0.0890503,0.0802727,0.1860199,0.1493187,0.2939911,0.203331c0.2037811,0.102829,0.4470215,0.1542397,0.7288513,0.1542397
					c0.4571381,0,0.8114471-0.1000595,1.0638733-0.3001862c0.2524261-0.2000694,0.4396667-0.4708481,0.5608521-0.8132744
					c0.1211853-0.3414268,0.1945953-0.7435036,0.2184753-1.2079926c0.024765-0.4635506,0.0367126-0.9582825,0.0367126-1.4861259
					c0-0.2827187-0.0027618-0.5856171-0.0073547-0.9078064S224.5623322,36.9175606,224.5329285,36.6247253z M221.4294281,39.9925842
					v-2.8694267c0-0.3323059,0.0825958-0.604908,0.2487793-0.8206215c0.1651764-0.2138939,0.4093628-0.3212509,0.7315521-0.3212509
					c0.2376099,0,0.421875,0.0452766,0.5577545,0.1330109c0.1212921,0.093483,0.2169342,0.2292023,0.2795715,0.4188232
					c0.0688782,0.2047157,0.1101837,0.4663162,0.1248932,0.7829781c0.0146484,0.3176041,0.0220032,0.700386,0.0220032,1.149231
					c0,0.4984322-0.0147095,0.9152145-0.0440674,1.2520523c-0.0293579,0.3368988-0.0807648,0.6076736-0.1533051,0.8123894
					c-0.07341,0.2055969-0.176239,0.3497238-0.3074799,0.4323158c-0.1321869,0.0826492-0.3056641,0.1248856-0.5204926,0.1248856
					c-0.3194275,0-0.5499573-0.0985718-0.7071228-0.2777977C221.5072174,40.6039619,221.4294281,40.3330154,221.4294281,39.9925842z
					"/>
				<path class="st0" d="M230.1216736,35.2821693c-0.005249-0.0045319-0.0086823-0.0113869-0.0139923-0.0158081
					c-0.3570709-0.2973709-0.8619232-0.4470215-1.5154724-0.4470215c-0.5562592,0-1.0152283,0.1367722-1.3760071,0.4103127
					c-0.3616638,0.2735405-0.5957336,0.6489716-0.7030945,1.127224l0.0491028,0.0137672
					c-0.00177,0.0074081-0.0063629,0.0125504-0.0080261,0.0200119l1.0987549,0.3074875
					c0.0486603-0.2634277,0.1652527-0.453434,0.3506622-0.5709114c0.1854248-0.1175308,0.3763733-0.1753578,0.5718536-0.1753578
					c0.3477325,0,0.5800323,0.0794945,0.717804,0.2254982c0.1274261,0.1651878,0.1920471,0.384716,0.1920471,0.6632347v0.9656868
					h-1.1418762c-0.4001923,0-0.7269745,0.0715942-0.9812775,0.2129517
					c-0.2533112,0.1413612-0.4534302,0.3240166-0.6003265,0.5489082c-0.1459351,0.2248917-0.2487183,0.4736671-0.3074799,0.7462692
					c-0.0578308,0.2735405-0.0872345,0.5470848-0.0872345,0.8206253c0,0.2634239,0.0266418,0.5195503,0.0798798,0.7683258
					c0.054184,0.2487183,0.1413574,0.4736137,0.2643738,0.6737366c0.0686493,0.1133308,0.1546783,0.2106857,0.2504883,0.2988625
					c0.0830841,0.0824814,0.1763458,0.1554565,0.280777,0.217762c0.2047119,0.1220665,0.4589691,0.1835938,0.7609711,0.1835938
					c0.3130188,0,0.5929718-0.0541763,0.8426819-0.1615906c0.2381592-0.102829,0.4504547-0.281723,0.6390228-0.5277367v0.5674286
					h0.0411377v0.0337791h1.1575165v-5.3294754c0-0.7416801-0.1790009-1.2621727-0.535141-1.559597
					C230.1406403,35.2932816,230.1300201,35.2888603,230.1216736,35.2821693z M227.5354614,40.0954094
					c0-0.4690781,0.1147766-0.7930946,0.3442535-0.9739265s0.4947357-0.2707748,0.7976227-0.2707748h0.8079681v1.1080971
					c0,0.3616638-0.0899506,0.6443825-0.2707825,0.8490944c-0.1808319,0.2056007-0.4515991,0.3074875-0.8123322,0.3074875
					c-0.2919922,0-0.5033417-0.0861893-0.6505737-0.2434692C227.608551,40.6921921,227.5354614,40.4335213,227.5354614,40.0954094z"
					/>
				<path class="st0" d="M248.8629303,35.2822266c-0.0052643-0.0045319-0.0086823-0.0114441-0.0139923-0.0158653
					c-0.3570709-0.2973709-0.8619232-0.4470215-1.5154877-0.4470215c-0.5562592,0-1.015213,0.1367722-1.3759308,0.4103127
					c-0.3616638,0.2735405-0.5957336,0.6489716-0.7031555,1.127224l0.0491486,0.0137672
					c-0.00177,0.0074081-0.0063629,0.0125504-0.0080109,0.0200119l1.0987549,0.3074875
					c0.048645-0.2634277,0.1652374-0.453434,0.3506622-0.5709114c0.1854095-0.1175308,0.3763123-0.1753578,0.5718384-0.1753578
					c0.3477325,0,0.5800323,0.0794945,0.717804,0.2254982c0.1274261,0.1651878,0.1920471,0.384716,0.1920471,0.6632347v0.9656868
					h-1.141922c-0.4001923,0-0.7269745,0.0715942-0.9812317,0.2129517c-0.2533569,0.1413612-0.453476,0.3240166-0.6003113,0.5489082
					c-0.1459503,0.2248917-0.2487793,0.4736671-0.3075409,0.7462692c-0.0578308,0.2735405-0.0871887,0.5470848-0.0871887,0.8206253
					c0,0.2634239,0.0266418,0.5195503,0.0798798,0.7683258c0.0541229,0.2487183,0.1413727,0.4736137,0.2643738,0.6737366
					c0.0686035,0.1133308,0.1546326,0.2106857,0.2504272,0.2988625c0.0830994,0.0824814,0.1763611,0.1554565,0.280838,0.217762
					c0.2047119,0.1220665,0.4589691,0.1835938,0.7609863,0.1835938c0.3130035,0,0.5929565-0.0541763,0.8426208-0.1615906
					c0.238266-0.102829,0.4505005-0.2817802,0.6390686-0.5277901v0.567482h0.0411377v0.0337791h1.1574707v-5.3294754
					c0-0.7416801-0.1789551-1.2621727-0.535141-1.559597C248.8818817,35.2933388,248.8712769,35.2889137,248.8629303,35.2822266z
					 M246.2767792,40.0954094c0-0.4690781,0.1147003-0.7930946,0.3441925-0.9739265
					c0.2294769-0.1808319,0.4947815-0.2707748,0.7976837-0.2707748h0.8079529v1.1080971
					c0,0.3616638-0.0899353,0.6443825-0.2707672,0.8490944c-0.1808319,0.2056007-0.4516144,0.3074875-0.8123932,0.3074875
					c-0.2919464,0-0.5032501-0.0861893-0.6505127-0.243412C246.3498077,40.6923027,246.2767792,40.4335785,246.2767792,40.0954094z"
					/>
				<path class="st0" d="M261.6079407,38.1769142c0.09729-0.1073608,0.175354-0.2285423,0.2340698-0.3662529
					c0.0587463-0.1358299,0.1000671-0.2873077,0.1239319-0.453434c0.0247803-0.1661263,0.0367126-0.3313675,0.0367126-0.4974937
					c0-0.67379-0.1881714-1.1712875-0.5636292-1.4934769c-0.0084534-0.0072403-0.0192871-0.01194-0.0278931-0.0190735
					c-0.0049744-0.0043678-0.0081787-0.0103912-0.0132141-0.0147057c-0.3754272-0.3221893-0.9004517-0.4837265-1.5742493-0.4837265
					c-0.5856323,0-1.0638733,0.1560097-1.4347229,0.4681396c-0.3708496,0.3111343-0.5810242,0.7609177-0.6296692,1.3474731
					l0.0450439,0.0096207c-0.0007629,0.0085106-0.0032043,0.0155869-0.0039063,0.0241585l1.0987549,0.234066
					c0.0385132-0.6535568,0.3607178-0.9803352,0.9656372-0.9803352c0.311554,0,0.5358582,0.0882301,0.688385,0.2496033
					c0.1475525,0.1833725,0.2223816,0.4132423,0.2223816,0.6905441c0,0.3295441-0.0587463,0.5810242-0.175354,0.7554436
					c-0.1174622,0.1744194-0.3175964,0.2616005-0.6003113,0.2616005h-0.6737366v1.0106354h0.0411377v0.0337791h0.6443787
					c0.1476135,0,0.271759,0.0273628,0.3754272,0.0787201c0.0857849,0.052742,0.1621399,0.116539,0.2131042,0.2096901
					c0.1166077,0.2148323,0.175354,0.4883728,0.175354,0.8197403c0,0.4295502-0.1046448,0.7251511-0.3148804,0.8858032
					c-0.2101746,0.1605988-0.4414978,0.2414246-0.6948547,0.2414246c-0.2962646,0-0.5188293-0.0754623-0.6784973-0.2152748
					c-0.1542969-0.1568947-0.2427979-0.4039001-0.2616577-0.746933l-0.0340576,0.0053101
					c-0.0010986-0.0147629-0.0062256-0.0239372-0.0070801-0.0390854l-1.1271667,0.1762428
					c0.0578308,0.6535568,0.2726135,1.127224,0.6434631,1.4200592c0.0067444,0.0053101,0.0148621,0.0087929,0.0216675,0.0139885
					c0.0071106,0.0058594,0.012207,0.0140953,0.0194397,0.0197906c0.3708496,0.2927818,0.8500061,0.4396667,1.4356689,0.4396667
					c0.2927856,0,0.5727844-0.036705,0.8417358-0.1101799c0.2680054-0.0734138,0.5048523-0.1927147,0.7104492-0.3588982
					c0.2047119-0.165184,0.3680725-0.3854904,0.4902039-0.6590309c0.1220703-0.2726555,0.1826477-0.6141434,0.1826477-1.024456
					c0-0.3809013-0.0440674-0.7251511-0.1312561-1.0326347c-0.0475769-0.1660728-0.1374817-0.2972031-0.2561646-0.4048386
					c-0.0961914-0.0989037-0.223999-0.1719322-0.3735657-0.2273827v-0.0195122
					C261.3876343,38.3678627,261.5097351,38.2843285,261.6079407,38.1769142z"/>
			</g>
		</g>
	</g>
	<path class="st0" d="M14.5068693,31.1942673l0.0426416,3.7529526c0.037776,3.3212662-1.6440821,5.6629333-5.3109741,5.5772743
		v-3.1126747l0,0c1.5043249,0,2.075264-0.8383026,2.0790586-2.2697754l0.0106802-3.9181461L14.5068693,31.1942673
		L14.5068693,31.1942673z M11.3175955,30.2189445l-0.0293322-2.9330997
		c-0.0151501-1.5344257-0.7910147-1.5095539-2.0511856-1.5095539l-0.0091324-2.8563881
		c3.473937-0.4710884,5.2715473,1.4293709,5.2787409,3.7785988l0.0107737,3.4990711L11.3175955,30.2189445L11.3175955,30.2189445z
		 M8.7059536,43.5169258l-3.2367725,0.0001907l-0.0106802-23.080061l3.2526016-0.3426342L8.7059536,43.5169258L8.7059536,43.5169258
		z M0.0107795,30.6287651v-2.6135712c0-3.0809917,2.2698865-4.8275375,5.0002975-4.8918285l-0.0181503,2.8455048
		c-2.1735504,0.0321388-2.1542237,1.2794914-2.1572347,2.6546516l0.0055361,2.0160236L0.0107795,30.6287651L0.0107795,30.6287651z
		 M2.8463721,31.5955563l0.064285,1.8415127v1.9191017c0,1.8853111,0.5511363,1.9592323,2.0684788,1.9592323l0.0106802,0.3105545
		v3.1126709c-3.0283644,0-4.989717-1.883667-4.989717-5.620182L0,31.6169167L2.8463721,31.5955563L2.8463721,31.5955563z
		 M19.9875088,18.9214706l-3.1548004,0.3298988l-0.1493721,24.2630272l3.1522827-0.0000954L19.9875088,18.9214706
		L19.9875088,18.9214706z M20.6430435,33.7982407h0.4937363c3.8240318,0,5.2357998-1.8628616,5.2357998-5.8878422v-1.6441669
		l-3.3979797,0.0107803l0.0214558,1.8711319c0.0137959,1.2019138-0.305418,2.3434982-1.8271313,2.3434982h-0.4937363
		L20.6430435,33.7982407L20.6430435,33.7982407z M26.3939514,25.4845543l-0.0105915-1.2847519
		c-0.0332069-4.0132065-1.0302982-5.8368607-4.8075218-5.4489651l-0.8988094,0.0923519l-0.0017414,3.6106644l0.644556,0.001255
		c1.6997166,0,1.6332932,0.4822769,1.6332932,2.1170425v0.8910313L26.3939514,25.4845543L26.3939514,25.4845543z
		 M32.8509865,22.5821419l-2.9529972,20.9267235l-2.8596706,0.0028038l3.7824612-25.7261696l4.6799221-0.4906311
		l3.2541542,26.2184601l-3.3215599-0.0064163L32.8509865,22.5821419L32.8509865,22.5821419z M33.7552338,35.1812744
		l0.4386749,3.1445084h-2.7522602l0.5366554-3.0803146L33.7552338,35.1812744L33.7552338,35.1812744z M43.8503227,43.5116692
		h-3.2375488l0.085659-26.7563839l3.3644714-0.3519402L43.8503227,43.5116692L43.8503227,43.5116692z M48.3399849,15.9617615
		l3.4951096-0.364006l0.0105896,27.9165459l-3.5056992-0.000103V15.9617615L48.3399849,15.9617615z M47.5412102,28.02841
		l-0.0306854,3.3282413l-2.6105728,0.0320549v-3.2424126L47.5412102,28.02841L47.5412102,28.02841z M61.4567528,32.5419617
		c-0.9460068,0.6143494-1.9055099,0.8535385-2.798111,0.7761459l0.0056267-4.3783836
		c1.2202606,0.8473377,1.9891319,0.6692295,2.7766533,0.0829525L61.4567528,32.5419617L61.4567528,32.5419617z
		 M62.2238655,14.5050287l3.6844826-0.3841944l-0.0400162,29.3934669l-3.6869049,0.0000954L62.2238655,14.5050287
		L62.2238655,14.5050287z M58.2011337,14.9250441l-0.2928009,18.3426476
		c-2.0870171-0.0769005-3.3855591-2.3030891-3.3937149-4.8030529L54.471405,15.315156L58.2011337,14.9250441L58.2011337,14.9250441z
		 M76.2149582,37.8224258l-3.3065948,0.0641975l0.3927231-3.9689293l2.316124-0.0641861L76.2149582,37.8224258
		L76.2149582,37.8224258z M74.4198685,19.036438l-3.2328873,24.4755211l-3.2130737,0.0005989l3.960083-30.0132675
		l5.3687592-0.5673532l4.0786743,30.5803146l-3.8748245,0.0020485L74.4198685,19.036438L74.4198685,19.036438z
		 M86.9303207,43.5117722H83.58741l-0.0214691-31.259655l3.3301086-0.3210449L86.9303207,43.5117722L86.9303207,43.5117722z
		 M93.0273514,11.2883577l3.3834229-0.3424358l-0.1230469,32.5657463l-3.249794-0.0027199V27.6146889L93.0273514,11.2883577
		L93.0273514,11.2883577z M92.1244736,24.8306618l-4.2743607,17.6029358l0.0063171-14.0369377l4.2455139-16.0708218
		L92.1244736,24.8306618L92.1244736,24.8306618z M94.5776215,4.3033028c0.0427322,2.6674695-0.8907623,5.1919088-3.967865,5.5731764
		c-4.2590103,0.5276327-4.8018875-2.2111325-4.8450165-4.652535l2.527626-0.2569523
		c0.0602264,1.4043922,0.1780243,2.3170877,2.0606155,2.0981717c1.1296463-0.1313825,1.5887222-1.4763465,1.6675797-2.4966488
		L94.5776215,4.3033028L94.5776215,4.3033028z M105.0279617,14.7442179c-0.13237,0.0334988-1.6316376,0.8909369-1.6316376,4.1308298
		v1.8481941l-3.8929901,0.1925888v-1.6861343c0-4.6379499,1.0310822-8.5521021,5.5305405-9.1434402L105.0279617,14.7442179
		L105.0279617,14.7442179z M106.1549988,43.8505058l-0.0876999-4.7401276
		c1.9836807-0.1766472,1.843544-2.4744949,1.8366547-5.0439034l-0.0429306-16.0232296
		c0-2.219883-0.3630219-3.1129637-1.8279266-3.5016012l0.1276321-4.5964108
		c1.8205261-0.2106342,3.08741,0.1726713,4.0540924,1.081686c1.0445786,0.9823179,2.3385315,3.6170721,2.2968826,4.9594116
		l-0.1071167,3.4315825c-0.075264,2.4178886-1.1840363,5.6475868-3.1246033,6.3392334
		c1.0584641,0.3891411,2.2971802,1.4735451,2.7202301,2.891634c0.2605438,0.8731632,0.3926086,1.6360111,0.390007,3.2918262
		l-0.0068893,4.4775295c-0.0044861,2.8740501-1.166275,4.8118973-2.2111435,5.7945099
		C109.2079239,43.1194344,107.9677429,43.7805901,106.1549988,43.8505058L106.1549988,43.8505058z M105.1324539,39.0534668
		l-0.0466995,4.7529602c-3.598053-0.2724152-5.5622253-3.4010963-5.5938797-5.6538086l-0.0856628-6.0940018h3.9315491v2.7236137
		C103.3377609,39.2095375,104.749527,38.9562645,105.1324539,39.0534668L105.1324539,39.0534668z M107.1269226,29.0747242
		c-0.8705444-0.7237968-2.249588-0.6564121-3.0723572-0.6564121l0.0213699-4.3450508
		c0.8284988,0,2.2258835,0.0667267,3.0467224-0.9727192L107.1269226,29.0747242L107.1269226,29.0747242z M119.1735687,43.5143013
		h-3.7146835l0.0856628-34.5597382l3.7101135-0.3961458L119.1735687,43.5143013L119.1735687,43.5143013z M124.9204941,23.2608757
		l-4.425972,17.9668274l-0.0276642-14.504631l4.4151764-18.1582451L124.9204941,23.2608757L124.9204941,23.2608757z
		 M125.9281616,7.8516202l3.9923401-0.4176936l0.0161285,36.0735703l-3.9993286,0.0054359L125.9281616,7.8516202
		L125.9281616,7.8516202z M144.2949066,5.9355292l4.8763733-0.503355v38.0793037l-4.8769684-0.0853691L144.2949066,5.9355292
		L144.2949066,5.9355292z M139.2398071,22.4932804l3.8648224-0.2569733l0.0037079,5.0624714l-3.8685303,0.2570457V22.4932804
		L139.2398071,22.4932804z M138.2846069,43.5117722l-4.6287384-0.0028229V7.0492506l4.6180573-0.4870343L138.2846069,43.5117722
		L138.2846069,43.5117722z M153.0040588,10.4408207V5.0252495l14.1850281-1.4880986l0.0106812,5.5657945L153.0040588,10.4408207
		L153.0040588,10.4408207z M152.9504547,11.6185398l5.3357391-0.3823338l-0.0962524,32.2779922h-4.9293976L152.9504547,11.6185398
		L152.9504547,11.6185398z M177.8638763,15.6478682c2.3118439-2.1248751,6.7257385-2.8874407,8.9455261-0.1884899
		c1.2653961,1.5383062,2.0751648,2.5286951,2.1229553,7.9268885l0.0823364,9.3062191
		c0.029541,3.3385391-0.5178223,6.2550278-2.0116577,7.9891396c-2.2547302,2.6171799-4.425354,3.0952644-6.7783966,3.1333427
		l-0.0587311-6.2120132c1.7689514-0.254921,2.6852417-1.6334915,2.691452-3.6994286l0.0254517-8.6512814
		c0.0042572-1.4498425,0.0261078-2.7924633-0.8343506-4.3340836c-0.8604126-1.5416203-3.3800201-0.8538513-4.2099304-0.3973999
		L177.8638763,15.6478682L177.8638763,15.6478682z M176.4994812,25.5020351l-5.5992126,0.214138l0.616394-16.7599602
		l5.4196472-0.2981567L176.4994812,25.5020351L176.4994812,25.5020351z M178.9540863,37.5023422l-0.0397339,6.335743
		c-1.6917725-0.1037178-4.4114685-1.016716-5.3319244-1.8822975c-1.0458527-0.9833946-2.3811188-3.165493-2.4252777-5.0023537
		l-0.1712189-7.1052704l5.473053-0.0856724l0.1018066,4.5591984
		C176.5982208,35.9973297,177.1629791,37.4037704,178.9540863,37.5023422L178.9540863,37.5023422z M171.5622253,7.7070007
		l0.3796997-5.8558798L187.6357574,0l0.0736847,5.9670734L171.5622253,7.7070007L171.5622253,7.7070007z"/>
</g>
</svg>
